<svg id="Layer_2" data-name="Layer 2" xmlns="http://www.w3.org/2000/svg" xmlns:xlink="http://www.w3.org/1999/xlink" width="525.981" height="595.648" viewBox="0 0 525.981 595.648">
  <defs>
    <linearGradient id="linear-gradient" x1="2.629" y1="0.5" x2="3.629" y2="0.5" gradientUnits="objectBoundingBox">
      <stop offset="0" stop-color="#e0f0eb"/>
      <stop offset="1" stop-color="#c0e4ef"/>
    </linearGradient>
    <linearGradient id="linear-gradient-2" x1="5.96" y1="-0.075" x2="5.619" y2="1.336" xlink:href="#linear-gradient"/>
    <linearGradient id="linear-gradient-3" y1="0.5" x2="1" y2="0.5" gradientUnits="objectBoundingBox">
      <stop offset="0" stop-color="#c0e4ef"/>
      <stop offset="1" stop-color="#e0f0eb"/>
    </linearGradient>
    <linearGradient id="linear-gradient-4" x1="0" y1="0.5" x2="1" y2="0.5" xlink:href="#linear-gradient-3"/>
    <linearGradient id="linear-gradient-5" x1="-185.26" y1="0.5" x2="-184.26" y2="0.5" xlink:href="#linear-gradient"/>
    <linearGradient id="linear-gradient-6" x1="-17.301" y1="0.5" x2="-16.301" y2="0.5" xlink:href="#linear-gradient"/>
    <linearGradient id="linear-gradient-7" x1="-5.907" y1="-7.85" x2="-4.6" y2="-7.85" xlink:href="#linear-gradient"/>
    <linearGradient id="linear-gradient-8" x1="0" y1="0.505" x2="1" y2="0.505" xlink:href="#linear-gradient"/>
    <linearGradient id="linear-gradient-9" x1="0" y1="0.5" x2="1" y2="0.5" xlink:href="#linear-gradient"/>
  </defs>
  <g id="Ñëîé_1" data-name="Ñëîé 1" transform="translate(0)">
    <path id="Trazado_55" data-name="Trazado 55" d="M367.382,247.929a39.8,39.8,0,0,1,15.772,35.966c-1.852,18.489-14.453,33.542-32.915,35.58-24.1,2.664-42.227-16.131-42.227-39.682A39.829,39.829,0,0,1,324,247.9H224.464c-13.028,0-12.282-.746-12.282,12.268v91.766a40.135,40.135,0,1,0,0,60.769v77.06a23.564,23.564,0,0,0,23.564,23.564H453.979a23.578,23.578,0,0,0,23.578-23.564V271.493a23.578,23.578,0,0,0-23.578-23.564Z" transform="translate(48.424 82.318)" fill="#eaeaea"/>
    <path id="Trazado_56" data-name="Trazado 56" d="M437.344,50.83H219.284A23.564,23.564,0,0,0,195.72,74.394v81.9c8.072-7.992,19.568-14.866,32.1-13.614,18.4,1.852,33.3,14.333,35.38,32.7a39.736,39.736,0,0,1-67.483,32.756v107.9H303.991a39.749,39.749,0,1,0,50.619,0H437.3a23.564,23.564,0,0,0,23.578-23.564V74.394A23.564,23.564,0,0,0,437.344,50.83Z" transform="translate(64.993 16.879)" fill="#1c88f4"/>
    <path id="Trazado_57" data-name="Trazado 57" d="M298.077,142.331a39.576,39.576,0,0,0-32.849,10.377V72.638A23.578,23.578,0,0,0,241.651,49.06H23.591A23.578,23.578,0,0,0,0,72.638V291.283a22.978,22.978,0,0,0,22.978,22.992h81.163a39.536,39.536,0,1,1,51.831,0H265.2V210.627a39.722,39.722,0,1,0,32.849-68.3Z" transform="translate(0 16.291)" fill="#ffd247"/>
    <path id="Trazado_58" data-name="Trazado 58" d="M93.245,230.966a39.656,39.656,0,0,0,10.39,32.862H20.114A20.114,20.114,0,0,0,0,283.942V505.465a23.564,23.564,0,0,0,23.564,23.564H241.637A23.564,23.564,0,0,0,265.2,505.465v-80.55a39.536,39.536,0,1,1,0-51.831V263.854H161.567a39.722,39.722,0,1,0-68.322-32.889Z" transform="translate(0 65.42)" fill="#043c5e"/>
    <path id="Trazado_59" data-name="Trazado 59" d="M131.3,180.672l26.228-.133s-2-7.992-1.252-14.107a7.806,7.806,0,0,1,3.663-5.595c25.709-16.065,19.395-34.421,19.395-34.421s-2.784-23.311-35.819-25.389c-35.22-2.211-32.955,29.066-32.955,29.066s-1.505,17.423,16.824,29.146a10.657,10.657,0,0,1,4.689,7.593A37.738,37.738,0,0,1,131.3,180.672Z" transform="translate(36.703 33.511)" fill="#fff"/>
    <path id="Trazado_60" data-name="Trazado 60" d="M152.342,160.64v9.391c0,3.517-2.264,6.421-5.075,6.434l-15.985.08c-2.811,0-5.128-2.851-5.142-6.367v-9.391Z" transform="translate(41.887 53.344)" fill="#63c1c5"/>
    <path id="Trazado_61" data-name="Trazado 61" d="M144.267,172.52l-1.785,4.3-9.937.053L130.36,172.6Z" transform="translate(43.289 57.289)" fill="#01898c"/>
    <path id="Trazado_62" data-name="Trazado 62" d="M152.086,131.43c4-7.446-5.874-11.069-10.5-5.968a5.222,5.222,0,0,0-1.212,3.423c0,2.211,0,5.648,0,5.648a42.085,42.085,0,0,1-4.116-.932,18.65,18.65,0,0,0-.613-6.167c-2.784-8.112-13.2-1.772-7.087,4a15.292,15.292,0,0,0,5.808,3.09q.253,19.3.533,38.63h1.8q-.186-11.869-.333-23.724c0-4.1-.12-8.206-.173-12.308V135.08a29.04,29.04,0,0,0,4,.693l.2,37.3h1.785l-.2-37.2h1.079C146.451,135.893,150.381,134.641,152.086,131.43Zm-17.7,1.6c-2.518-.826-6.1-2.518-6.447-5.035a1.945,1.945,0,0,1,.639-1.665c4.422-4,5.755,3.17,5.728,4a21.725,21.725,0,0,1,.08,2.7Zm16.171-1.892c-2.025,3.01-5.248,3.876-8.579,3.6v-5.715a4,4,0,0,1,1.146-2.837,5.581,5.581,0,0,1,6.727-1.332C151.7,126.076,151.913,129.086,150.554,131.137Z" transform="translate(42.063 40.873)" fill="#ffd247"/>
    <path id="Trazado_63" data-name="Trazado 63" d="M113.991,100.213a1.4,1.4,0,0,0,0-1.971L100.67,85.081a1.389,1.389,0,1,0-1.958,1.971l13.321,13.161a1.332,1.332,0,0,0,1.958,0Z" transform="translate(32.643 28.119)" fill="#fff"/>
    <path id="Trazado_64" data-name="Trazado 64" d="M154.1,100.014a1.4,1.4,0,0,1,0-1.971l13.161-13.321a1.389,1.389,0,1,1,1.971,1.958L156.073,100A1.4,1.4,0,0,1,154.1,100.014Z" transform="translate(51.037 27.997)" fill="#fff"/>
    <path id="Trazado_65" data-name="Trazado 65" d="M135.525,97.876a1.332,1.332,0,0,0,1.332-1.332L136.751,77.9a1.385,1.385,0,0,0-2.771,0l.107,18.729a1.332,1.332,0,0,0,1.439,1.252Z" transform="translate(44.491 25.407)" fill="#fff"/>
    <path id="Trazado_66" data-name="Trazado 66" d="M26.592,468.661H24.82c3.264-21.713,6.434-43.532,9.524-64.672,2.065-14.227,4.209-28.946,6.367-43.519l1.745.253c-2.158,14.586-4.3,29.306-6.381,43.519C33.052,425.3,29.842,447.028,26.592,468.661Z" transform="translate(8.242 119.701)" fill="#212b53"/>
    <path id="Trazado_67" data-name="Trazado 67" d="M65.022,468.661H63.25c3.264-21.713,6.447-43.532,9.524-64.672,2.065-14.227,4.209-28.946,6.367-43.519l1.745.253c-2.158,14.586-4.3,29.306-6.367,43.519C71.442,425.3,68.245,447.028,65.022,468.661Z" transform="translate(21.003 119.701)" fill="#212b53"/>
    <path id="Trazado_68" data-name="Trazado 68" d="M26,414.3C40.879,383.66,40.879,323.89,40.879,323.89L54.973,414.3Z" transform="translate(8.634 107.554)" fill="#e4cde5"/>
    <path id="Trazado_69" data-name="Trazado 69" d="M102.474,471.467c-5.435-35.073-10.284-68.908-15.4-104.714l-1.705-3.89,1.745-.253,1.758,3.9c5.128,35.873,9.977,69.8,15.439,104.954Z" transform="translate(28.349 120.412)" fill="#212b53"/>
    <path id="Trazado_70" data-name="Trazado 70" d="M59.788,471.467c-3.277-21.833-6.474-43.8-9.578-65.058-2.078-14.24-4.223-28.959-6.381-43.545l1.745-.253c2.158,14.586,4.3,29.306,6.381,43.545,3.1,21.313,6.327,43.386,9.618,65.271Z" transform="translate(14.555 120.412)" fill="#212b53"/>
    <path id="Trazado_71" data-name="Trazado 71" d="M32.18,410.218,42.637,341.43l13.933,63.9-1.825,4.889Z" transform="translate(10.686 113.378)" fill="#212b53"/>
    <path id="Trazado_72" data-name="Trazado 72" d="M101.3,321.39c-13.734-2.3-64.1,1.079-64.1,1.079s-1.412,68.895,14.759,92.019h67.776S99.459,370.2,101.3,321.39Z" transform="translate(12.342 106.457)" fill="url(#linear-gradient)"/>
    <path id="Trazado_73" data-name="Trazado 73" d="M114.26,391.11l-2.371,4.223-63.073.027-.866-4.249Z" transform="translate(15.923 129.876)" fill="#212b53"/>
    <path id="Trazado_74" data-name="Trazado 74" d="M101.183,320.02l-.639,4.223-63.06.027-.293-4.249Z" transform="translate(12.35 106.269)" fill="#212b53"/>
    <path id="Trazado_75" data-name="Trazado 75" d="M42.234,322.367a2.984,2.984,0,1,1-.874-2.123A3,3,0,0,1,42.234,322.367Z" transform="translate(12.034 106.053)" fill="#212b53"/>
    <path id="Trazado_76" data-name="Trazado 76" d="M89.1,322.367a2.984,2.984,0,1,1-.869-2.118,3,3,0,0,1,.869,2.118Z" transform="translate(27.598 106.053)" fill="#212b53"/>
    <path id="Trazado_77" data-name="Trazado 77" d="M55.056,383.871H47.01l.32-26.961H56Z" transform="translate(15.611 118.519)" fill="#63c1c5"/>
    <path id="Trazado_78" data-name="Trazado 78" d="M65.507,387.235H56.835L55.57,346.78h9.937Z" transform="translate(18.453 115.155)" fill="#01898c"/>
    <rect id="Rectángulo_27" data-name="Rectángulo 27" width="8.672" height="33.235" transform="translate(87.544 469.168)" fill="#eb5768"/>
    <path id="Trazado_79" data-name="Trazado 79" d="M74.392,385.432H65.72V352.21h9.618Z" transform="translate(21.824 116.958)" fill="#63c1c5"/>
    <path id="Trazado_80" data-name="Trazado 80" d="M83.592,390.237H74.92v-52.5h11.2Z" transform="translate(24.879 112.153)" fill="#043c5e"/>
    <path id="Trazado_81" data-name="Trazado 81" d="M16.528,437.5a3.5,3.5,0,0,0-1.852,2.664c0,1.692-.266,5.581-.266,5.581l1.678.306.586-3.57c0-.226,3,3.77,5.009,5.781l7.393.146s1.026-2.3-4-4S16.528,437.5,16.528,437.5Z" transform="translate(4.785 145.28)" fill="#00666a"/>
    <path id="Trazado_82" data-name="Trazado 82" d="M22,419.813a34.1,34.1,0,0,1,.44-4.516,27.974,27.974,0,0,1,3.69-9.325c1.812-.679,3.557-1.519,5.408-2.251a49.621,49.621,0,0,1,6.54-1.852c-.08.24-.173.493-.28.746-10.816,28.626-16.877,41.6-17.81,44.718a3.45,3.45,0,0,0-.226,1.412c.16,1.492.853,4.662,5.2,7.673-4.609,1.146-8.952-7.047-8.952-7.047S21.778,429.644,22,419.813Z" transform="translate(5.316 133.449)" fill="#f4a086"/>
    <path id="Trazado_83" data-name="Trazado 83" d="M39.282,329.676l-.493,7.766L31.21,335.87l.906-10.55Z" transform="translate(10.364 108.029)" fill="#f4a086"/>
    <path id="Trazado_84" data-name="Trazado 84" d="M41.009,333.515a4.556,4.556,0,0,0,2.664-.693c3.224-5.1-.44-18.822-.44-18.822l-11.589,2.078-.373,9.2a7.7,7.7,0,0,0,2.891,6.341h0A12.482,12.482,0,0,0,41.009,333.515Z" transform="translate(10.382 104.27)" fill="#f8b68f"/>
    <path id="Trazado_85" data-name="Trazado 85" d="M33.333,439.53A3.41,3.41,0,0,0,32,442.394c.293,1.6.706,5.328.706,5.328h1.638v-3.49c0-.24,3.517,3.49,4.116,3.49h8.685s.573-2.358-4.529-3.117S33.333,439.53,33.333,439.53Z" transform="translate(10.625 145.954)" fill="#00666a"/>
    <path id="Trazado_86" data-name="Trazado 86" d="M30.1,422.959a31.226,31.226,0,0,1-1.159-4.383,47.955,47.955,0,0,1-.333-12.348c1.465-1.252,3.383-.28,4.875-1.612a46.3,46.3,0,0,1,5.488-4v.8c-.253,30.544-1.425,44.824-1.252,48.034,0,.479,1.479,6.794,6.66,8.126-3.916,2.664-9.8-5.115-9.8-5.115S33.3,432.257,30.1,422.959Z" transform="translate(9.418 133.034)" fill="#f8b68f"/>
    <path id="Trazado_87" data-name="Trazado 87" d="M42.37,334.645l7.286,11.9a9.325,9.325,0,0,1,.666,6.061L45.7,372.915a18.184,18.184,0,0,0-.44,3.6l-1.106,53.283H20.83a164.684,164.684,0,0,0,4.436-24.07c1.479-13.574-2.851-19.475-1.638-25.416a29.026,29.026,0,0,1,5.728-11.589,11.269,11.269,0,0,0,2.4-6.78c.253-10.084-10.3-37.884-.226-31.117S42.37,334.645,42.37,334.645Z" transform="translate(6.917 109.507)" fill="#01898c"/>
    <path id="Trazado_88" data-name="Trazado 88" d="M39.007,356l.546,1.945a11.163,11.163,0,0,0,1.572,2.957c2.571,4.276,11.2,14.746,11.2,14.746l6.98,4s-.147,1.012-1.718.719a7.139,7.139,0,0,1-2.744-1.146s-.293,1.146,1.159,3.45c1.066,1.718,4.529,4.662,2.158,5.182a40.129,40.129,0,0,1-4.809-2.664,4.649,4.649,0,0,1-2.331-3.29l-.639-3.7L35.557,366.07A11.123,11.123,0,0,1,32,360.942V360.8Z" transform="translate(10.626 118.217)" fill="#f8b68f"/>
    <path id="Trazado_89" data-name="Trazado 89" d="M68.443,348.091a6.553,6.553,0,0,0,3.61-1.265c1.852-1.132,4.942-4.676,5.595-2.318-.946,2.185-1.8,4.889-1.8,4.889-.706,1.252-2.944,2.145-4.462,2.438l-4.8.28s-1.718-1.745-1.812-1.812l.506-.866A10.362,10.362,0,0,0,68.443,348.091Z" transform="translate(21.511 114.137)" fill="#f8b68f"/>
    <path id="Trazado_90" data-name="Trazado 90" d="M33.079,366.406l7.646-5.155L37.807,340.87l-.719.093L39.939,360.9l-6.447,4.343-4.769-16.225-.693.2Z" transform="translate(9.308 113.192)" fill="#00666a"/>
    <path id="Trazado_91" data-name="Trazado 91" d="M37.854,320.707a11.816,11.816,0,0,0,6.261,1.452,7.992,7.992,0,0,0,6.128-4c.813-1.745.986-3.57-1.718-5.608a4.223,4.223,0,0,0-5.142.373,1.932,1.932,0,0,1-2.571.08,11.989,11.989,0,0,0-7.859-2.757c-4,0-3.916,3.916-3.3,6.754a4.089,4.089,0,0,1-1.812,4.356c-2.4,1.479-5.435,3.89-4.809,6.314a14.013,14.013,0,0,0,2.664,5.022,3.6,3.6,0,0,1,0,4.369c-1.492,1.958-3.237,4.809-2.664,6.873a23.977,23.977,0,0,0,3.117,6.274,3.89,3.89,0,0,1,0,4.209,5.155,5.155,0,0,0-.813,3.916,8.964,8.964,0,0,0,1.465,3.17,2.531,2.531,0,0,0,4.329-.333c2.664-5.328,7.273-16.251,5.661-24.577-.813-4.169-1.918-11.536-1.918-11.536S33.684,318.936,37.854,320.707Z" transform="translate(7.61 103.024)" fill="#212b53"/>
    <path id="Trazado_92" data-name="Trazado 92" d="M38.65,353.733l8.885,4.6a4.889,4.889,0,0,0,3.6.36l24.417-7.713v-3.09l-23.8,2.891-7.446-4Z" transform="translate(12.834 115.155)" fill="#f8b68f"/>
    <path id="Trazado_93" data-name="Trazado 93" d="M30.844,319.824a2.038,2.038,0,0,1,2.664.266,1.758,1.758,0,0,1,.36,2.518,2.038,2.038,0,0,1-2.664-.267,1.758,1.758,0,0,1-.36-2.518Z" transform="translate(10.117 106.079)" fill="#f8b68f"/>
    <path id="Trazado_94" data-name="Trazado 94" d="M37.26,355.076l2.464-15.186,10.51,12.135-2.891,9.431-10.057-5.208C37.633,355.076,37.327,356.234,37.26,355.076Z" transform="translate(12.373 112.867)" fill="#01898c"/>
    <path id="Trazado_95" data-name="Trazado 95" d="M41.812,365.347a5.522,5.522,0,0,0-.573-.4l3.33-13.627a8.858,8.858,0,0,0-.626-5.741L36.75,333.8c.24-.173.16-.147.28-.346s.32-.067.4-.08L44.7,345.167a9.857,9.857,0,0,1,.706,6.354" transform="translate(12.204 110.694)" fill="#63c1c5"/>
    <path id="Trazado_96" data-name="Trazado 96" d="M69.343,348.319a1.331,1.331,0,0,0,.346.08c-.147.28-.293.546-.426.826L66.6,351.356c-.36-.6-.866-1.439-.919-1.492l4.8-5.874s.959.32.413,1.825a7.113,7.113,0,0,1-1.545,2.5Z" transform="translate(21.81 114.228)" fill="#f8b68f"/>
    <path id="Trazado_97" data-name="Trazado 97" d="M273.626,245s2.664,2.531,8.925,4.116c1.332.346,2.837-.12,2.837,2.131h-7.526l-6.274-1.079v1.079H268.2s-.932-5.528,1.039-6.247Z" transform="translate(88.989 81.357)" fill="#212b53"/>
    <path id="Trazado_98" data-name="Trazado 98" d="M273.278,242.05l.386,4h0a3.823,3.823,0,0,1-4.156.147l-.226-.147-1.412-4Z" transform="translate(88.951 80.377)" fill="#f8b68f"/>
    <path id="Trazado_99" data-name="Trazado 99" d="M251.014,245s2.664,2.531,8.938,4.116c1.332.346,2.837-.12,2.837,2.131h-7.54l-6.261-1.079v1.079h-3.383s-.946-5.528,1.039-6.247Z" transform="translate(81.483 81.357)" fill="#212b53"/>
    <path id="Trazado_100" data-name="Trazado 100" d="M250.678,242.05l.373,4h0a3.8,3.8,0,0,1-4.143.147l-.226-.147-1.412-4Z" transform="translate(81.447 80.377)" fill="#f8b68f"/>
    <path id="Trazado_101" data-name="Trazado 101" d="M266.039,167.35H274.7l3.05,100.451h-5.861l-17.2-81.749Z" transform="translate(84.575 55.572)" fill="#212b53"/>
    <path id="Trazado_102" data-name="Trazado 102" d="M271.978,167.35,251.717,267.8H245.27l2.637-100.451Z" transform="translate(81.447 55.572)" fill="#043c5e"/>
    <path id="Trazado_103" data-name="Trazado 103" d="M255.914,187.385l-1.945-.133a3.45,3.45,0,0,0-.906-2.371,4.9,4.9,0,0,0-3.6-1.159,5.5,5.5,0,0,0-3.876,1.146,2.358,2.358,0,0,0-.706,1.638l-1.945.107a4.156,4.156,0,0,1,1.212-3,7.14,7.14,0,0,1,5.328-1.758,6.66,6.66,0,0,1,5.035,1.772A5.235,5.235,0,0,1,255.914,187.385Z" transform="translate(80.673 60.38)" fill="#f7a605"/>
    <rect id="Rectángulo_28" data-name="Rectángulo 28" width="29.012" height="18.662" transform="translate(315.594 250.029)" fill="#212b53"/>
    <path id="Trazado_104" data-name="Trazado 104" d="M252.492,198.724c0,1.146-.546,1.332-1.212,1.332s-1.212-.12-1.212-1.332v-4a76.247,76.247,0,0,1-13.148-2.358v14.653c0,1.332.506,2.384,1.332,2.384h26.455c.773,0,1.332-1.066,1.332-2.384V192.37a89.172,89.172,0,0,1-13.441,2.278Z" transform="translate(78.674 63.88)" fill="#ffd247"/>
    <path id="Trazado_105" data-name="Trazado 105" d="M264.667,184.69H238.212c-.773,0-1.332,1.066-1.332,2.384v7.14a45.168,45.168,0,0,0,13.148,2.225v-.959c0-1.146.546-1.265,1.212-1.265s1.212.12,1.212,1.265v.959a46.276,46.276,0,0,0,13.441-2.225v-7.14C265.946,185.756,265.44,184.69,264.667,184.69Z" transform="translate(78.661 61.33)" fill="#f7a605"/>
    <path id="Trazado_106" data-name="Trazado 106" d="M249.154,196.818h-2.1a.52.52,0,0,1-.52-.52v-1.226a.519.519,0,0,1,.52-.533h2.1a.533.533,0,0,1,.519.533V196.3A.533.533,0,0,1,249.154,196.818Zm-2.1-2.131a.386.386,0,0,0-.373.386V196.3a.386.386,0,0,0,.373.373h2.1a.386.386,0,0,0,.373-.373v-1.225a.386.386,0,0,0-.373-.386Z" transform="translate(81.865 64.601)" fill="#fff"/>
    <path id="Trazado_107" data-name="Trazado 107" d="M247.877,195.752a.147.147,0,0,1-.133.133h0a.133.133,0,0,1-.133-.133v-1.718a.12.12,0,0,1,.133-.133h0a.133.133,0,0,1,.133.133Z" transform="translate(82.223 64.388)" fill="#fff"/>
    <path id="Trazado_108" data-name="Trazado 108" d="M302.735,158.826a7.713,7.713,0,0,0,4.089,1.186c2.411.2,7.553-.853,6.567,1.532-2.3,1.252-4.862,2.984-4.862,2.984-1.479.626-4.076,0-5.635-.733l-4.489-2.744s-.386-2.518-.426-2.664l1.026-.426a12.522,12.522,0,0,0,3.73.866Z" transform="translate(98.95 52.454)" fill="#f8b68f"/>
    <path id="Trazado_109" data-name="Trazado 109" d="M303.279,160.134a2.415,2.415,0,0,0,.266.28l-.932.426c-1.252,0-2.518.12-3.783.16.08-.733.187-1.745.187-1.825l8.192-1.945s.666.853-.826,1.785A8.459,8.459,0,0,1,303.279,160.134Z" transform="translate(99.232 52.211)" fill="#f8b68f"/>
    <path id="Trazado_110" data-name="Trazado 110" d="M249.5,176.442l2.731,5.994a11.669,11.669,0,0,1-1.8,4.582,1.332,1.332,0,0,1-1.425.28,16.117,16.117,0,0,1-4.2-2.225,1.252,1.252,0,0,1-.133-1.066l.8-2.664.093-6.154Z" transform="translate(81.228 58.175)" fill="#f8b68f"/>
    <path id="Trazado_111" data-name="Trazado 111" d="M262.2,123.229l.093,8.032-7.153-.386-.453-12.455Z" transform="translate(84.575 39.324)" fill="#f4a086"/>
    <path id="Trazado_112" data-name="Trazado 112" d="M263.422,127.08a4.409,4.409,0,0,0,2.411-.573c2.877-4.2-.413-15.505-.413-15.505l-4.609-1.931-5.848,3.65-.333,7.566a6.154,6.154,0,0,0,2.664,5.235h0a12.082,12.082,0,0,0,6.128,1.559Z" transform="translate(84.554 36.219)" fill="#f8b68f"/>
    <path id="Trazado_113" data-name="Trazado 113" d="M257.805,118.057c.32-1.332-.546-4.209.746-4,.946.16,4.183.293,5.328.293,2.6,0,7.22-1.026,7.22-4.969a3.6,3.6,0,0,0-2.424-3.49c-1.186-.493-2.531.932-3.756,1.332-2.864,1-8.765,1.812-10.27,1.492a3.517,3.517,0,0,0-3.65,2.451c-.28,2.291,1.252,5.781,2.384,7.992a12.082,12.082,0,0,0,2.6,3.383h0Z" transform="translate(83.338 35.131)" fill="#212b53"/>
    <path id="Trazado_114" data-name="Trazado 114" d="M253.677,115.332a1.931,1.931,0,0,1,2.424.213c.759.626.906,1.559.32,2.065a1.958,1.958,0,0,1-2.411-.213C253.251,116.758,253.1,115.839,253.677,115.332Z" transform="translate(84.122 38.189)" fill="#f8b68f"/>
    <path id="Trazado_115" data-name="Trazado 115" d="M263.154,126.17a20.5,20.5,0,0,0-8.392,1.718,20.168,20.168,0,0,0-11.309,14.04c-2.278,9.671-6.1,32.609,2.664,52.71a45.092,45.092,0,0,0,5.861,0l.932-47.4-.666,33.848h27.134V159.245s.706,4.942,7.273,9.484,32.849,5.009,32.849,5.009V168.57s-23.245-7.992-26.761-10.657-11.109-21.873-11.109-21.873a17.317,17.317,0,0,0-11.869-9.2,32.5,32.5,0,0,0-6.607-.666Z" transform="translate(79.907 41.897)" fill="url(#linear-gradient-2)"/>
    <path id="Trazado_116" data-name="Trazado 116" d="M249.809,175.626,250.449,143l-.706-.013-.653,32.636Z" transform="translate(82.715 47.483)" fill="#63c1c5"/>
    <path id="Trazado_117" data-name="Trazado 117" d="M255.043,124.45l-.453,2.637,8.232-.013-.546-2.624Z" transform="translate(84.541 41.326)" fill="#fab746"/>
    <path id="Trazado_118" data-name="Trazado 118" d="M340.613,140.7s-.24,29.985-8.059,29.625-12.974-23.977-12.974-23.977l3.17-.932,7.593,14.32s-1.146-4.662.786-13.321S340.613,140.7,340.613,140.7Z" transform="translate(106.123 46.562)" fill="#f8b68f"/>
    <path id="Trazado_119" data-name="Trazado 119" d="M336.495,138.37l.346.546c-.08,0-8.7,5.848-8.7,15.305v38.55h15.785l-.506-29.678.666.493.493,29.838H327.49v-39.2C327.49,144.418,336.4,138.437,336.495,138.37Z" transform="translate(108.749 45.948)" fill="#63c1c5"/>
    <rect id="Rectángulo_29" data-name="Rectángulo 29" width="20.62" height="15.385" rx="2.02" transform="translate(454.995 247.072) rotate(180)" fill="#63c1c5"/>
    <path id="Trazado_120" data-name="Trazado 120" d="M326.09,181.293V176.6a2.664,2.664,0,0,1,2.664-2.664h15.252a2.664,2.664,0,0,1,2.664,2.664v4.689Z" transform="translate(108.284 57.76)" fill="#ffdb71"/>
    <path id="Trazado_121" data-name="Trazado 121" d="M328.362,189.319h0c1.332,0,2.344-.559,2.344-1.838V175.759c0-1.332-1.066-1.838-2.344-1.838h0A2.331,2.331,0,0,0,326,175.759v11.216a2.091,2.091,0,0,0,2.358,2.344Z" transform="translate(108.25 57.753)" fill="#01898c"/>
    <path id="Trazado_122" data-name="Trazado 122" d="M335.829,182.605h0a.706.706,0,0,0,.706-.706v-3.583a.706.706,0,0,0-.706-.706h0a.719.719,0,0,0-.719.706V181.9a.719.719,0,0,0,.719.706Z" transform="translate(111.28 58.979)" fill="#043c5e"/>
    <path id="Trazado_123" data-name="Trazado 123" d="M323.489,146.9l1.4-5.715a10.244,10.244,0,0,0-2.331-3.716,1.146,1.146,0,0,0-1.332,0,14.281,14.281,0,0,0-3.317,2.664,1.106,1.106,0,0,0,0,.959l1.132,2.185,1.026,4Z" transform="translate(105.531 45.58)" fill="#f8b68f"/>
    <path id="Trazado_124" data-name="Trazado 124" d="M344.937,134.94c-5.515,0-6.807.8-6.807.8s-7.087,8.778-9.551,14.453a8.086,8.086,0,0,0,0,6.66c4.343,9.324,3.783,27.427,3.783,27.427h16.145C347.827,170.813,361.707,137.484,344.937,134.94Z" transform="translate(108.873 44.809)" fill="#fff"/>
    <path id="Trazado_125" data-name="Trazado 125" d="M327.527,243.21l-.972,3.33a3.823,3.823,0,0,1-1.545,2.211,15.452,15.452,0,0,1-4.249,1.918c2.771,2.2,6.66,0,8.858-1.625a5.129,5.129,0,0,0,1.985-3.317l.306-2.518Z" transform="translate(106.514 80.763)" fill="#f8b68f"/>
    <path id="Trazado_126" data-name="Trazado 126" d="M332.556,244.51a4.076,4.076,0,0,1,1.692,3.1c-.16,1.745-.24,5.821-.24,5.821h-1.785l-.293-3.81c0-.24-3.49,3.81-4.129,3.81h-9.458s-.866-2.571,4.609-3.4S332.556,244.51,332.556,244.51Z" transform="translate(105.695 81.194)" fill="#043c5e"/>
    <path id="Trazado_127" data-name="Trazado 127" d="M333.2,172l-7.753,95.11,5.328.107s9.791-19.981,10-36.565c0-2.731-.093-5.528,1.505-7.619,12.215-15.985,6.048-41.214,6.048-41.214l-8.3-9.817Z" transform="translate(108.072 57.116)" fill="#212b53"/>
    <path id="Trazado_128" data-name="Trazado 128" d="M349.13,243.21l-1.332,3.33a4.289,4.289,0,0,1-1.745,2.211,17.144,17.144,0,0,1-4.422,1.918c2.571,2.2,6.66,0,9-1.625a5.715,5.715,0,0,0,2.278-3.317l.546-2.518Z" transform="translate(113.445 80.763)" fill="#f8b68f"/>
    <path id="Trazado_129" data-name="Trazado 129" d="M354.108,244.51a3.663,3.663,0,0,1,1.412,3.1c-.32,1.745-.759,5.821-.759,5.821h-1.8v-3.81c0-.24-3.836,3.81-4.489,3.81h-9.458s-.626-2.571,4.929-3.4S354.108,244.51,354.108,244.51Z" transform="translate(112.569 81.194)" fill="#043c5e"/>
    <path id="Trazado_130" data-name="Trazado 130" d="M334.953,133.634l-.013,10.577,6.354-6.913-.679-9.857Z" transform="translate(111.223 42.319)" fill="#f4a086"/>
    <path id="Trazado_131" data-name="Trazado 131" d="M335.466,121.649c4.4.6,6.594,6.234,6.594,6.234v16.7l7.633-6.66a59.718,59.718,0,0,0-1.332-15.732c-1.638-5.168-8.219-6.527-12.841-4a10.31,10.31,0,0,0-4.383,6.021,19.022,19.022,0,0,0-.453,9.964l2.664,12.255,3.25-3.224a13.32,13.32,0,0,0,0-6.141C334.854,130.96,332.509,121.249,335.466,121.649Z" transform="translate(109.658 38.839)" fill="#212b53"/>
    <path id="Trazado_132" data-name="Trazado 132" d="M340.738,125.415a1.559,1.559,0,0,0-2.065.2,1.332,1.332,0,0,0-.28,1.932,1.559,1.559,0,0,0,2.065-.2,1.332,1.332,0,0,0,.28-1.931Z" transform="translate(112.272 41.547)" fill="#f8b68f"/>
    <path id="Trazado_133" data-name="Trazado 133" d="M334.346,136.394a3.437,3.437,0,0,1-2.065-.546c-2.451-3.916.346-14.466.346-14.466l3.93-1.812,4.982,3.41.293,7.073a5.968,5.968,0,0,1-2.225,4.875h0a9.578,9.578,0,0,1-5.262,1.465Z" transform="translate(110.006 39.706)" fill="#f8b68f"/>
    <path id="Trazado_134" data-name="Trazado 134" d="M333.559,120.522c-.946,3.157,7.42,6.807,7.42,6.807l2.091-4-3.836-4.7-4.849.773a2.73,2.73,0,0,0-.826,1.119Z" transform="translate(110.74 39.393)" fill="#212b53"/>
    <path id="Trazado_135" data-name="Trazado 135" d="M334.074,120.714c-.186,1.239-2.118,2.744-2.118,2.744l-.186-1.479.44-1.052,1-.546S334.248,119.462,334.074,120.714Z" transform="translate(110.171 39.867)" fill="#212b53"/>
    <path id="Trazado_136" data-name="Trazado 136" d="M347.01,172s15.758,6.66,7.726,48.061a15.719,15.719,0,0,0,.519,7.326c3.41,11.562,1.479,39.829,1.479,39.829h-5.328S333.636,193.46,332.49,172Z" transform="translate(110.41 57.116)" fill="#043c5e"/>
    <path id="Trazado_137" data-name="Trazado 137" d="M308.8,158.669a5.515,5.515,0,0,1-3.25.16c-1.812-.293-5.328-2.091-5.142,0,1.452,1.412,2.984,3.264,2.984,3.264a5.994,5.994,0,0,0,4.289.493l3.863-1.332s.786-1.9.839-2l-.666-.52a8.925,8.925,0,0,1-2.917-.067Z" transform="translate(99.755 52.411)" fill="#f8b68f"/>
    <path id="Trazado_138" data-name="Trazado 138" d="M306.721,159.754a1.491,1.491,0,0,1-.253.186,7.5,7.5,0,0,1,.6.506c.919.266,1.838.559,2.757.839.093-.586.213-1.412.24-1.465l-5.648-3.09s-.653.559.253,1.572A6.074,6.074,0,0,0,306.721,159.754Z" transform="translate(101.012 52.045)" fill="#f8b68f"/>
    <path id="Trazado_139" data-name="Trazado 139" d="M357.026,139.788c-5.768-5.954-16.784,8.778-20.74,13.121a8.219,8.219,0,0,1-2.6,1.931l-26.428,10.27,1.665,2.731,29.132-6.234a11.243,11.243,0,0,0,3.21-1.439C346.769,156.6,362.781,145.729,357.026,139.788Z" transform="translate(102.032 45.955)" fill="#f8b68f"/>
    <path id="Trazado_140" data-name="Trazado 140" d="M333.054,157.964,320,160.721l.266.533,12.881-2.664a11.6,11.6,0,0,0,3.357-1.332,109.77,109.77,0,0,0,11.882-8.738l-.426-.4a121.3,121.3,0,0,1-11.736,8.645,11.028,11.028,0,0,1-3.17,1.2Z" transform="translate(106.262 49.186)" fill="#f4a086"/>
    <path id="Trazado_141" data-name="Trazado 141" d="M104.109,327.945a5.781,5.781,0,0,1,.253,4.116l-.759,5.328-.919.626-3.423,1.412a3.65,3.65,0,0,0,0-2.145l-1.505-5.448s-2.331-9.324,4-8.938c0-7.619,2.091-6.367,2.091-6.367l.147,6.66Z" transform="translate(32.322 105.084)" fill="#f8b68f"/>
    <path id="Trazado_142" data-name="Trazado 142" d="M119.56,341.388s-4.436,16.931-8.219,17.237-7.713-26.815-7.713-26.815l-5.155.613s-2,39,9.551,39.722,13.054-7.926,13.054-7.926Z" transform="translate(32.656 110.184)" fill="#ffdb71"/>
    <path id="Trazado_143" data-name="Trazado 143" d="M114.75,387.648h30.2V341.8c-8.632-13.161-19.382-9.578-19.382-9.578s-9.777.173-11.3,9.138C114.27,347.846,114.75,387.648,114.75,387.648Z" transform="translate(37.946 110.172)" fill="#f7a605"/>
    <path id="Trazado_144" data-name="Trazado 144" d="M127.27,327.54l.453,6.474-.213.213a5.635,5.635,0,0,1-7.646.107h0l-.093-4.875Z" transform="translate(39.772 108.766)" fill="#f4a086"/>
    <path id="Trazado_145" data-name="Trazado 145" d="M131.085,317.37l-.546,10.657a1.665,1.665,0,0,0-1.492,2.1,2.052,2.052,0,0,0-.173.8,12.335,12.335,0,0,1-9.551,2.225c-6.78-1.332-2.664-14.413-2.664-14.413Z" transform="translate(38.328 105.389)" fill="#f8b68f"/>
    <path id="Trazado_146" data-name="Trazado 146" d="M135.43,327.425a6.66,6.66,0,0,1,1.718-2.971c3.836-3.317.4-5.741-.813-6.514s-1.079-3.317-2.824-4.676c-2.664-2.091-5.235.067-6.94-.24s-2.771-2.584-5.248-1.332-2.211,3.144-3,4-2.265-1.452-4.676,1.146c-3.677,4,3.53,5.635,3.53,5.635a13.041,13.041,0,0,0,9.178-.426,1.718,1.718,0,0,1,2.025.506c1.252,1.705,1.332,10.657,1.332,10.657l1.745-1.452S135.2,331.021,135.43,327.425Z" transform="translate(37.393 103.38)" fill="#212b53"/>
    <path id="Trazado_147" data-name="Trazado 147" d="M127.495,324.635a1.649,1.649,0,1,1-.906-2.145,1.652,1.652,0,0,1,.906,2.145Z" transform="translate(41.265 107.048)" fill="#f8b68f"/>
    <path id="Trazado_148" data-name="Trazado 148" d="M123.107,438.62s-1.705,2.358-9.724,4.409c-1.758.44-3.663.746-3.663,3.663h7.912l8.1-1.4v1.4h4.343s1.212-7.153-1.332-8.072Z" transform="translate(36.435 145.652)" fill="#212b53"/>
    <path id="Trazado_149" data-name="Trazado 149" d="M119.46,434.77l.413,5.128h0a4.915,4.915,0,0,0,5.328.187l.306-.187V434.77Z" transform="translate(39.669 144.374)" fill="#f8b68f"/>
    <path id="Trazado_150" data-name="Trazado 150" d="M139.987,438.62s-1.692,2.358-9.724,4.409c-1.758.44-3.663.746-3.663,3.663h7.913l8.1-1.4v1.4h4.369s1.226-7.153-1.332-8.072Z" transform="translate(42.04 145.652)" fill="#212b53"/>
    <path id="Trazado_151" data-name="Trazado 151" d="M136.34,434.77l.413,5.128h0a4.915,4.915,0,0,0,5.328.187l.306-.187V434.77Z" transform="translate(45.274 144.374)" fill="#f8b68f"/>
    <path id="Trazado_152" data-name="Trazado 152" d="M144.678,339.3s9.058,20.887-2.491,31.557S115,379.7,115,379.7v-6.008s14.173-1.2,18.716-10.657-1.825-17.677-1.825-17.677" transform="translate(38.188 112.671)" fill="#f7a605"/>
    <path id="Trazado_153" data-name="Trazado 153" d="M118.8,371.1l-7.233.16c-2.931-.173-4.889-4.556-5.328-7.806a.653.653,0,0,1,.866-.719,92.164,92.164,0,0,1,10.4,4.1Z" transform="translate(35.277 120.438)" fill="#f8b68f"/>
    <path id="Trazado_154" data-name="Trazado 154" d="M115.38,373.72c-9,25.429,5.075,81.722,5.075,81.722h7.992s-3.783-79.831,6.66-81.722Z" transform="translate(37.315 124.101)" fill="#00666a"/>
    <path id="Trazado_155" data-name="Trazado 155" d="M135.48,352.36a16.385,16.385,0,0,1-1.612,6.327c-4.542,9.471-19.448,10.723-19.448,10.723v6.074s16.411,1.692,27.973-8.965c4.183-3.876,5.648-9.085,5.834-14.16Z" transform="translate(37.995 117.008)" fill="#ffdb71"/>
    <path id="Trazado_156" data-name="Trazado 156" d="M131.02,356.235l.946-.426a19.368,19.368,0,0,0-3.61-12.348l-.706.573a18.316,18.316,0,0,1,3.37,12.2Z" transform="translate(42.389 114.052)" fill="#f18813"/>
    <path id="Trazado_157" data-name="Trazado 157" d="M101.44,327.119s1.665-.506,1.918-3.543,1.705-2.091,1.705-2.091-.746,11.989-2.664,12.428S101.44,327.119,101.44,327.119Z" transform="translate(33.605 106.709)" fill="#f8b68f"/>
    <path id="Trazado_158" data-name="Trazado 158" d="M121.352,373.72c-2.451,31.17,17.45,81.722,17.45,81.722h9.538s-6.487-32.316-6.66-62.607a160.372,160.372,0,0,1,.946-19.062Z" transform="translate(40.228 124.101)" fill="#01898c"/>
    <path id="Trazado_159" data-name="Trazado 159" d="M150.755,175.79v2.784a19.834,19.834,0,0,1-19.835,19.835H92.29" transform="translate(30.647 58.374)" fill="none" stroke="#fff" stroke-miterlimit="10" stroke-width="1"/>
    <path id="Trazado_160" data-name="Trazado 160" d="M110.538,242.3s2.984,2.664,9.777,4.409c1.492.373,3.1-.133,3.1,2.291h-8.246l-6.86-1.159V249h-3.7s-1.026-5.941,1.132-6.66Z" transform="translate(34.657 80.46)" fill="#212b53"/>
    <path id="Trazado_161" data-name="Trazado 161" d="M109.922,239.1l.426,4.263h0a4.276,4.276,0,0,1-4.542.147l-.253-.147-.773-4.263Z" transform="translate(34.794 79.398)" fill="#f8b68f"/>
    <path id="Trazado_162" data-name="Trazado 162" d="M136.888,242.3s2.984,2.664,9.777,4.409c1.492.373,3.117-.133,3.117,2.291h-8.259l-6.847-1.159V249h-3.716s-1.026-5.941,1.132-6.66Z" transform="translate(43.407 80.46)" fill="#212b53"/>
    <path id="Trazado_163" data-name="Trazado 163" d="M135.451,239.1l1.758,4.263h0a4.249,4.249,0,0,1-4.529.147l-.266-.147L129.63,239.1Z" transform="translate(43.046 79.398)" fill="#f8b68f"/>
    <path id="Trazado_164" data-name="Trazado 164" d="M44.958,258.753l13.214-45.2-1.918-.626L42.84,258.753Z" transform="translate(14.226 70.707)" fill="#fff"/>
    <path id="Trazado_165" data-name="Trazado 165" d="M94.739,258.753l-13.4-45.823-1.918.626,13.214,45.2Z" transform="translate(26.373 70.707)" fill="#ffdb71"/>
    <path id="Trazado_166" data-name="Trazado 166" d="M56.207,156.881l-2.344,7.646-7.992-3,6.367-10.71Z" transform="translate(15.232 50.083)" fill="#f4a086"/>
    <path id="Trazado_167" data-name="Trazado 167" d="M56.466,161.5a4.17,4.17,0,0,0,2.424.4c4.236-2.717,5.568-14.306,5.568-14.306L61.035,144l-6.74,1.092-3.157,6.9a6.128,6.128,0,0,0,.373,5.781h0a11.989,11.989,0,0,0,4.955,3.73Z" transform="translate(16.798 47.818)" fill="#f8b68f"/>
    <path id="Trazado_168" data-name="Trazado 168" d="M53.746,150.673c.786-1.039,1.758-3.783,2.864-3.09.8.493,3.7,1.865,4.7,2.291,2.371,1,6.993,1.852,8.512-1.758a5.062,5.062,0,0,0-4.662-6.527c-3-.186-7.313.373-8.579-.48-2.118-1.452-5.022-1.066-5.808.919a21.313,21.313,0,0,0-.906,8.219,11.909,11.909,0,0,0,1.066,4.1h0Z" transform="translate(16.534 46.567)" fill="#212b53"/>
    <path id="Trazado_169" data-name="Trazado 169" d="M51.051,147.508a1.945,1.945,0,0,1,2.131,1.132c.453.866.226,1.772-.506,2.011a1.932,1.932,0,0,1-2.118-1.146C50.105,148.654,50.332,147.761,51.051,147.508Z" transform="translate(16.711 48.972)" fill="#f8b68f"/>
    <path id="Trazado_170" data-name="Trazado 170" d="M48.353,163.45,23.63,174.986s19.142,55.148,52.7,60.636,53.616-10,55.4-10.856C83.546,211.231,48.353,163.45,48.353,163.45Z" transform="translate(7.847 54.277)" fill="#f7a605"/>
    <path id="Trazado_171" data-name="Trazado 171" d="M48.353,163.45,23.63,174.986s21.806,49.779,55.387,55.268,51.551-4.7,52.71-5.488C81.535,210.9,48.353,163.45,48.353,163.45Z" transform="translate(7.847 54.277)" fill="#f7a605"/>
    <path id="Trazado_172" data-name="Trazado 172" d="M75.786,191.9l37.231-.573a6.66,6.66,0,0,1,6.66,5.821l6.381,59.011H120.49s-13.321-28.24-11.123-42.959S57.63,200.881,57.63,200.881Z" transform="translate(19.137 63.535)" fill="#00666a"/>
    <path id="Trazado_173" data-name="Trazado 173" d="M48.176,158.511c-22.339,22.818,6.274,62.434,6.274,62.434l27.307-17.677c-10.337-18.143-11-19.275-25.456-43.732a5.168,5.168,0,0,0-8.126-1.026Z" transform="translate(13.166 52.129)" fill="url(#linear-gradient-3)"/>
    <path id="Trazado_174" data-name="Trazado 174" d="M87.957,182.789a1.132,1.132,0,0,0-.8-1.092l-4.676-1.425a4.942,4.942,0,0,0-3.49.253L74.756,182.5l-.586.093v4.143c.839-.413,1.332-.679,1.332-.679l2.664-1.332s6.66,4.449,8.312-.48c1.186,4.556,2.451,3.89,2.451,3.89Z" transform="translate(24.63 59.794)" fill="#f8b68f"/>
    <path id="Trazado_175" data-name="Trazado 175" d="M50.263,161.62c-12.2,0-11.416,27.148-10.084,40.175a6.847,6.847,0,0,0,7.873,6.114c17.93-2.891,39.816-15.532,39.816-15.532l-1.559-3.81-31.783,6.261S65.928,161.62,50.263,161.62Z" transform="translate(13.104 53.669)" fill="url(#linear-gradient-4)"/>
    <path id="Trazado_176" data-name="Trazado 176" d="M86.567,185.136l-31.49,6.207c.813-2.451,3.836-12.242,3.863-20.554-.226.147-.453.293-.693.426-.173,9.231-3.93,20.314-4,20.461l-.186.559,32.076-6.327,1.332,3.277c-2.5,1.412-22.818,12.655-39.443,15.345a6.5,6.5,0,0,1-7.473-5.808A133.489,133.489,0,0,1,40,180.394a5.5,5.5,0,0,1-.666.2,136.322,136.322,0,0,0,.573,18.263,7.273,7.273,0,0,0,2.784,5.009,7.06,7.06,0,0,0,4.329,1.479,6.752,6.752,0,0,0,1.146-.093c17.783-2.864,39.709-15.439,39.962-15.559l.253-.147Z" transform="translate(13.032 56.714)" fill="#63c1c5"/>
    <path id="Trazado_177" data-name="Trazado 177" d="M50.76,208.209s5.968,13.321,31.1,13.321,42.293-8.952,42.293-8.952,7.486,19.022,32.449,42.293h5.968l-25.309-52.377a12.854,12.854,0,0,0-12.228-7.14l-59.3,3.17Z" transform="translate(16.856 64.865)" fill="#01898c"/>
    <path id="Trazado_178" data-name="Trazado 178" d="M49.284,154.33l5.661,4.929-.4,1.971-8.166-2.211Z" transform="translate(15.401 51.248)" fill="#fff"/>
    <path id="Trazado_179" data-name="Trazado 179" d="M99.476,201.055H70.25v-2.011H98.223L113.4,167.82l1.812.879Z" transform="translate(23.328 55.728)" fill="#043c5e"/>
    <rect id="Rectángulo_30" data-name="Rectángulo 30" width="59.037" height="1.345" transform="translate(59.313 322.928) rotate(-33.29)" fill="#fff"/>
    <rect id="Rectángulo_31" data-name="Rectángulo 31" width="1.345" height="59.037" transform="translate(69.202 291.619) rotate(-56.72)" fill="#fff"/>
    <path id="Trazado_180" data-name="Trazado 180" d="M346.943,440.41s-1.332,1.825-7.553,3.423c-1.332.346-2.851.586-2.851,2.837h6.141l6.287-1.079v1.079h3.4s.946-5.541-1.039-6.261Z" transform="translate(111.755 146.247)" fill="#212b53"/>
    <path id="Trazado_181" data-name="Trazado 181" d="M344.1,437.42l.333,4h0a3.823,3.823,0,0,0,4.156.146l.226-.146v-4Z" transform="translate(114.265 145.254)" fill="#f8b68f"/>
    <path id="Trazado_182" data-name="Trazado 182" d="M370.59,441s-1.332,1.825-7.553,3.41c-1.332.346-2.837.586-2.837,2.851h6.141l6.287-1.092v1.092h3.4s.946-5.555-1.039-6.261Z" transform="translate(119.611 146.442)" fill="#212b53"/>
    <path id="Trazado_183" data-name="Trazado 183" d="M367.77,438l.32,4h0a3.85,3.85,0,0,0,4.156.133l.24-.133v-4Z" transform="translate(122.125 145.446)" fill="#f8b68f"/>
    <path id="Trazado_184" data-name="Trazado 184" d="M342.22,366.008,343.752,466.1h7.3s11.109-80.843,8.738-100.145S342.22,366.008,342.22,366.008Z" transform="translate(113.641 118.678)" fill="#212b53"/>
    <path id="Trazado_185" data-name="Trazado 185" d="M348,363.863s2.544,30.758,8.379,47.795,16.384,52.31,16.384,52.31H380.3s-12.6-73.85-9.724-100.158H348Z" transform="translate(115.56 120.81)" fill="#043c5e"/>
    <path id="Trazado_186" data-name="Trazado 186" d="M348.807,325.58s-8.991,20.967-11.283,20.967c-1.825,0,.693-17.117.693-17.117h-7.539s-9.471,29.306-1.932,34.634,24.07-15.172,24.07-15.172Z" transform="translate(108.199 108.115)" fill="#63c1c5"/>
    <path id="Trazado_187" data-name="Trazado 187" d="M366.312,365.956l-2.664,6.74c-1.332,2.664-6.141,2.664-9.324,1.878a.666.666,0,0,1-.32-1.092,91.672,91.672,0,0,1,7.912-7.992Z" transform="translate(117.496 121.368)" fill="#f8b68f"/>
    <path id="Trazado_188" data-name="Trazado 188" d="M350.686,322.3a8.432,8.432,0,0,0-7.233,4,5.741,5.741,0,0,0-.892,2.877v48.474h27.521v-45.29s-.559-10.084-10.4-10.084C355.481,322.258,352.6,322.284,350.686,322.3Z" transform="translate(113.754 107.015)" fill="#63c1c5"/>
    <path id="Trazado_189" data-name="Trazado 189" d="M343.139,374.712V331.18l-.919.04v43.492Z" transform="translate(113.641 109.975)" fill="url(#linear-gradient-5)"/>
    <path id="Trazado_190" data-name="Trazado 190" d="M359.082,315.32l-2.931,11.056a7.02,7.02,0,0,1-5.834,1.146c-3.317-.879-2.664-3.277-2.664-3.277l1.878-7.073h5.248Z" transform="translate(115.428 104.708)" fill="#f4a086"/>
    <path id="Trazado_191" data-name="Trazado 191" d="M348.953,322.849a4.316,4.316,0,0,1-2.3-1.332c-1.692-5.488,5.022-17.317,5.022-17.317l10.19,4.755-1.918,8.579a7.353,7.353,0,0,1-4.223,5.142h0a11.988,11.988,0,0,1-6.767.173Z" transform="translate(115.02 101.015)" fill="#f8b68f"/>
    <path id="Trazado_192" data-name="Trazado 192" d="M362.9,305.959c-1.825-1.692-2.891-1.332-6.327-1.678a15.132,15.132,0,0,1-7.54-2.571s-3.477,3.477.08,5.128a23.536,23.536,0,0,0,7.286,1.945l-2.544,10.257a14.022,14.022,0,0,1,2.051,1.718l1.545-5.794a1.745,1.745,0,0,1,1.332-1.332c.586-.107,1.265.067,1.612,1.252-.546,2.078-1.958,7.9-2.158,8.738l.08.133.493.133,4.516-10.657S365.374,308.264,362.9,305.959Z" transform="translate(115.397 100.189)" fill="#212b53"/>
    <path id="Trazado_193" data-name="Trazado 193" d="M330.56,330.884l.266-1.452c.586-3.2,3.65-7.18,6.727-8.232h3.2l-.986,6.834-4.516,2.851Z" transform="translate(109.769 106.661)" fill="#f8b68f"/>
    <path id="Trazado_194" data-name="Trazado 194" d="M357.3,310.669A1.931,1.931,0,0,0,355.077,312a1.652,1.652,0,0,0,.679,2.318,1.931,1.931,0,0,0,2.225-1.332,1.678,1.678,0,0,0-.679-2.318Z" transform="translate(117.834 103.151)" fill="#f8b68f"/>
    <path id="Trazado_195" data-name="Trazado 195" d="M338.034,326.355l-6.234,3.61h4l6.66-5.515s-.48-.972-1.971-.16a7.526,7.526,0,0,0-2.451,2.065Z" transform="translate(110.181 107.579)" fill="#f8b68f"/>
    <path id="Trazado_196" data-name="Trazado 196" d="M363.3,324.54s15.559,17.317,15.559,27.64-12.628,28.613-12.628,28.613L360,378.968s5.635-22.645,5.635-28.6-11.562-14.826-11.562-14.826" transform="translate(117.576 107.77)" fill="#63c1c5"/>
    <path id="Trazado_197" data-name="Trazado 197" d="M365.256,347.716c0,5.182-4.569,24.1-5.648,28.506l.919.226c1.332-5.448,5.648-23.644,5.648-28.733,0-6.168-11.269-14.813-11.749-15.186l-.546.733C354.04,333.343,365.256,342,365.256,347.716Z" transform="translate(117.513 110.423)" fill="url(#linear-gradient-6)"/>
    <path id="Trazado_198" data-name="Trazado 198" d="M341.742,318.074a16.491,16.491,0,0,1-4.329,11.616,1.8,1.8,0,0,1-1.226.506,4.622,4.622,0,0,1-2.091-.626,2,2,0,0,1-1.186-1.092.853.853,0,0,1,.213-.879c.986-1.132,4.089-5.075,3.383-8.991A6.767,6.767,0,0,1,341.742,318.074Z" transform="translate(110.535 105.524)" fill="#00666a"/>
    <path id="Trazado_199" data-name="Trazado 199" d="M333.55,329.269a1.332,1.332,0,0,1-.639-.786.853.853,0,0,1,.213-.879c.986-1.132,4.089-5.075,3.383-8.991a5.834,5.834,0,0,1,2.571-.813C338.692,321.956,337.453,324.62,333.55,329.269Z" transform="translate(110.535 105.532)" fill="#01898c"/>
    <path id="Trazado_200" data-name="Trazado 200" d="M336.654,322.258c-.32.919-.866,1.572-1.239,1.452s-.4-.972-.08-1.9.866-1.572,1.226-1.452S336.96,321.326,336.654,322.258Z" transform="translate(111.281 106.375)" fill="#00666a"/>
    <path id="Trazado_201" data-name="Trazado 201" d="M336.343,320.417l-.373-.147v.2l.253.133Z" transform="translate(111.565 106.352)" fill="#f59c42"/>
    <path id="Trazado_202" data-name="Trazado 202" d="M335.526,322.923l-.466-.16.559-.013Z" transform="translate(111.263 107.175)" fill="#e8375e"/>
    <path id="Trazado_203" data-name="Trazado 203" d="M336.38,322.178c-.306.919-.866,1.572-1.226,1.452s-.4-.972-.093-1.9.866-1.572,1.239-1.452S336.74,321.246,336.38,322.178Z" transform="translate(111.195 106.348)" fill="#63c1c5"/>
    <path id="Trazado_204" data-name="Trazado 204" d="M341.523,314l.733.093a2.5,2.5,0,0,1,2.238,2.744l-.24,1.918a2.518,2.518,0,0,1-2.851,2.1l-.733-.093Z" transform="translate(113.126 104.27)" fill="#00666a"/>
    <path id="Trazado_205" data-name="Trazado 205" d="M324.4,315.579c-.666,5.248,0,9.658,1.505,9.844s3.224-3.916,3.89-9.165,0-9.671-1.505-9.857S325.057,310.318,324.4,315.579Z" transform="translate(107.639 101.744)" fill="#212b53"/>
    <path id="Trazado_206" data-name="Trazado 206" d="M329.481,311.18l-2.3,1.119-.386,3.064,1.945,2.278,1.252-3.9Z" transform="translate(108.517 103.333)" fill="#fff"/>
    <path id="Trazado_207" data-name="Trazado 207" d="M329.19,316.154c.546-4.422.16-8.232-.866-9.444h0A43.653,43.653,0,0,0,346.8,316.5l-.839,6.66s-14.053-2.571-19.981,1.892h0C327.339,324.16,328.671,320.564,329.19,316.154Z" transform="translate(108.248 101.849)" fill="#ffd247"/>
    <path id="Trazado_208" data-name="Trazado 208" d="M326.721,313.515a2.748,2.748,0,0,0,.107,1.585c.107.027.373-.666.48-1.519s.067-1.559-.093-1.572S326.828,312.663,326.721,313.515Z" transform="translate(108.479 103.609)" fill="#ffd247"/>
    <path id="Trazado_209" data-name="Trazado 209" d="M333.16,325.886a7.259,7.259,0,0,0,3.477.573c1.812,0,2.664-2.225,2.931-3.437.107-.426.2-1.039-.32-1.332l-2.917-.4Z" transform="translate(110.632 106.69)" fill="#f8b68f"/>
    <path id="Trazado_210" data-name="Trazado 210" d="M304.068,344.27l2.145,2.225-2.291,13.134-2.171,1.252Z" transform="translate(100.202 114.321)" fill="url(#linear-gradient-7)"/>
    <path id="Trazado_211" data-name="Trazado 211" d="M234.46,358.012S244.5,377.993,250.618,379.1s33.994-8.938,33.994-8.938v-4l-27.867.666-6.66-13.68Z" transform="translate(77.857 117.27)" fill="#f4a086"/>
    <path id="Trazado_212" data-name="Trazado 212" d="M249.957,338.56c-33.022,1.665-29.306,57.812-29.306,57.812h35.393S262.252,375.858,249.957,338.56Z" transform="translate(73.23 112.425)" fill="#ffd247"/>
    <path id="Trazado_213" data-name="Trazado 213" d="M245.316,438.375s0,4.449,8.952,7.113c1.838.546,1.239,1.092,1.585,1.865H245.569l-4-4.529-1.252,1.079-2.931-2.864s1.332-4.129,3.57-4.169Z" transform="translate(78.83 145.071)" fill="#212b53"/>
    <path id="Trazado_214" data-name="Trazado 214" d="M246.8,433.86l-2.371,5.515h0a4,4,0,0,1-4.169-1.266l-.187-.226,1.332-4Z" transform="translate(79.72 144.072)" fill="#f8b68f"/>
    <path id="Trazado_215" data-name="Trazado 215" d="M238.282,331.8l-1.132,10.39a6.421,6.421,0,0,0,4.662,3.117c3.17.346,3.41-1.945,3.41-1.945l.733-6.767-4.556-1.732Z" transform="translate(78.75 110.181)" fill="#f4a086"/>
    <path id="Trazado_216" data-name="Trazado 216" d="M245.894,341.181a4,4,0,0,0,2.424-.36c3.3-4.2,1.4-16.651,1.4-16.651L239.3,324.9l-1.212,8.086a6.847,6.847,0,0,0,1.958,5.861h0a11,11,0,0,0,5.848,2.331Z" transform="translate(79.038 107.647)" fill="#f8b68f"/>
    <path id="Trazado_217" data-name="Trazado 217" d="M244.44,326.518a22,22,0,0,0,6.967.746c3.637-.24,1.785-4.422,1.785-4.422a14.187,14.187,0,0,1-7.406-.28c-3.117-.813-3.9-1.519-6.048-.653-2.917,1.172-2.8,6.234-2.8,6.234l.386,10.723.586.746s.8-6.94,1.039-9.085c.693-.906,1.332-.839,1.812-.546a1.612,1.612,0,0,1,.693,1.545l-1.186,10.963s6.66,3.77,8.5,3.41,1.532-8.605,1.532-8.605a3.29,3.29,0,0,0-3.73.493c-1.772,1.6-3.477-.44-3.477-.44Z" transform="translate(78.68 106.764)" fill="#212b53"/>
    <path id="Trazado_218" data-name="Trazado 218" d="M239.5,327.59a1.812,1.812,0,0,1,1.505,1.865c0,1.012-.573,1.812-1.332,1.785a1.772,1.772,0,0,1-1.492-1.852A1.505,1.505,0,0,1,239.5,327.59Z" transform="translate(79.09 108.782)" fill="#f8b68f"/>
    <path id="Trazado_219" data-name="Trazado 219" d="M249.448,382s16.464,9.245,24.737,20.407a8.206,8.206,0,0,1,.16,9.564l-27.694,39.962H240.47s8.166-29.705,18.023-47.182C259.465,398.291,249.448,382,249.448,382Z" transform="translate(79.853 126.85)" fill="#212b53"/>
    <path id="Trazado_220" data-name="Trazado 220" d="M272.4,362.93l5,.8,4.676,5.062s-2.278,1.106-5.7-2.438c-6.754-.466-4.915-1.678-4.915-1.678Z" transform="translate(90.067 120.518)" fill="#f4a086"/>
    <path id="Trazado_221" data-name="Trazado 221" d="M230.48,362.425s10.044,19.981,16.171,21.087,32.9-11.989,32.9-11.989l1.092-4.289-27.88,4-6.66-13.68Z" transform="translate(76.535 118.731)" fill="#f8b68f"/>
    <path id="Trazado_222" data-name="Trazado 222" d="M277.661,439.76s2.864,2.664,9.391,4.316c1.439.373,3-.12,3,2.251h-7.992l-6.594-1.146v1.146h-3.5s-1-5.821,1.092-6.567Z" transform="translate(90.23 146.031)" fill="#212b53"/>
    <path id="Trazado_223" data-name="Trazado 223" d="M276.882,436.62l.706,4.183h0a4,4,0,0,1-4.369.147l-.24-.147-1.039-4.183Z" transform="translate(90.303 144.988)" fill="#f8b68f"/>
    <path id="Trazado_224" data-name="Trazado 224" d="M279.268,367.222a1.012,1.012,0,0,0-.666-1.052l-4.169-1.625a4.45,4.45,0,0,0-3.21,0l-4.129.813-.44.733-.293,3.81,1.332-.533,2.664-.333s5.688,3.836,7.54-.56c.759,4.263,1.958,3.73,1.958,3.73Z" transform="translate(88.45 120.955)" fill="#f8b68f"/>
    <path id="Trazado_225" data-name="Trazado 225" d="M220.681,382s-5.155,21.673,42.346,29.119a8.325,8.325,0,0,1,6.767,6.221c4.076,16.091,19.075,39.136,19.075,39.136H295l-9.951-43.958a15.985,15.985,0,0,0-4.742-8.192L256.074,382Z" transform="translate(73.227 126.85)" fill="#043c5e"/>
    <path id="Trazado_226" data-name="Trazado 226" d="M245.254,460.438l-7.992-58.2-1.452.2,7.952,58Z" transform="translate(78.305 133.571)" fill="#b0d9c8"/>
    <path id="Trazado_227" data-name="Trazado 227" d="M253.32,404.485H218.3v-6.873c12.282-5.648,35.02,3.437,35.02,3.437Z" transform="translate(72.491 131.42)" fill="#63c1c5"/>
    <path id="Trazado_228" data-name="Trazado 228" d="M219.858,409.5v-1.479c-.2,0-4.915-.146-4.915-7.859,0-8.352,5.222-21.007,5.328-21.127l-1.332-.573c-.226.533-5.328,13.054-5.328,21.7C213.477,409.391,219.791,409.5,219.858,409.5Z" transform="translate(70.933 125.675)" fill="#b0d9c8"/>
    <path id="Trazado_229" data-name="Trazado 229" d="M226.8,385.067c-8.605-2.025-9.671-.879-9.671-.879s2.664-10.177.12-16.251c10.537-6.088,12.495,1.159,12.495,1.159S231.61,375.25,226.8,385.067Z" transform="translate(72.102 121.372)" fill="#63c1c5"/>
    <path id="Trazado_230" data-name="Trazado 230" d="M216.079,460.438l7.966-58-1.465-.2-7.979,58.2Z" transform="translate(71.262 133.571)" fill="#b0d9c8"/>
    <path id="Trazado_231" data-name="Trazado 231" d="M338.891,373.981H263.11a2.771,2.771,0,0,1,2.771-2.771h70.267a2.771,2.771,0,0,1,2.771,2.771Z" transform="translate(87.371 123.267)" fill="#212b53"/>
    <path id="Trazado_232" data-name="Trazado 232" d="M264.592,470.075l-1.692-.293,7.793-96.562,1.692.293Z" transform="translate(87.301 123.935)" fill="#b0d9c8"/>
    <path id="Trazado_233" data-name="Trazado 233" d="M320.209,470.075l1.705-.293-7.793-96.562-1.692.293Z" transform="translate(103.748 123.935)" fill="#b0d9c8"/>
    <rect id="Rectángulo_32" data-name="Rectángulo 32" width="15.918" height="1.319" transform="translate(359.685 493.159)" fill="url(#linear-gradient-8)"/>
    <path id="Trazado_234" data-name="Trazado 234" d="M297.616,384.618h-11.3v-1.705h11.3a6.167,6.167,0,0,0,6.074-5.328l7.726-47.595,1.678.266-7.713,47.582A7.886,7.886,0,0,1,297.616,384.618Z" transform="translate(95.078 109.579)" fill="url(#linear-gradient-9)"/>
    <path id="Trazado_235" data-name="Trazado 235" d="M307.259,330.01l-1.159.892-7.26,43.559,1.012,1.146Z" transform="translate(99.236 109.586)" fill="#212b53"/>
    <path id="Trazado_236" data-name="Trazado 236" d="M289.2,31.04l3.264,8.046-5.382,13.64-5.7-18.676Z" transform="translate(93.438 10.307)" fill="#f8b68f"/>
    <path id="Trazado_237" data-name="Trazado 237" d="M226.778,16.24l-4.729,10.577-4.569,27.4h4.569c11.736-12.881,11.736-36.525,11.736-36.525Z" transform="translate(72.218 5.393)" fill="#63c1c5"/>
    <path id="Trazado_238" data-name="Trazado 238" d="M267.473,63.554H217.068a5.328,5.328,0,0,1-5.248-5.968l5.435-42.466h7.18s1.465,11.989,1.625,18.716c.666,7.38-3.583,18.423-3.583,18.423s24.617-15,35.22-14.013c8.312,1.052,10.324-.493,10.324-.493Z" transform="translate(70.326 5.021)" fill="#b0d9c8"/>
    <path id="Trazado_239" data-name="Trazado 239" d="M286.2,23.373s7.18-.972,12.228,10.443a19.3,19.3,0,0,1-5.128,4.236s.52,8.259-2.371,10.11-20.7,12.881-20.7,12.881H253.59V38.865L276.9,22.68Z" transform="translate(84.209 7.531)" fill="#01898c"/>
    <path id="Trazado_240" data-name="Trazado 240" d="M273.528,18.23c-1.079,0,.4,6.873.4,6.873s.08,10.19,3.663,10.19c4.076,0,4.076-10.5,4.076-10.5V22S274.594,18.23,273.528,18.23Z" transform="translate(90.699 6.054)" fill="#f4a086"/>
    <path id="Trazado_241" data-name="Trazado 241" d="M280.88,26.864a4,4,0,0,0,2.491-.186c3.676-4,3.676-16.877,3.676-16.877H275.312L273.5,17.952a7.02,7.02,0,0,0,1.572,6.128h0a11.176,11.176,0,0,0,5.808,2.784Z" transform="translate(90.767 3.254)" fill="#f8b68f"/>
    <path id="Trazado_242" data-name="Trazado 242" d="M254.349,27.132c9.324-5.075,15.359-2.518,18.462-3.916C277.953,20.885,280.8,4.993,289.875,5.9s9.111,6.98,9.111,6.98,2.025,5.222-10.55,4c-2.011-.2-4.556.866-4.609,2.891-.12,5.062.08,9.471.08,9.471s-9.324,2.931-12.934,6.234-10.017,20.181-20.421,20.181C240.775,54.76,239.19,35.351,254.349,27.132Z" transform="translate(80.72 1.947)" fill="#212b53"/>
    <path id="Trazado_243" data-name="Trazado 243" d="M261.872,36.06,271.33,41.6l-4.236,7.819c-1.026,1.332-.08,2.344,1.625,2.384l23.458.559V56.6H255.718C251.428,56.6,261.872,36.06,261.872,36.06Z" transform="translate(84.573 11.974)" fill="#f8b68f"/>
    <path id="Trazado_244" data-name="Trazado 244" d="M321.975,34.83H289.206L278.43,57.009h32.782Z" transform="translate(92.458 11.566)" fill="#212b53"/>
    <rect id="Rectángulo_33" data-name="Rectángulo 33" width="42.067" height="1.958" transform="translate(361.603 66.617)" fill="#212b53"/>
    <path id="Trazado_245" data-name="Trazado 245" d="M295.83,41.232a1.332,1.332,0,1,0,1.332-1.332A1.332,1.332,0,0,0,295.83,41.232Z" transform="translate(98.236 13.25)" fill="#efeeee"/>
    <path id="Trazado_246" data-name="Trazado 246" d="M216.56,16.807l1.225-6.474.986-.2a4.756,4.756,0,0,1,1.892,0l1.332.226v6.474Z" transform="translate(71.913 3.334)" fill="#f8b68f"/>
    <path id="Trazado_247" data-name="Trazado 247" d="M219.142,13.541,213.6,6.188c-.892-1.172-1.652-2.664-.653-4.116A13.321,13.321,0,0,1,214.413.38c.706-.16,10.537,10.657,10.537,10.657v.093a2.558,2.558,0,0,1-2.784,2.558Z" transform="translate(70.556 0.126)" fill="#f7a605"/>
    <path id="Trazado_248" data-name="Trazado 248" d="M213.93.506l10.537,10.657.466-.653L214.41,0Z" transform="translate(71.04)" fill="#fff"/>
    <rect id="Rectángulo_34" data-name="Rectángulo 34" width="1.892" height="0.972" transform="translate(287.864 11.214) rotate(-35.39)" fill="#fff"/>
    <rect id="Rectángulo_35" data-name="Rectángulo 35" width="1.998" height="0.972" transform="matrix(0.818, -0.575, 0.575, 0.818, 286.416, 9.277)" fill="#fff"/>
    <path id="Trazado_249" data-name="Trazado 249" d="M228.5,15.96l-2.944-8.725c-.466-1.332-.706-3.1.679-4.1A12.587,12.587,0,0,1,228.172,2c.719.08,6.66,13.427,6.66,13.427v.093a2.558,2.558,0,0,1-3.45,1.559Z" transform="translate(74.781 0.664)" fill="#f7a605"/>
    <path id="Trazado_250" data-name="Trazado 250" d="M227.43,2.073,234.064,15.5l.639-.453L228.043,1.74Z" transform="translate(75.522 0.578)" fill="#fff"/>
    <rect id="Rectángulo_36" data-name="Rectángulo 36" width="1.892" height="0.972" transform="translate(302.323 13.732) rotate(-16.98)" fill="#fff"/>
    <rect id="Rectángulo_37" data-name="Rectángulo 37" width="1.998" height="0.972" transform="translate(301.551 11.436) rotate(-16.7)" fill="#fff"/>
    <path id="Trazado_251" data-name="Trazado 251" d="M225.46,17.785,228.4,12.43l3.97,1.359-1.838,5.035Z" transform="translate(74.868 4.128)" fill="#f8b68f"/>
  </g>
</svg>
