<svg xmlns="http://www.w3.org/2000/svg" xmlns:xlink="http://www.w3.org/1999/xlink" width="465.052" height="388.809" viewBox="0 0 465.052 388.809">
  <defs>
    <linearGradient id="linear-gradient" x1="0.744" y1="0.335" x2="0.141" y2="1.171" gradientUnits="objectBoundingBox">
      <stop offset="0" stop-color="#c3e5ee"/>
      <stop offset="0.41" stop-color="#e0f0eb"/>
      <stop offset="1" stop-color="#c0e4ef"/>
    </linearGradient>
    <linearGradient id="linear-gradient-2" x1="-55.904" y1="-51.05" x2="-54.944" y2="-51.05" gradientUnits="objectBoundingBox">
      <stop offset="0" stop-color="#f1f8f8"/>
      <stop offset="1" stop-color="#c0e4ef"/>
    </linearGradient>
    <linearGradient id="linear-gradient-3" x1="-48.166" y1="-43.036" x2="-47.175" y2="-43.036" xlink:href="#linear-gradient-2"/>
    <linearGradient id="linear-gradient-4" x1="-68.41" y1="-0.294" x2="-67.418" y2="-0.294" xlink:href="#linear-gradient-2"/>
    <linearGradient id="linear-gradient-5" x1="-90.324" y1="0.366" x2="-89.268" y2="0.366" xlink:href="#linear-gradient-2"/>
    <clipPath id="clip-path">
      <path id="Trazado_62" data-name="Trazado 62" d="M246.05,32c-.14,4-.16,17.12,5.13,25.58A5,5,0,0,0,254.72,60c12.39,1.69,26.93-2.08,31.89-3.53a4.22,4.22,0,0,0,2.69-2.38c1.73-4,4.85-14.43.23-31.33a3.71,3.71,0,0,0-2.16-2.44c-12.57-5.19-37,6.06-40.48,9.72a3.12,3.12,0,0,0-.84,1.96Z" fill="#63c1c5"/>
    </clipPath>
    <linearGradient id="linear-gradient-6" x1="0" y1="0.5" x2="1" y2="0.5" xlink:href="#linear-gradient"/>
    <linearGradient id="linear-gradient-7" y1="0.5" x2="0.993" y2="0.5" gradientUnits="objectBoundingBox">
      <stop offset="0" stop-color="#e0f0eb"/>
      <stop offset="1" stop-color="#c0e4ef"/>
    </linearGradient>
  </defs>
  <g id="Layer_2" data-name="Layer 2" transform="translate(0.001 -0.001)">
    <g id="Ñëîé_1" data-name="Ñëîé 1">
      <path id="Trazado_1" data-name="Trazado 1" d="M70,189.78c-7.92,7.78-.34,34.73,4,37.92,4.57,3.36,43.74-4.92,51.11-19.13,6.5-12.53-5.4-32.72-13-35.23C105.09,171,77.38,182.54,70,189.78Z" fill="#ffd247"/>
      <path id="Trazado_2" data-name="Trazado 2" d="M88.45,194.95,93.5,208.2l10.51-13.41Z" fill="#fff"/>
      <path id="Trazado_3" data-name="Trazado 3" d="M375.04,123.32l-8.84,28.25-28.28,8.73,24.14,17.13-.44,29.59,23.75-17.65,28.01,9.55-9.45-28.04,17.74-23.69-29.59.33Z" fill="#f69f11"/>
      <path id="Trazado_4" data-name="Trazado 4" d="M337.92,160.3l28.28-8.73,8.65-27.65,10.27,65.63-23.5,17.47.44-29.59Z" fill="#ffd247"/>
      <path id="Trazado_5" data-name="Trazado 5" d="M382.16,183.91c-1.71-.45-7.81,2.45-13.86,7a65.559,65.559,0,0,0-16.74-9.29c1.09-6.5,1.56-13.47-.83-15.69-4.85-4.51-22.86-4.65-25.28-3.23-1.55.91-3.87,7.49-4.93,15.12a65.391,65.391,0,0,0-18.32,4.91c-3.83-5.39-8.45-10.68-11.72-10.56-6.62.24-19.45,12.88-20.16,15.59-.44,1.71,2.44,7.77,6.92,13.8a65.289,65.289,0,0,0-9.95,16.68c-6.3-1-12.85-1.36-15,.95-4.51,4.85-4.65,22.86-3.23,25.28.85,1.44,6.6,3.55,13.54,4.69a65.581,65.581,0,0,0,4.89,19.73c-4.78,3.57-9.06,7.6-8.95,10.55.24,6.61,12.87,19.45,15.59,20.16,1.53.4,6.59-1.89,12-5.61a65.45,65.45,0,0,0,18.2,10.74c-.74,5.6-.8,11,1.25,12.9,4.85,4.51,22.87,4.65,25.29,3.23,1.33-.78,3.23-5.76,4.41-12a65.31,65.31,0,0,0,20.58-5.67c3.42,4.47,7.19,8.3,10,8.19,6.62-.24,19.46-12.87,20.16-15.59.4-1.53-1.9-6.61-5.63-12a65.619,65.619,0,0,0,10-18.27c5.86.84,11.67,1,13.66-1.14,4.51-4.85,4.65-22.87,3.23-25.29-.85-1.44-6.65-3.56-13.64-4.7A65.47,65.47,0,0,0,388,215.24c5.11-3.72,9.91-8.05,9.8-11.17C397.51,197.45,384.87,184.61,382.16,183.91ZM346.3,266.57a29.48,29.48,0,1,1,5.28-41.35,29.48,29.48,0,0,1-5.28,41.35Z" fill="#63c1c5"/>
      <path id="Trazado_6" data-name="Trazado 6" d="M353.72,275.78a42,42,0,1,1,7.52-58.85,42,42,0,0,1-7.52,58.85Zm-51-65.9a230.617,230.617,0,1,0,.02,0Z" fill="#fff"/>
      <path id="Trazado_7" data-name="Trazado 7" d="M367.72,196.57c-.23.14-.47.28-.72.41a60.14,60.14,0,0,1-60,102.4h0c-.18.21-.36.41-.56.61a60.91,60.91,0,0,0,61.24-103.43Z" fill="#fff"/>
      <path id="Trazado_8" data-name="Trazado 8" d="M270.34,228.1a59.83,59.83,0,0,1,21.39-32.47c.21-.17.43-.32.65-.48l-.69-.46-.44.32a60.6,60.6,0,0,0-21.62,32.74Z" fill="#fff"/>
      <path id="Trazado_9" data-name="Trazado 9" d="M174.24,170.81c1.19.71,6.44-.15,12-2.23a51.791,51.791,0,0,0,10.63,10.69c-2.25,4.68-4.13,9.85-2.81,12.06,2.69,4.47,16.28,8.52,18.42,8,1.38-.35,4.57-4.82,7.05-10.36a51.79,51.79,0,0,0,14.93.3c1.72,4.91,4,9.92,6.55,10.55,5.07,1.27,17.54-5.48,18.68-7.38.7-1.19-.15-6.41-2.22-11.95A51.571,51.571,0,0,0,268.66,170c4.54,2.14,9.42,3.84,11.55,2.57,4.47-2.68,8.52-16.28,8-18.42-.33-1.28-4.22-4.13-9.22-6.52a51.53,51.53,0,0,0,.62-16c4.4-1.66,8.52-3.77,9.09-6,1.26-5.06-5.49-17.54-7.39-18.67-1.07-.64-5.39,0-10.28,1.62a51.68,51.68,0,0,0-11.42-12.11c1.79-4.07,3-8.14,1.88-10-2.69-4.48-16.28-8.53-18.43-8-1.17.3-3.7,3.65-6,8.1a51.82,51.82,0,0,0-16.82-.21c-1.61-4.13-3.61-7.85-5.75-8.38-5.06-1.27-17.53,5.48-18.67,7.38-.63,1.07,0,5.42,1.64,10.32a51.68,51.68,0,0,0-11.57,11.63c-4.25-1.92-8.61-3.31-10.59-2.12-4.47,2.68-8.52,16.28-8,18.42.33,1.28,4.26,4.15,9.29,6.55a51.8,51.8,0,0,0,.09,15.67c-4.69,1.69-9.27,3.92-9.87,6.31C165.59,157.2,172.34,169.68,174.24,170.81Zm45.23-54.7a23.22,23.22,0,1,1-13.06,30.14,23.22,23.22,0,0,1,13.06-30.14Z" fill="#01898c"/>
      <path id="Trazado_10" data-name="Trazado 10" d="M215.87,107.52a33,33,0,1,1-18.58,42.89,33,33,0,0,1,18.58-42.89Zm24.14,61a23.129,23.129,0,1,0-.01.03Z" fill="#fff"/>
      <path id="Trazado_11" data-name="Trazado 11" d="M187.93,164.39l.64-.16a46.71,46.71,0,0,1-4.83-9.13,47.37,47.37,0,0,1,72.62-55.21h0c.18-.13.37-.24.55-.35a48,48,0,0,0-69,64.85Z" fill="#fff"/>
      <path id="Trazado_12" data-name="Trazado 12" d="M268.51,161.86a47.16,47.16,0,0,1-23.29,19.88l-.59.22.42.5c.13-.05.27-.09.4-.15a47.73,47.73,0,0,0,23.53-20Z" fill="#fff"/>
      <path id="Trazado_13" data-name="Trazado 13" d="M71.81,262.93c.52,2,7,6.56,15,10.15a76.549,76.549,0,0,0,.08,22.37c-7.25,2.6-14.63,6.1-15.53,9.8-1.83,7.52,8.31,26,11.13,27.62,1.81,1.06,9.85-.33,18.24-3.6a76.42,76.42,0,0,0,15.45,15.88c-3.3,7-6.06,14.7-4.08,18,4,6.61,24.23,12.48,27.41,11.66,2-.52,6.53-6.92,10.11-14.93a76.25,76.25,0,0,0,22.69.63c2.57,7,5.95,13.88,9.52,14.74,7.52,1.83,26-8.3,27.62-11.13,1-1.68-.15-8.75-2.94-16.48a76.369,76.369,0,0,0,17.32-16.24c6.37,2.84,12.92,4.9,15.86,3.11,6.62-4,12.49-24.23,11.66-27.4-.46-1.79-5.68-5.64-12.55-9a76.15,76.15,0,0,0,.57-24.68c6.13-2.44,11.66-5.46,12.43-8.63,1.83-7.52-8.3-26-11.13-27.62-1.56-.92-7.72,0-14.75,2.34a76.62,76.62,0,0,0-17.52-17.75c2.6-6,4.35-12.06,2.66-14.84-4-6.61-24.23-12.49-27.4-11.66-1.79.47-5.66,5.71-9,12.6a76.61,76.61,0,0,0-24.33.23c-2.49-6.46-5.65-12.47-9-13.28-7.51-1.83-26,8.31-27.62,11.14-1,1.69.16,8.81,3,16.59a76.55,76.55,0,0,0-16.24,16.63c-6.71-3.09-13.88-5.51-17-3.62C76.86,239.55,71,259.76,71.81,262.93Zm104.75-10.62a34.45,34.45,0,1,1-45.19,18.22,34.45,34.45,0,0,1,45.19-18.22Z" fill="#043c5e"/>
      <path id="Trazado_14" data-name="Trazado 14" d="M181.71,239.5a49,49,0,1,1-64.3,25.91,49,49,0,0,1,64.3-25.91ZM143.6,329.07a48.32,48.32,0,1,0-25.55-63.38A48.32,48.32,0,0,0,143.6,329.07Z" fill="#fff"/>
      <path id="Trazado_15" data-name="Trazado 15" d="M93,270.42c.28.16.57.32.84.5a70.26,70.26,0,0,1,138.61,2.7h0c.32.06.63.13,1,.21A71.18,71.18,0,0,0,93,270.42Z" fill="#fff"/>
      <path id="Trazado_16" data-name="Trazado 16" d="M180.67,351.71a69.92,69.92,0,0,1-45.31-3.27l-.86-.4c0,.33-.05.65-.08,1l.59.27a70.88,70.88,0,0,0,45.71,3.36C180.69,352.33,180.68,352,180.67,351.71Z" fill="#fff"/>
      <path id="Trazado_17" data-name="Trazado 17" d="M301,81.65s10.91-4.27,11.7-13.39a8.15,8.15,0,0,1,.55-2.39c.89-2.24,2-2.14,2.77-1.66a2.62,2.62,0,0,1,1.14,1.54c.52,1.81,1.73,7-.2,11.09,4.24.82,7.1.39,10.23,1.81s3.21,8.34,0,15.22c-2.58,5.58-26.18.76-26.18.76Z" fill="url(#linear-gradient)"/>
      <rect id="Rectángulo_1" data-name="Rectángulo 1" width="7.93" height="15.73" transform="translate(293.78 80.25)" fill="#63c1c5"/>
      <path id="Trazado_18" data-name="Trazado 18" d="M151.61,153.28l-26.38-8.66-12.66-.13-8.96,3.1Z" fill="url(#linear-gradient-2)"/>
      <path id="Trazado_19" data-name="Trazado 19" d="M151.61,153.28l-46.91-3.03-1.09-2.66" fill="#b0d9c8"/>
      <path id="Trazado_20" data-name="Trazado 20" d="M104.88,158.17l.08.08,3.19,6.59,43.35-11.53Z" fill="#63c1c5"/>
      <path id="Trazado_21" data-name="Trazado 21" d="M95.57,155.72l5.4-6.39,50.34,3.93-41.45,6.58Z" fill="url(#linear-gradient-3)"/>
      <path id="Trazado_22" data-name="Trazado 22" d="M11.75,263.39a34.309,34.309,0,0,0,3.95-2.68.66.66,0,0,1,.93.11.67.67,0,0,1-.12.93,36.539,36.539,0,0,1-4.1,2.79c-.51.29-1,.58-1.56.85a.65.65,0,0,1-.59,0,.7.7,0,0,1-.3-.29.66.66,0,0,1,.28-.89A13.128,13.128,0,0,0,11.75,263.39Z" fill="#63c1c5"/>
      <path id="Trazado_23" data-name="Trazado 23" d="M81.58,153.35c2.08-.12,4.26-.19,6.65-.2a.66.66,0,1,1,0,1.32c-2.37,0-4.52.08-6.58.2a.58.58,0,0,1-.32-.06.68.68,0,0,1-.38-.56.67.67,0,0,1,.63-.7Z" fill="#63c1c5"/>
      <path id="Trazado_24" data-name="Trazado 24" d="M70.84,155.9a.65.65,0,0,1-.36-.46.66.66,0,0,1,.52-.78c2.08-.42,4.3-.75,6.6-1a.664.664,0,0,1,.14,1.32,61.99,61.99,0,0,0-6.48,1,.75.75,0,0,1-.42-.08Z" fill="#63c1c5"/>
      <path id="Trazado_25" data-name="Trazado 25" d="M22.8,253.18a.66.66,0,0,1,1.08.76,36.709,36.709,0,0,1-4.33,5.14.67.67,0,0,1-.76.12.55.55,0,0,1-.18-.13.65.65,0,0,1,0-.93,36,36,0,0,0,4.19-4.96Z" fill="#63c1c5"/>
      <path id="Trazado_26" data-name="Trazado 26" d="M25.12,250.77a.66.66,0,0,1-.26-.9c.28-.51.55-1,.81-1.57a35.07,35.07,0,0,0,1.75-4.38.663.663,0,1,1,1.26.41,35.38,35.38,0,0,1-1.82,4.55c-.27.55-.55,1.09-.84,1.63a.67.67,0,0,1-.87.28Z" fill="#63c1c5"/>
      <path id="Trazado_27" data-name="Trazado 27" d="M28.92,240.94l-.15-.05a.66.66,0,0,1-.36-.73,43.45,43.45,0,0,0,.82-6.46.67.67,0,0,1,.7-.62.65.65,0,0,1,.62.7,45.7,45.7,0,0,1-.85,6.64.66.66,0,0,1-.78.52Z" fill="#63c1c5"/>
      <path id="Trazado_28" data-name="Trazado 28" d="M35.65,182.23c-.41.76-.81,1.53-1.19,2.32-.57,1.18-1.1,2.39-1.57,3.59a.67.67,0,0,1-.86.38h-.05a.67.67,0,0,1-.32-.84c.48-1.24,1-2.48,1.61-3.69.39-.8.79-1.59,1.22-2.37a.63.63,0,0,1,.9-.27.66.66,0,0,1,.26.88Z" fill="#63c1c5"/>
      <path id="Trazado_29" data-name="Trazado 29" d="M31.61,191.84a47.411,47.411,0,0,0-1.47,6.35.67.67,0,0,1-.76.55l-.18-.06a.66.66,0,0,1-.37-.7,50,50,0,0,1,1.51-6.52.65.65,0,0,1,.82-.44.66.66,0,0,1,.45.82Z" fill="#63c1c5"/>
      <path id="Trazado_30" data-name="Trazado 30" d="M41.54,173.61a53,53,0,0,0-3.88,5.25.66.66,0,0,1-.84.24h-.08a.66.66,0,0,1-.19-.91,53.39,53.39,0,0,1,4-5.39.65.65,0,0,1,.93-.08.66.66,0,0,1,.06.89Z" fill="#63c1c5"/>
      <path id="Trazado_31" data-name="Trazado 31" d="M52.12,164a.655.655,0,0,1-.92-.17.66.66,0,0,1,.16-.92,51.081,51.081,0,0,1,5.75-3.44.66.66,0,1,1,.6,1.17A51.413,51.413,0,0,0,52.12,164Z" fill="#63c1c5"/>
      <path id="Trazado_32" data-name="Trazado 32" d="M29.54,219.86a.65.65,0,0,1-.34-.06.69.69,0,0,1-.37-.55l-.06-.83c-.14-1.93-.28-3.86-.39-5.78a.661.661,0,1,1,1.32-.07c.11,1.91.25,3.83.39,5.75l.06.83a.66.66,0,0,1-.61.71Z" fill="#63c1c5"/>
      <path id="Trazado_33" data-name="Trazado 33" d="M44.16,170.7a.67.67,0,0,1-.77.13.66.66,0,0,1-.18-1.05,52.709,52.709,0,0,1,4.94-4.52.66.66,0,0,1,.83,1,51.519,51.519,0,0,0-4.82,4.44Z" fill="#63c1c5"/>
      <path id="Trazado_34" data-name="Trazado 34" d="M29.72,222.5a.66.66,0,0,1,.7.62c.17,2.59.24,4.71.24,6.65a.65.65,0,0,1-.66.66.719.719,0,0,1-.29-.06.66.66,0,0,1-.37-.6c0-1.91-.08-4-.23-6.57a.65.65,0,0,1,.61-.7Z" fill="#63c1c5"/>
      <path id="Trazado_35" data-name="Trazado 35" d="M6.7,265.84a.66.66,0,1,1,.49,1.22,51.6,51.6,0,0,1-6.36,2.08.72.72,0,0,1-.46,0,.69.69,0,0,1-.35-.43.67.67,0,0,1,.47-.81,52.683,52.683,0,0,0,6.21-2.06Z" fill="#63c1c5"/>
      <path id="Trazado_36" data-name="Trazado 36" d="M29.08,201.37a.66.66,0,0,1,.61.71c-.15,2-.2,4.15-.15,6.54a.66.66,0,0,1-.64.68.67.67,0,0,1-.31-.07.65.65,0,0,1-.37-.58c0-2.44,0-4.62.15-6.67A.67.67,0,0,1,29.08,201.37Z" fill="#63c1c5"/>
      <path id="Trazado_37" data-name="Trazado 37" d="M64.86,156.22c.74-.23,1.48-.45,2.23-.65a.65.65,0,0,1,.81.46.66.66,0,0,1-.46.82q-1.09.28-2.19.63c-1.34.42-2.68.92-4,1.46a.64.64,0,0,1-.54,0,.67.67,0,0,1,0-1.21C62.1,157.16,63.48,156.66,64.86,156.22Z" fill="#63c1c5"/>
      <path id="Trazado_38" data-name="Trazado 38" d="M460.73,133.5l3,8.73-8.42-3.21-28.47-13.54Z" fill="#b0d9c8"/>
      <path id="Trazado_39" data-name="Trazado 39" d="M463.73,142.23l-14.65-2.99,3.88-1.33Z" fill="#63c1c5"/>
      <path id="Trazado_40" data-name="Trazado 40" d="M460.73,133.5l3.7-7.58-37.59-.44Z" fill="url(#linear-gradient-4)"/>
      <path id="Trazado_41" data-name="Trazado 41" d="M426.84,125.48l28.47,13.54-6.04,10.83Z" fill="url(#linear-gradient-5)"/>
      <path id="Trazado_42" data-name="Trazado 42" d="M459.32,150a.53.53,0,0,0,.23-.13.69.69,0,0,0,.07-1,20.18,20.18,0,0,0-2.63-2.52.7.7,0,0,0-.87,1.1,17.388,17.388,0,0,1,2.44,2.34.71.71,0,0,0,.76.21Z" fill="#63c1c5"/>
      <path id="Trazado_43" data-name="Trazado 43" d="M437.87,224.48a.7.7,0,0,1,.38-.92,19.739,19.739,0,0,0,5.72-3.71.7.7,0,1,1,.94,1,21.24,21.24,0,0,1-6.13,4h0a.7.7,0,0,1-.91-.37Zm9-6.69a.71.71,0,0,1-.12-1,24.91,24.91,0,0,0,3.4-6,.71.71,0,0,1,1.31.53,26.829,26.829,0,0,1-3.6,6.31.78.78,0,0,1-.33.24.72.72,0,0,1-.65-.08Zm5-10.08a.71.71,0,0,1-.54-.84l.06-.31A32.174,32.174,0,0,0,452,200a.71.71,0,0,1,1.41,0,34.309,34.309,0,0,1-.6,6.87l-.07.33a.68.68,0,0,1-.46.52.78.78,0,0,1-.37-.01Zm.59-11.29a.7.7,0,0,1-.78-.61,50.881,50.881,0,0,0-1.34-6.87.7.7,0,0,1,.5-.85.69.69,0,0,1,.85.5,51.453,51.453,0,0,1,1.38,7,.71.71,0,0,1-.46.75Zm-2.44-11.07a.7.7,0,0,1-.88-.44c-.07-.19-.13-.38-.19-.57a23.349,23.349,0,0,1-2.36.44.7.7,0,0,1-.78-.6.69.69,0,0,1,.6-.79c.7-.1,1.39-.22,2.08-.38-.53-1.49-1.13-3-1.81-4.71a.69.69,0,0,1,.38-.91.7.7,0,0,1,.92.38c.71,1.74,1.32,3.34,1.87,4.88a21.43,21.43,0,0,0,3.12-1.21.7.7,0,1,1,.61,1.26,22.4,22.4,0,0,1-3.27,1.28,2,2,0,0,0,.16.49.71.71,0,0,1-.44.88Zm6.32-5.08a.7.7,0,0,1,.12-1,18.159,18.159,0,0,0,3-2.94,19.151,19.151,0,0,0,1.48-2.16.7.7,0,0,1,1.21.71,18.835,18.835,0,0,1-1.6,2.33,19.4,19.4,0,0,1-3.23,3.17.56.56,0,0,1-.2.11.69.69,0,0,1-.74-.22ZM442.26,185a21.71,21.71,0,0,1-7.13-1.57.7.7,0,1,1,.53-1.3,20.57,20.57,0,0,0,6.67,1.47.7.7,0,0,1,.19,1.36A.57.57,0,0,1,442.26,185Zm20.83-13.62a.71.71,0,0,1-.45-.89,21.419,21.419,0,0,0,1-6.76.71.71,0,0,1,1.41,0,22.739,22.739,0,0,1-1.08,7.21.7.7,0,0,1-.44.45.77.77,0,0,1-.44-.06Zm-31.83,9.95c-.52-.37-1-.77-1.5-1.18a15.18,15.18,0,0,1-3.41-4.3.71.71,0,0,1,1.25-.66,13.6,13.6,0,0,0,3.08,3.9c.44.38.91.75,1.39,1.09a.7.7,0,0,1,.17,1,.75.75,0,0,1-.35.26.71.71,0,0,1-.63-.16Zm13.79-6.86a26.247,26.247,0,0,0-3.55-5.9.71.71,0,0,1,.08-1,.7.7,0,0,1,1,.09,27.451,27.451,0,0,1,3.76,6.21.7.7,0,0,1-.35.93h-.06a.7.7,0,0,1-.88-.38Zm19-14.29a.7.7,0,0,1-.82-.56,22.411,22.411,0,0,0-.81-3,20.925,20.925,0,0,0-1.52-3.41.71.71,0,0,1,.28-1,.69.69,0,0,1,.95.28,22.79,22.79,0,0,1,1.62,3.63,23.491,23.491,0,0,1,.86,3.22.72.72,0,0,1-.46.8Zm-38.29,12a.69.69,0,0,1-.78-.62,7.83,7.83,0,0,1,1.35-5.47,7,7,0,0,1,1.42-1.46.69.69,0,0,1,1,.12.7.7,0,0,1-.12,1,5.792,5.792,0,0,0-1.14,1.18,6.35,6.35,0,0,0-1.09,4.5.7.7,0,0,1-.47.74.4.4,0,0,1-.16-.04Zm12.74-6.31a10,10,0,0,0-6.33-1.5.7.7,0,0,1-.77-.62.71.71,0,0,1,.62-.78,11.37,11.37,0,0,1,7.24,1.72.7.7,0,0,1,.21,1,.74.74,0,0,1-.37.28.68.68,0,0,1-.59-.15Z" fill="#63c1c5"/>
      <path id="Trazado_44" data-name="Trazado 44" d="M434.58,226a.71.71,0,0,0,.47-.76.72.72,0,0,0-.8-.6,14.94,14.94,0,0,1-3.34.1.69.69,0,0,0-.76.64.71.71,0,0,0,.64.76,17.239,17.239,0,0,0,3.66-.1Z" fill="#63c1c5"/>
      <path id="Trazado_45" data-name="Trazado 45" d="M368.78,94.77a26,26,0,0,0-18.36-7.46,3.06,3.06,0,0,0-3.09,3h0a3.06,3.06,0,0,0,2.85,3c3.61.29,9.1,1.41,13.12,4.58,4.62,3.65,6.78,11.86,7.44,16.39a3,3,0,0,0,3,2.61h.07a3,3,0,0,0,3-3.17A28.64,28.64,0,0,0,368.78,94.77Z" fill="#93cfc7"/>
      <path id="Trazado_46" data-name="Trazado 46" d="M360.52,102.49a16.52,16.52,0,0,0-10-4.13,3,3,0,0,0-3.18,3h0a2.93,2.93,0,0,0,2.76,2.94,10.62,10.62,0,0,1,6.16,2.3,9.06,9.06,0,0,1,3.48,7.53,2.94,2.94,0,0,0,2.95,2.9h.07a2.93,2.93,0,0,0,2.94-3.16,17,17,0,0,0-5.18-11.38Z" fill="#93cfc7"/>
      <path id="Trazado_47" data-name="Trazado 47" d="M350.5,107.86a4.32,4.32,0,1,0,3.065,1.265A4.33,4.33,0,0,0,350.5,107.86Z" fill="#93cfc7"/>
      <path id="Trazado_48" data-name="Trazado 48" d="M177.74,93.71l-.62-.22a50.21,50.21,0,0,0-26.68-1.62c-10.2,2.12-24,3.88-31.68.09-5.22-2.58-11.38-16.35-10.15-25a14.562,14.562,0,0,1,13.41-12c10.07-.86,28.8-1.41,37.81,5.12,12.67,9.17,12.67,25.34,12.67,25.34Z" fill="#b0d9c8"/>
      <path id="Trazado_49" data-name="Trazado 49" d="M138.59,65.16c0,3.15-2.55,7.56-5.69,7.56s-5.7-4.41-5.7-7.56a5.7,5.7,0,0,1,11.39,0Z" fill="#fff"/>
      <path id="Trazado_50" data-name="Trazado 50" d="M149.08,66c0,2.36-1.92,5.67-4.28,5.67s-4.28-3.31-4.28-5.67a4.28,4.28,0,1,1,8.56,0Z" fill="#fff"/>
      <path id="Trazado_51" data-name="Trazado 51" d="M153.3,81.38c-.59-4.83-4.17-8.54-8.5-8.54s-7.91,3.71-8.5,8.54Z" fill="#fff"/>
      <path id="Trazado_52" data-name="Trazado 52" d="M144.21,85.62c-.78-6.41-5.54-11.35-11.3-11.35s-10.53,4.94-11.31,11.35Z" fill="#fff"/>
      <path id="Trazado_53" data-name="Trazado 53" d="M129,113c4.69-3.29,8.35-1.36,9.46-.6.15-1.34,1-5.36,6.58-6.84,7.73-2.08,10,5.52,10,5.52s3.49,5.25-7,19.12c-.28.38-.54.73-.78,1.08v.1h-.21v-.06l-1.33-.1c-17.33-1-19.1-7-19.1-7S122.39,117.6,129,113Z" fill="#f7a605"/>
      <path id="Trazado_54" data-name="Trazado 54" d="M138.56,112.07c.26-1.59,1.4-5.22,6.52-6.48,7.24-1.77,10.06,5.52,10.06,5.52s3.48,5.26-7,19.13c-.26.34-.5.67-.73,1Z" fill="#f7a605"/>
      <path id="Trazado_55" data-name="Trazado 55" d="M311,118.71c6.34,1.74,7.31,6.38,7.46,7.91,1.28-.85,5.47-3,10.84.81,7.47,5.31,2.47,12.9,2.47,12.9s-2.09,6.92-22,7.83l-1.52.09-.06.12h0a.359.359,0,0,1-.07-.1h-.1v-.07c-.28-.4-.56-.81-.88-1.24-11.81-16-7.75-22-7.75-22S302.11,116.27,311,118.71Z" fill="#ffd247"/>
      <path id="Trazado_56" data-name="Trazado 56" d="M318.8,126.48c1.6-.93,5.63-2.57,10.49,1,6.85,5.1,2.47,12.91,2.47,12.91s-2.09,6.91-22,7.83l-1.41.08Z" fill="#ffd247"/>
      <circle id="Elipse_1" data-name="Elipse 1" cx="16.6" cy="16.6" r="16.6" transform="matrix(0.102, -0.995, 0.995, 0.102, 186.37, 61.273)" fill="#ffd247"/>
      <path id="Trazado_57" data-name="Trazado 57" d="M196.34,48.89h17.8s-1.87,8.65-9,8.65S196.34,48.89,196.34,48.89Z" fill="#fff"/>
      <path id="Trazado_58" data-name="Trazado 58" d="M212.69,42.16a1.621,1.621,0,0,0,.07-.44,1.53,1.53,0,0,0-3.06,0,1.32,1.32,0,0,0,.08.44Z" fill="#fff"/>
      <path id="Trazado_59" data-name="Trazado 59" d="M200.68,42.16a1.62,1.62,0,0,0,.07-.44,1.53,1.53,0,1,0-3.05,0,1.31,1.31,0,0,0,.07.44Z" fill="#fff"/>
      <path id="Trazado_60" data-name="Trazado 60" d="M246.05,32c-.14,4-.16,17.12,5.13,25.58A5,5,0,0,0,254.72,60c12.39,1.69,26.93-2.08,31.89-3.53a4.22,4.22,0,0,0,2.69-2.38c1.73-4,4.85-14.43.23-31.33a3.71,3.71,0,0,0-2.16-2.44c-12.57-5.19-37,6.06-40.48,9.72a3.12,3.12,0,0,0-.84,1.96Z" fill="#63c1c5"/>
      <g id="Grupo_1" data-name="Grupo 1" clip-path="url(#clip-path)">
        <path id="Trazado_61" data-name="Trazado 61" d="M269.8,41.32,245.35,30.23l.69-1.52L269.5,39.35l20.31-17.99,1.11,1.25Z" fill="#fff"/>
        <rect id="Rectángulo_2" data-name="Rectángulo 2" width="22.88" height="1.67" transform="translate(247.395 53.971) rotate(-48.45)" fill="#fff"/>
        <rect id="Rectángulo_3" data-name="Rectángulo 3" width="1.67" height="21.42" transform="matrix(0.656, -0.755, 0.755, 0.656, 275.777, 35.09)" fill="#fff"/>
      </g>
      <path id="Trazado_63" data-name="Trazado 63" d="M272.93,9.74a.67.67,0,0,0,.37-.88L269.78.42a.69.69,0,0,0-.89-.37.67.67,0,0,0-.37.88L272,9.37a.69.69,0,0,0,.93.37Z" fill="#63c1c5"/>
      <path id="Trazado_64" data-name="Trazado 64" d="M299.41,20.8a.67.67,0,0,1,.37-.88l8.48-3.43a.68.68,0,0,1,.52,1.25l-8.48,3.43a.69.69,0,0,1-.89-.37Z" fill="#63c1c5"/>
      <path id="Trazado_65" data-name="Trazado 65" d="M289,13.88a.67.67,0,0,0,.89-.36l3.5-8.39a.68.68,0,0,0-1.25-.53L288.61,13a.67.67,0,0,0,.39.88Z" fill="#63c1c5"/>
      <path id="Trazado_66" data-name="Trazado 66" d="M355.77,28.15A14.62,14.62,0,0,0,336.9,36.6c-1.17,3.22.1,9.74,1.13,13.9l3.06,17.38.4.14s9.38-8.23,13.52-11.34,8.63-6.71,9.8-9.93a14.63,14.63,0,0,0-9.04-18.6ZM347.7,50.33a9.09,9.09,0,1,1,11.66-5.44A9.09,9.09,0,0,1,347.7,50.33Z" fill="#63c1c5"/>
      <path id="Trazado_67" data-name="Trazado 67" d="M348.09,49.28a7.83,7.83,0,1,1,10-4.69,7.83,7.83,0,0,1-10,4.69Z" fill="#043c5e"/>
      <path id="Trazado_68" data-name="Trazado 68" d="M341.62,38.81a9.65,9.65,0,1,0,4.983-5.477,9.65,9.65,0,0,0-4.983,5.477Z" fill="#fff"/>
      <path id="Trazado_69" data-name="Trazado 69" d="M343.32,39.43a7.84,7.84,0,1,0,10.05-4.69,7.84,7.84,0,0,0-10.05,4.69Z" fill="#ffd247"/>
      <path id="Trazado_70" data-name="Trazado 70" d="M108.11,121.64l-13.8-8.98.56,19.23Z" fill="#63c1c5"/>
      <path id="Trazado_71" data-name="Trazado 71" d="M95.98,121.99l-13.8-8.98.56,19.23Z" fill="#63c1c5"/>
      <path id="Trazado_72" data-name="Trazado 72" d="M40.66,384.5H50.3c1.28.14,2.71.5,3,1.61a6.37,6.37,0,0,1,.14,1.47c-.34.4-13.13-.05-13.13-.05v-.05a2,2,0,0,1,.35-2.98Z" fill="#11375b"/>
      <path id="Trazado_73" data-name="Trazado 73" d="M53.39,387.56l-13.12-.05.11.51H53.41Z" fill="#212b53"/>
      <path id="Trazado_74" data-name="Trazado 74" d="M44.48,384.48l.86.01-.26,1.18h-.85Z" fill="#fff"/>
      <path id="Trazado_75" data-name="Trazado 75" d="M46.34,384.48l.87.01-.27,1.18h-.85Z" fill="#fff"/>
      <path id="Trazado_76" data-name="Trazado 76" d="M40,381.28l.66,3.22h0a3.14,3.14,0,0,0,2.58.06l.15-.07.47-3.21Z" fill="#f8b68f"/>
      <path id="Trazado_77" data-name="Trazado 77" d="M18.12,384.5h9.64c1.28.14,2.72.5,3,1.61a6.69,6.69,0,0,1,.13,1.47c-.34.4-13.12-.05-13.12-.05l-.06-.05a2,2,0,0,1,.41-2.98Z" fill="#212b53"/>
      <path id="Trazado_78" data-name="Trazado 78" d="M30.86,387.56l-13.13-.05.11.51H30.87Z" fill="#212b53"/>
      <path id="Trazado_79" data-name="Trazado 79" d="M21.94,384.48l.87.01-.27,1.18h-.85Z" fill="#fff"/>
      <path id="Trazado_80" data-name="Trazado 80" d="M23.8,384.48l.87.01-.27,1.18h-.84Z" fill="#fff"/>
      <path id="Trazado_81" data-name="Trazado 81" d="M18.54,381.28l-.42,3.22h0a3.16,3.16,0,0,0,2.59.06l.14-.07,1.55-3.21Z" fill="#f8b68f"/>
      <path id="Trazado_82" data-name="Trazado 82" d="M32.93,273.26,25,278.44l2.45,6.28c0,.08.08.17.12.25h.69A6.14,6.14,0,0,1,33.32,288a10.781,10.781,0,0,0,3.75-1,3.9,3.9,0,0,0,1.76-1.34C39.68,281.26,32.93,273.26,32.93,273.26Z" fill="#f8b68f"/>
      <path id="Trazado_83" data-name="Trazado 83" d="M43,274.89s1,9.21-1,15.08c.91.79,4.24,4.37,5.29-.27s-1.18-16.44-1.18-16.44Z" fill="#f8b68f"/>
      <path id="Trazado_84" data-name="Trazado 84" d="M38.27,274.23l-1.87,1.21.66,1.39,2.01-.88Z" fill="#212b53"/>
      <path id="Trazado_85" data-name="Trazado 85" d="M37.17,275.91c.18.43.2.83,0,.91s-.46-.21-.65-.64-.2-.83,0-.91S37,275.48,37.17,275.91Z" fill="#212b53"/>
      <path id="Trazado_86" data-name="Trazado 86" d="M60.81,267.43a.43.43,0,0,0,0-.05A18.369,18.369,0,0,0,59,264.14a15.852,15.852,0,0,1-1.73-2.84L38,273.93l1.25,2.36,21.58-8A6.459,6.459,0,0,1,60.81,267.43Z" fill="#043c5e"/>
      <path id="Trazado_87" data-name="Trazado 87" d="M31.18,288.02l-.7,4.34h6.14l.44-5.31Z" fill="#f4a086"/>
      <path id="Trazado_88" data-name="Trazado 88" d="M47,298.78s7.26-2.31,9.53-5.42S55,273.26,55,273.26l.5-3.06a2.85,2.85,0,0,0-2.78-3.3H50.78a1.11,1.11,0,0,0-1,1.56l2.54,5.73s1.92,12.88-.76,13.85a30.381,30.381,0,0,1-6.81,1.42Z" fill="#f8b68f"/>
      <path id="Trazado_89" data-name="Trazado 89" d="M33.41,288l-1.87-4.13,1.22-.76a2.29,2.29,0,0,0,.94-2.67l-1.33-3.9s3.78-.46,3.67-4c0-1.82-2.5-1.83-2.5-1.83a3.63,3.63,0,0,1-3.06,1.82c-1-.13-3.72.24-5.56,3.45-1.23,2.16-.69,5.54.39,8.08,1,2.28,3.43,3.55,5.87,3.92Z" fill="#11375b"/>
      <path id="Trazado_90" data-name="Trazado 90" d="M26,322.78a135.641,135.641,0,0,0,2.29,18.38,16.4,16.4,0,0,1-.57,8.45c-4.33,12.87-10.4,32.21-10.4,32.21h5.4S35,359,38.15,347.62s3.69-14.94,3.69-14.94l-3.75-9.9Z" fill="#212b53"/>
      <path id="Trazado_91" data-name="Trazado 91" d="M30.54,282a1.77,1.77,0,0,0,1,1.93c.78.41,1.59.21,1.81-.44a1.73,1.73,0,0,0-1-1.92C31.57,281.11,30.76,281.31,30.54,282Z" fill="#f8b68f"/>
      <path id="Trazado_92" data-name="Trazado 92" d="M43.64,322.78H26V300.19a9.58,9.58,0,0,1,8.69-9.55L47,289.16s1.44,2.21,5.46,7.33A41.4,41.4,0,0,1,42,300.84Z" fill="#63c1c5"/>
      <path id="Trazado_93" data-name="Trazado 93" d="M26,322.78s2.48,9,11.66,19.09A11.78,11.78,0,0,1,41.12,351l-1.89,30.78h5.48s6.67-25.56,5.23-38.16a57.82,57.82,0,0,0-6.3-20.88Z" fill="#043c5e"/>
      <path id="Trazado_94" data-name="Trazado 94" d="M57.86,265.34c.94,2,2.23,3.31,2.87,3s.38-2.15-.56-4.11-2.23-3.31-2.87-3S56.91,263.38,57.86,265.34Z" fill="#63c1c5"/>
      <path id="Trazado_95" data-name="Trazado 95" d="M42.27,271.13l.16.07a2.45,2.45,0,0,0,1.84.12h.11a3.3,3.3,0,0,0,2.09-2.11h0a.61.61,0,0,0-.71-.78l-1.22.25a1.8,1.8,0,0,0-1.15.79Z" fill="#f8b68f"/>
      <path id="Trazado_96" data-name="Trazado 96" d="M172.81,286.58l5.67,10.69-6.25-.31-.44-10.72Z" fill="#f8b68f"/>
      <path id="Trazado_97" data-name="Trazado 97" d="M163.9,281.85l5.24-.01,2.17,33.87h-9.39Z" fill="url(#linear-gradient-6)"/>
      <path id="Trazado_98" data-name="Trazado 98" d="M154.28,381.27a2.74,2.74,0,0,0-1.05,2.31c.23,1.3.57,4.34.57,4.34h1.33v-2.84c0-.18,2.86,2.84,3.34,2.84h7s.47-1.91-3.66-2.53S154.28,381.27,154.28,381.27Z" fill="#043c5e"/>
      <path id="Trazado_99" data-name="Trazado 99" d="M157.34,380l.95,2.49a3.27,3.27,0,0,0,1.3,1.65,12.941,12.941,0,0,0,3.29,1.5c-1.91,1.63-5-.08-6.7-1.28a4.32,4.32,0,0,1-1.71-2.47l-.39-1.89Z" fill="#f8b68f"/>
      <path id="Trazado_100" data-name="Trazado 100" d="M167.71,381.27a2.73,2.73,0,0,0-1.06,2.31c.24,1.3.57,4.34.57,4.34h1.33v-2.84c0-.18,2.86,2.84,3.34,2.84h7.05s.47-1.91-3.67-2.53S167.71,381.27,167.71,381.27Z" fill="#043c5e"/>
      <path id="Trazado_101" data-name="Trazado 101" d="M170.76,380l1,2.49a3.17,3.17,0,0,0,1.3,1.65,12.61,12.61,0,0,0,3.29,1.5c-1.92,1.63-5-.08-6.71-1.28a4.26,4.26,0,0,1-1.7-2.47l-.4-1.89Z" fill="#f8b68f"/>
      <path id="Trazado_102" data-name="Trazado 102" d="M159.88,315.71s-.88,5.06,4.19,29.94c-4.1,13,2.46,34.66,2.46,34.66h4.78l3.26-64.6Z" fill="#01898c"/>
      <path id="Trazado_103" data-name="Trazado 103" d="M168.57,281.85l1.7,41.09,5.63-2.41a60.46,60.46,0,0,1-2.3-18.43c-.86-7.75,3.54-3.67-1.85-18.59C169.75,281.84,168.57,281.85,168.57,281.85Z" fill="#ffd247"/>
      <path id="Trazado_104" data-name="Trazado 104" d="M169.3,277.6l-.66,3.47a2.2,2.2,0,0,1-3.33,1.45L163,281.07l4.12-9.32Z" fill="#f4a086"/>
      <path id="Trazado_105" data-name="Trazado 105" d="M155.28,315.71s-6.27,5.06-1.2,29.94c-4.1,13-.49,34.66-.49,34.66h4.3L170,315.71Z" fill="#63c1c5"/>
      <path id="Trazado_106" data-name="Trazado 106" d="M163.9,278.36s-5.29,3-6.93,5.63-2.11,8.29-2.26,13.42c-.21,7-3.61,25.53-3.61,25.53h14.18l.36-40.26Z" fill="#ffd247"/>
      <path id="Trazado_107" data-name="Trazado 107" d="M174.34,267.21c-3.2-.81-6.29,2.48-6.29,2.48l-2.41,13L161.93,277s-.22-7.77,3.37-12.92c2.57-3.11,7.5-2.22,10,.81a7.63,7.63,0,0,1,1.35,5.39c-.16,2.51-.87,16.94-.87,16.94l-7.35-5.44a35.12,35.12,0,0,1,.88-4.14C170.51,273,176.5,267.76,174.34,267.21Z" fill="#212b53"/>
      <path id="Trazado_108" data-name="Trazado 108" d="M167.09,269.49a1.15,1.15,0,0,1,1.37.71,1,1,0,0,1-.35,1.41,1.17,1.17,0,0,1-1.37-.71,1,1,0,0,1,.35-1.41Z" fill="#f8b68f"/>
      <path id="Trazado_109" data-name="Trazado 109" d="M170.53,278.21a2.55,2.55,0,0,0,1.57.2c2.79-2,3.8-10.09,3.8-10.09L173.69,266l-4.4,1-2.17,4.81a4.42,4.42,0,0,0,.18,4h0a7.11,7.11,0,0,0,3.23,2.4Z" fill="#f8b68f"/>
      <path id="Trazado_110" data-name="Trazado 110" d="M175.08,267c-.23,2.44-7,2.65-7,2.65l-.35-3.31,4-2.18,3.14,1.88a2.16,2.16,0,0,1,.21.96Z" fill="#212b53"/>
      <path id="Trazado_111" data-name="Trazado 111" d="M174.93,267.52a4.6,4.6,0,0,0,.7,2.49l.54-1v-.84l-.53-.66S175.16,266.61,174.93,267.52Z" fill="#212b53"/>
      <path id="Trazado_112" data-name="Trazado 112" d="M158.42,284c-6.87.8-3.63,18.51-2.15,25.77a3.08,3.08,0,0,0,3.93,2.34c6-1.89,14.69-9.71,14.69-9.71l-1.38-1.74-11.59,2.71S166.37,283.06,158.42,284Z" fill="#f8b68f"/>
      <path id="Trazado_113" data-name="Trazado 113" d="M172.14,296.5l-2.24,13.86a.66.66,0,0,0,.65.77h8.88a.66.66,0,0,0,.65-.56l2.2-13.87a.66.66,0,0,0-.65-.76H172.8a.67.67,0,0,0-.66.56Z" fill="#01898c"/>
      <path id="Trazado_114" data-name="Trazado 114" d="M182,302.64a6.319,6.319,0,0,0-.15-1.81c-.22-1.31-.16-3.36-1.5-2.34a6.69,6.69,0,0,0-1.41,3.28,3.92,3.92,0,0,0,.84,2.93l.92,2A5.84,5.84,0,0,0,182,302.64Z" fill="#f8b68f"/>
      <path id="Trazado_115" data-name="Trazado 115" d="M176.19,301.33a.68.68,0,1,0,.67-.68.68.68,0,0,0-.67.68Z" fill="url(#linear-gradient-7)"/>
      <path id="Trazado_116" data-name="Trazado 116" d="M408.86,257.62l7.73,20.21,4.87-3.63-10.89-18.36Z" fill="#f4a086"/>
      <path id="Trazado_117" data-name="Trazado 117" d="M409.82,251.51a3.17,3.17,0,0,1,.69,2.14l.35,2.91-.4.46-1.37,1.21c.05-.6.12,0,.12,0L407,254.4s-2.66-1.71.69-4.22a1,1,0,0,1,1.1-.07,2.47,2.47,0,0,1,1.03,1.4Z" fill="#f4a086"/>
      <path id="Trazado_118" data-name="Trazado 118" d="M425.93,292.43a126.747,126.747,0,0,1-9.34-14.6l4.19-4.77,5.15,6Z" fill="#00666a"/>
      <path id="Trazado_119" data-name="Trazado 119" d="M438,380l-2.46.43c-.51-3.05-8.17-17.53-8.8-25.06a169.44,169.44,0,0,0-2.63-17.64l8.24-2.45s2.09,0-.2,17C437.31,359.07,438.69,374.41,438,380Z" fill="#f4a086"/>
      <path id="Trazado_120" data-name="Trazado 120" d="M431.94,329.1s-1.93,11.64-4.62,24.09c2.81,7.52-1.48,28.5-1.56,28.42-.32-.3-1.8,1.52-1.8,1.52s-3.12-18.51-3.81-26.86-.87-18.53-.87-18.53Z" fill="#f8b68f"/>
      <path id="Trazado_121" data-name="Trazado 121" d="M426.11,380.44a2.74,2.74,0,0,1,1,2.26c-.21,1.27-.52,4.24-.52,4.24h-1.2v-2.77c0-.18-2.58,2.77-3,2.77H416s-.42-1.87,3.32-2.47S426.11,380.44,426.11,380.44Z" fill="#043c5e"/>
      <path id="Trazado_122" data-name="Trazado 122" d="M435.26,378.33l.17,2.64a2.43,2.43,0,0,1-.43,1.57,10.12,10.12,0,0,1-1.92,2c1.85.59,3.53-1.48,4.41-2.86a3.27,3.27,0,0,0,.48-2.26l-.31-2.08Z" fill="#f4a086"/>
      <path id="Trazado_123" data-name="Trazado 123" d="M438,379.78s1.62.15,1.89,1.39,1,3.74,1,3.74l-.88.71-1.25-2.49a38.216,38.216,0,0,1-3.12,3.81h-7s0-2.31,4.36-2.41C437.1,384.43,438,379.78,438,379.78Z" fill="#212b53"/>
      <path id="Trazado_124" data-name="Trazado 124" d="M400.73,256.65l7.74,20.21,4.87-3.63-10.89-18.36Z" fill="#f8b68f"/>
      <path id="Trazado_125" data-name="Trazado 125" d="M401.69,250.54a3.11,3.11,0,0,1,.7,2.13l.34,2.92-.4.45L401,257.25c.05-.6.12,0,.12,0l-2.2-3.83s-2.66-1.7.7-4.22a1,1,0,0,1,1.1-.07,2.49,2.49,0,0,1,.97,1.41Z" fill="#f8b68f"/>
      <path id="Trazado_126" data-name="Trazado 126" d="M424.12,281.81h4.99l-1.99-5.86-3.9,2.4Z" fill="#f4a086"/>
      <path id="Trazado_127" data-name="Trazado 127" d="M417.5,288.11a1.874,1.874,0,0,1,.09-.41c-4.93-6.36-9.12-10.85-9.12-10.85l4.19-4.77,9.54,9.05H425a5.61,5.61,0,0,1,7.08.91c1.21,1.25,2,4.62,1.21,8.19-2.23,9.82-.49,15-.49,15l-12.86,4.8s-.29-8.55-.49-14.54h0a6.71,6.71,0,0,0-1-3.28A5.89,5.89,0,0,1,417.5,288.11Z" fill="#01898c"/>
      <path id="Trazado_128" data-name="Trazado 128" d="M422.37,265.42l8.17,2.86-.8,6.1a.485.485,0,0,1-.05.26l-.47.09h-.15a5.57,5.57,0,0,0-3.82,3.83,9.8,9.8,0,0,1-3.54-.05,3.58,3.58,0,0,1-1.86-.8C418.13,274,422.37,265.42,422.37,265.42Z" fill="#f8b68f"/>
      <path id="Trazado_129" data-name="Trazado 129" d="M422.56,270.61c2.2,1.08,1.68,12.42,2.06,20.14a8.78,8.78,0,0,0,7.43,8.21c2.92.46,6.11.55,8-.55-1.27-1-8.15-11.16-5.95-24.55.29-1.77.33-6.68-2.64-9.34-3.3-3-10.1.9-10.1.9S419.54,269.14,422.56,270.61Z" fill="#212b53"/>
      <path id="Trazado_130" data-name="Trazado 130" d="M419.67,305s-1.71,8.72-1.71,13.9c0,2.85.7,20.79.7,20.79s12.21.88,14.59.88c.59-14.7,3.94-15.15,3.94-22,0-3-1.53-6.34-2.7-8.49a12.391,12.391,0,0,1-1.7-4.77l-.08-.28Z" fill="#ffd247"/>
      <path id="Trazado_131" data-name="Trazado 131" d="M295.06,384s-.9,1.24-5.13,2.32c-.93.24-1.94.4-1.94,1.94h4.18l4.28-.74v.74h2.31s.64-3.78-.71-4.26Z" fill="#212b53"/>
      <path id="Trazado_132" data-name="Trazado 132" d="M294.84,381.29l.22,2.72h0a2.61,2.61,0,0,0,2.83.09l.16-.09v-2.72Z" fill="#f8b68f"/>
      <path id="Trazado_133" data-name="Trazado 133" d="M316.51,384.55s-.9,1.24-5.13,2.32c-.94.24-1.94.4-1.94,1.94h4.18l4.28-.74v.74h2.31s.64-3.78-.71-4.26Z" fill="#212b53"/>
      <path id="Trazado_134" data-name="Trazado 134" d="M316.29,381.84l.22,2.71h0a2.61,2.61,0,0,0,2.83.09l.16-.09v-2.71Z" fill="#f8b68f"/>
      <path id="Trazado_135" data-name="Trazado 135" d="M293.14,314.63l1,68.14h5s7.56-55,5.95-68.14S293.14,314.63,293.14,314.63Z" fill="#212b53"/>
      <path id="Trazado_136" data-name="Trazado 136" d="M298.39,314.61s1.72,20.93,5.69,32.52,11.14,35.64,11.14,35.64h5.14s-8.58-50.26-6.62-68.16H298.39Z" fill="#11375b"/>
      <path id="Trazado_137" data-name="Trazado 137" d="M293.91,279.93s-6.12,14.27-7.67,14.27c-1.24,0,.47-11.65.47-11.65h-5.13s-6.44,20-1.32,23.61,16.39-10.32,16.39-10.32Z" fill="#00666a"/>
      <path id="Trazado_138" data-name="Trazado 138" d="M312.16,316.42,310.3,321c-.89,1.8-4.17,1.84-6.35,1.27a.45.45,0,0,1-.21-.74,62.946,62.946,0,0,1,5.37-5.43Z" fill="#f8b68f"/>
      <path id="Trazado_139" data-name="Trazado 139" d="M296.65,277s-3.2,2.17-3.2,4.66v33h18.72V283.78s-.38-6.85-7.08-6.85S296.65,277,296.65,277Z" fill="#00666a"/>
      <path id="Trazado_140" data-name="Trazado 140" d="M293.76,314.63V285.01l-.62.02v29.6Z" fill="#93cfc7"/>
      <path id="Trazado_141" data-name="Trazado 141" d="M303.43,269.62v7.78a4.75,4.75,0,0,1-3.63,1.77c-2.33,0-2.33-1.68-2.33-1.68v-5l3.45-.9Z" fill="#f4a086"/>
      <path id="Trazado_142" data-name="Trazado 142" d="M297.17,274a2.91,2.91,0,0,1-1.74-.45c-2.07-3.31.29-12.22.29-12.22l7.53,1.35.24,6a5,5,0,0,1-1.88,4.12h0A8,8,0,0,1,297.17,274Z" fill="#f8b68f"/>
      <path id="Trazado_143" data-name="Trazado 143" d="M299.71,262.82a16,16,0,0,1-5.13,0c-2.63-.47-.94-3.36-.94-3.36a10.38,10.38,0,0,0,5.4.37c2.33-.34,3-.8,4.45,0,2,1.09,1.55,4.76,1.55,4.76l-1.13,7.77h-.42s-.1-4.62-.1-6.19c-.44-.72-.91-.72-1.28-.54a1.18,1.18,0,0,0-.63,1.07v8.07s-5.13,2.21-6.44,1.81-.44-6.38-.44-6.38a2.41,2.41,0,0,1,2.68.66c1.16,1.29,2.56-.06,2.56-.06Z" fill="#212b53"/>
      <path id="Trazado_144" data-name="Trazado 144" d="M282.57,282.55l.18-1a8.19,8.19,0,0,1,4.58-5.6h2.17l-.67,4.65-3.07,1.94Z" fill="#f8b68f"/>
      <path id="Trazado_145" data-name="Trazado 145" d="M302.76,265.43a1.31,1.31,0,0,0-1.24,1.23,1.14,1.14,0,0,0,.85,1.41,1.3,1.3,0,0,0,1.24-1.23,1.13,1.13,0,0,0-.85-1.41Z" fill="#f8b68f"/>
      <path id="Trazado_146" data-name="Trazado 146" d="M287.93,280.09l-4.23,2.46h2.7l4.48-3.76s-.32-.65-1.34-.1A5.23,5.23,0,0,0,287.93,280.09Z" fill="#f8b68f"/>
      <path id="Trazado_147" data-name="Trazado 147" d="M310.18,279s10.58,11.76,10.58,18.81-8.59,19.47-8.59,19.47L307.93,316s3.83-15.37,3.83-19.46-7.87-10.08-7.87-10.08" fill="#00666a"/>
      <path id="Trazado_148" data-name="Trazado 148" d="M311.45,296.56c0,3.52-3.12,16.39-3.85,19.39l.63.16c.9-3.7,3.84-16.09,3.84-19.55,0-4.19-7.66-10.08-8-10.33l-.38.5C303.78,286.78,311.45,292.67,311.45,296.56Z" fill="#93cfc7"/>
      <path id="Trazado_149" data-name="Trazado 149" d="M290.77,272.4a11.24,11.24,0,0,1-1.94,8.21,1.18,1.18,0,0,1-.79.44,3.13,3.13,0,0,1-1.47-.24,1.36,1.36,0,0,1-.88-.64.57.57,0,0,1,.06-.61c.57-.85,2.33-3.77,1.53-6.36A4.6,4.6,0,0,1,290.77,272.4Z" fill="#f59c42"/>
      <path id="Trazado_150" data-name="Trazado 150" d="M286.18,280.65a.88.88,0,0,1-.49-.48.57.57,0,0,1,.06-.61c.57-.85,2.33-3.77,1.53-6.36a3.81,3.81,0,0,1,1.66-.76C289,275.28,288.42,277.17,286.18,280.65Z" fill="#fab746"/>
      <path id="Trazado_151" data-name="Trazado 151" d="M288.26,276.15c-.14.66-.45,1.14-.71,1.09s-.36-.63-.22-1.28.45-1.14.7-1.08S288.39,275.5,288.26,276.15Z" fill="#f59c42"/>
      <path id="Trazado_152" data-name="Trazado 152" d="M288.08,274.9l-.27-.07.02.14.18.07Z" fill="#f59c42"/>
      <path id="Trazado_153" data-name="Trazado 153" d="M287.61,277.24l-.33-.06.37-.06Z" fill="#e8375e"/>
      <path id="Trazado_154" data-name="Trazado 154" d="M288,276.11c-.14.65-.45,1.14-.71,1.08s-.36-.62-.22-1.27.45-1.14.71-1.09S288.17,275.46,288,276.11Z" fill="#ffd247"/>
      <path id="Trazado_155" data-name="Trazado 155" d="M291.91,268.56h.5a1.72,1.72,0,0,1,1.75,1.66v1.32a1.72,1.72,0,0,1-1.75,1.66h-.5Z" fill="#ffd247"/>
      <path id="Trazado_156" data-name="Trazado 156" d="M276.57,269.86c0,3.61.83,6.53,1.85,6.53s1.85-2.92,1.85-6.53-.83-6.52-1.85-6.52S276.57,266.26,276.57,269.86Z" fill="#ffd247"/>
      <path id="Trazado_157" data-name="Trazado 157" d="M280.35,267.46l-1.46.95v2.11l1.51,1.37.52-2.74Z" fill="#fff"/>
      <path id="Trazado_158" data-name="Trazado 158" d="M280.27,269.86c0-3-.59-5.56-1.38-6.29h0a29.81,29.81,0,0,0,13.31,5v4.61s-9.71-.55-13.31,3h0C279.68,275.43,280.27,272.89,280.27,269.86Z" fill="#043c5e"/>
      <path id="Trazado_159" data-name="Trazado 159" d="M278.69,269.46c0,.59.09,1.06.2,1.06s.2-.47.2-1.06-.09-1.06-.2-1.06S278.69,268.88,278.69,269.46Z" fill="#ffd247"/>
      <path id="Trazado_160" data-name="Trazado 160" d="M284.92,279.17a4.93,4.93,0,0,0,2.37.39c1.23,0,1.79-1.52,2-2.34.07-.29.14-.7-.23-.89l-2-.27Z" fill="#f8b68f"/>
    </g>
  </g>
</svg>
