<svg xmlns="http://www.w3.org/2000/svg" xmlns:xlink="http://www.w3.org/1999/xlink" width="635.856" height="483.998" viewBox="0 0 635.856 483.998">
  <defs>
    <linearGradient id="linear-gradient" x1="0.5" y1="1" x2="0.5" gradientUnits="objectBoundingBox">
      <stop offset="0" stop-color="#185a9d"/>
      <stop offset="1" stop-color="#43cea2"/>
    </linearGradient>
    <linearGradient id="linear-gradient-2" x1="0.432" y1="1" x2="0.432" y2="0" xlink:href="#linear-gradient"/>
  </defs>
  <g id="Asset_1" data-name="Asset 1" transform="translate(0 0.017)">
    <g id="Layer_2" data-name="Layer 2" transform="translate(0 -0.017)">
      <g id="OBJECTS">
        <path id="Trazado_1" data-name="Trazado 1" d="M225.276,122.311a43.469,43.469,0,0,0-70.044-9.683,62.866,62.866,0,0,0-84,5.453,40.49,40.49,0,0,0-39.467,4.231Z" transform="translate(16.749 52.26)" fill="#35aaf9" opacity="0.2"/>
        <path id="Trazado_2" data-name="Trazado 2" d="M253,51.688A48.371,48.371,0,0,1,330.9,40.9a70,70,0,0,1,93.627,6.109,45.087,45.087,0,0,1,43.942,4.72Z" transform="translate(133.42 13.632)" fill="#35aaf9" opacity="0.2"/>
        <path id="Trazado_3" data-name="Trazado 3" d="M31.133,473.214H555.5c33.907,0,55.733-35.74,40.49-66.012l-.336-.657c-15.105-30.089-26.79-66.287-12.219-96.651,10.691-22.254,34.579-39.268,35.129-63.95.382-16.8-11.119-32.074-25.766-40.261s-31.937-10.1-48.692-10c-25.889.168-55.535,3.574-74.046-14.54-11.684-11.425-15.35-28.516-18.5-44.553q-7.728-39.558-15.457-79.132c-3.7-18.939-8.63-39.833-24.59-50.678-14.357-9.821-34.121-8.187-49.486-.229S334.771,27.929,323.851,41.37c-44.8,55.718-92.833,120.554-125.243,184.81-7.133,14.174-25.4,22.345-40.643,17.946-14.006-4.032-25.873-13.242-39.345-18.786s-30.547-6.491-40.551,3.925-8.385,26.836-3.177,39.986,13.471,25.217,16.022,39.116c3.482,18.97-4.4,38.337-15.2,54.328s-24.59,29.845-35.1,46S22.855,444.606,27.3,463.377a39.252,39.252,0,0,0,3.834,9.836Z" transform="translate(13.695 0.017)" fill="#35aaf9" opacity="0.1"/>
        <ellipse id="Elipse_1" data-name="Elipse 1" cx="49.166" cy="156.523" rx="49.166" ry="156.523" transform="translate(49.23 259.132) rotate(-54.37)" fill="#2542ef"/>
        <path id="Trazado_4" data-name="Trazado 4" d="M79.479,165.086a1.65,1.65,0,0,0,.367,2.306q21.8,15.946,44,31.525a1.711,1.711,0,0,0,.443.321q17.4,12.219,34.992,24.132l-44.293,3.375a1.654,1.654,0,1,0,.244,3.3l48.478-3.635q10.966,7.423,22.024,14.739a1.65,1.65,0,0,0,1.451.947q18.221,12.051,36.656,23.781l-57.062,3.3a1.638,1.638,0,1,0,.229,3.269l61.583-3.574q19.138,12.142,38.382,23.934a1.65,1.65,0,0,0,2.276-.535,1.711,1.711,0,0,0,.214-1.176,1.65,1.65,0,0,0-.764-1.1q-40.368-24.728-80.155-51.044l-17.992-56.268a1.659,1.659,0,1,0-3.162,1.008l16.8,52.342q-29.111-19.336-57.688-39.36a97.291,97.291,0,0,1-4.582-26.454c0-.092,0-.168,0-.26a1.68,1.68,0,0,0-1.68-1.344,1.65,1.65,0,0,0-1.527,1.711,100.806,100.806,0,0,0,3.528,23.277q-20.421-14.3-40.444-28.882a1.665,1.665,0,0,0-2.322.367Z" transform="translate(41.747 86.724)" fill="#1c32f9" opacity="0.5"/>
        <ellipse id="Elipse_2" data-name="Elipse 2" cx="60.117" cy="191.393" rx="60.117" ry="191.393" transform="translate(93.806 95.845) rotate(-29.06)" fill="#3d9be8"/>
        <path id="Trazado_5" data-name="Trazado 5" d="M116.366,82.14a2.016,2.016,0,0,0-.809,2.749q15.732,29.02,32.181,57.856a2.153,2.153,0,0,0,.321.58q12.86,22.574,26.072,44.965l-50.754-19.428a2.021,2.021,0,1,0-1.451,3.773L177.46,193.9q8.263,13.96,16.663,27.813a2.016,2.016,0,0,0,1.1,1.8q13.838,22.91,28.042,45.424l-64.729-26.179a2.031,2.031,0,1,0-1.527,3.757L226.947,274.8q14.8,23.414,29.906,46.523a2.047,2.047,0,0,0,2.81.58,2.016,2.016,0,0,0,.855-1.191,1.955,1.955,0,0,0-.275-1.6q-31.708-48.432-61.934-98.316l9.47-71.648a2.031,2.031,0,1,0-4.017-.519l-8.813,66.623q-22.07-36.565-43.148-73.618A119.347,119.347,0,0,1,160.568,110a2.223,2.223,0,0,0,.107-.29,2.031,2.031,0,0,0-3.818-1.314,123.715,123.715,0,0,0-8.278,27.584Q133.61,109.556,119.176,83a2.031,2.031,0,0,0-2.81-.855Z" transform="translate(60.807 43.205)" fill="#1c32f9" opacity="0.5"/>
        <path id="Trazado_6" data-name="Trazado 6" d="M343.69,252.45a40.46,40.46,0,0,0-40.475-40.383,41.761,41.761,0,0,0-7.5.7,62.927,62.927,0,0,0-112.352,10.691A43.407,43.407,0,0,0,133.2,244.844a21.673,21.673,0,0,0-12.646-4.047,21.065,21.065,0,0,0-4.063.382,33.984,33.984,0,0,0-60.7,5.758A23.46,23.46,0,0,0,26,269.526a24.254,24.254,0,0,0,.55,5.086h169.6v79.422H296.479V274.689h40.6a40.307,40.307,0,0,0,6.613-22.238Z" transform="translate(13.711 96.484)" fill="url(#linear-gradient)"/>
        <path id="Trazado_7" data-name="Trazado 7" d="M437.736,136.36c-26.637,0-70.64,29.142-89.992,81.866-19.856,52.5-5.743,103.341,14.372,120.783,14.922-23.063,26.194-60.437,41.345-100C417.927,199.18,433.888,163.562,437.736,136.36Z" transform="translate(178.337 71.936)" fill="#bc66c5"/>
        <path id="Trazado_8" data-name="Trazado 8" d="M407.5,155a1.085,1.085,0,0,0-1.527.305,217.608,217.608,0,0,0-21.261,32.655,1.528,1.528,0,0,0-.183.351,216.591,216.591,0,0,0-12.219,27.813,228.163,228.163,0,0,1-5.529-30.043.855.855,0,0,0-1.176-.779,1.527,1.527,0,0,0-.932,1.527,228.575,228.575,0,0,0,6.369,32.884q-3.055,8.965-5.3,18.16a1.314,1.314,0,0,0-.29,1.191,215.346,215.346,0,0,0-5.056,30.684,232.479,232.479,0,0,1-14.54-36.656.855.855,0,0,0-1.3-.565,1.527,1.527,0,0,0-.626,1.711,232.97,232.97,0,0,0,16.129,39.574,214.545,214.545,0,0,0,.092,32.258,1.069,1.069,0,0,0,1.085,1.069.916.916,0,0,0,.642-.382,1.267,1.267,0,0,0,.26-.9,213.39,213.39,0,0,1,5.33-66.745,208.291,208.291,0,0,1,30.715-23.078,1.13,1.13,0,0,0,.412-1.451.962.962,0,0,0-1.375-.367,208.8,208.8,0,0,0-28.836,21.261,214.852,214.852,0,0,1,17.855-46.08,49.792,49.792,0,0,1,16.5-5.835h.168a1.253,1.253,0,0,0,.825-1.207.932.932,0,0,0-1.084-.916,50.86,50.86,0,0,0-14.6,4.674,214.847,214.847,0,0,1,19.5-29.478A1.1,1.1,0,0,0,407.5,155Z" transform="translate(181.34 81.662)" fill="#bc66c5" opacity="0.5"/>
        <path id="Trazado_9" data-name="Trazado 9" d="M423.656,168.51h-.978c-9.317.932-14.021,11.364-17.29,20.115-2.337,6.277-4.949,12.616-9.485,17.549s-11.363,8.217-17.916,6.827c-8.752-1.863-15.274-11.455-24.239-10.523a12.86,12.86,0,0,0-7.942,4.185c-16.969,50.525-3.055,98.484,16.312,115.33,14.922-23.063,26.194-60.437,41.345-100C410.353,203.089,417.562,185.112,423.656,168.51Z" transform="translate(178.335 88.89)" opacity="0.1"/>
        <path id="Trazado_10" data-name="Trazado 10" d="M308.714,278.38c1.527-11.623,9.485-23.277,21.047-25.2,4.185-.687,8.523-.092,12.631-1.146,7.469-1.909,12.6-8.874,15.5-16.037s4.185-14.907,7.438-21.9c2.749-5.911,7.8-11.654,14.327-11.745,8.95-.107,14.617,10.05,23.185,12.692,6.384,1.986,13.5-.672,18.466-5.178s8.141-10.569,11.028-16.587c4.063-8.431,9.7-18.328,19.046-18.466,5.193,0,9.943,3.314,12.937,7.545s4.582,9.317,6.109,14.281c2.887,9.577,5.254,21.383-1.924,28.378-4.582,4.46-11.837,5.254-16.694,9.47-7.27,6.308-6.736,17.473-6.537,27.1a149.089,149.089,0,0,1-3.986,37.237c-.764,3.268-1.879,6.858-4.781,8.584-3.864,2.322-8.721.214-13.181-.5-10.355-1.665-20.5,4.8-27.08,12.967S385.555,337.9,380,346.759s-13.655,17.122-23.979,18.939c-13.074,2.306-26.041-6.736-32.533-18.328-6.2-11.043-6.568-23.185-9.607-35.129C311,300.924,307.156,290.2,308.714,278.38Z" transform="translate(162.612 92.212)" fill="#1bb9dd"/>
        <path id="Trazado_11" data-name="Trazado 11" d="M452.85,192.913a1.527,1.527,0,0,0-2.092,0q-17.687,16.465-35.129,33.419a1.407,1.407,0,0,0-.336.336Q401.637,239.91,388.181,253.4l4.475-39.543a1.527,1.527,0,1,0-2.948-.336l-4.888,43.27q-8.385,8.4-16.663,16.908a1.527,1.527,0,0,0-1.084,1.1q-13.654,14.021-27.065,28.225l6.69-50.693a1.527,1.527,0,1,0-2.933-.4l-7.148,54.71q-13.9,14.77-27.492,29.738a1.487,1.487,0,0,0,2.2,2q28.5-31.357,58.33-61.949L422.2,270a1.478,1.478,0,0,0-.367-2.933l-48.875,5.972q21.887-22.36,44.293-44.14a88.021,88.021,0,0,1,24.04.412h.229a1.484,1.484,0,0,0,.29-2.948,90.11,90.11,0,0,0-21.077-.81Q436.721,210.1,452.9,195.006a1.527,1.527,0,0,0-.046-2.092Z" transform="translate(162.827 101.54)" fill="#1c32f9"/>
        <path id="Trazado_12" data-name="Trazado 12" d="M610.265,320.588H14a5.392,5.392,0,0,1-5.392-5.376h0A5.392,5.392,0,0,1,14,309.82H610.265a5.392,5.392,0,0,1,5.391,5.392h0A5.391,5.391,0,0,1,610.265,320.588Z" transform="translate(4.541 163.41)" fill="#593b69"/>
        <path id="Trazado_13" data-name="Trazado 13" d="M228.218,278.895a40.39,40.39,0,0,1,7.5.7A62.912,62.912,0,0,1,348.07,290.289a43.423,43.423,0,0,1,50.158,21.383,21.781,21.781,0,0,1,12.646-4.047,22.213,22.213,0,0,1,4.063.382,34,34,0,0,1,60.7,5.773,23.079,23.079,0,0,1,6.369-.886,23.475,23.475,0,0,1,23.475,23.491,24.431,24.431,0,0,1-.55,5.086H194.372a40.46,40.46,0,0,1,33.846-62.621Z" transform="translate(99.017 131.714)" fill="url(#linear-gradient-2)"/>
        <path id="Trazado_14" data-name="Trazado 14" d="M256.86,278.213H39.09a124.446,124.446,0,0,1,1.527,19.413A124.169,124.169,0,0,1,39.094,317l217.766.024a19.413,19.413,0,1,0,0-38.81Z" transform="translate(20.614 146.738)" fill="#fff"/>
        <path id="Trazado_15" data-name="Trazado 15" d="M261.2,329.765H30.86v-9.47H261.2a19.413,19.413,0,1,0,0-38.81H30.86V272H261.2a28.867,28.867,0,1,1,0,57.734Z" transform="translate(16.274 143.466)" fill="#bc66c5"/>
        <path id="Trazado_16" data-name="Trazado 16" d="M256.86,278.21H39.09a118.646,118.646,0,0,1,1.329,13.563H256.86A19.428,19.428,0,0,1,275.02,304.4a19.352,19.352,0,0,0-18.16-26.194Z" transform="translate(20.614 146.741)" opacity="0.1"/>
        <path id="Trazado_17" data-name="Trazado 17" d="M75.95,304.586l-6.843-3.391-6.858,3.391V290.87h13.7Z" transform="translate(32.828 153.417)" fill="#bc66c5"/>
        <path id="Trazado_18" data-name="Trazado 18" d="M30.86,281.485H43.43c.214,1.313.382,2.673.55,4.032a12.525,12.525,0,0,0,.153,1.3c.107,1.008.2,2.047.29,3.055a5.578,5.578,0,0,0,.107,1.329c.229,3.131.367,6.354.367,9.668a124.173,124.173,0,0,1-1.523,19.373l-12.513.024v9.47H185.214L242.948,272H30.86Z" transform="translate(16.274 143.466)" opacity="0.1"/>
        <path id="Trazado_19" data-name="Trazado 19" d="M25.415,240.41h217.77a130.483,130.483,0,0,0,0,38.81H25.415a19.413,19.413,0,0,1,0-38.81Z" transform="translate(3.452 126.807)" fill="#fff"/>
        <path id="Trazado_20" data-name="Trazado 20" d="M28.867,291.934H259.222v-9.47H28.867a19.413,19.413,0,0,1,0-38.81H259.222V234.2H28.867a28.867,28.867,0,0,0,0,57.734Z" transform="translate(0 123.532)" fill="#c54286"/>
        <path id="Trazado_21" data-name="Trazado 21" d="M25.6,240.41h217.77a122.181,122.181,0,0,0-1.329,13.578H25.6A19.428,19.428,0,0,0,7.427,266.6,19.382,19.382,0,0,1,25.6,240.41Z" transform="translate(3.265 126.807)" opacity="0.1"/>
        <path id="Trazado_22" data-name="Trazado 22" d="M146.626,266.82l-6.858-3.391-6.858,3.391v-13.7h13.716Z" transform="translate(70.091 133.509)" fill="#c54286"/>
        <rect id="Rectángulo_2" data-name="Rectángulo 2" width="281.232" height="386.298" rx="16.98" transform="translate(272.144 86.917)" fill="#1c88f4"/>
        <circle id="Elipse_3" data-name="Elipse 3" cx="3.024" cy="3.024" r="3.024" transform="translate(410.079 96.463)" fill="#fff"/>
        <path id="Trazado_23" data-name="Trazado 23" d="M430.244,63.05H411.167a2.826,2.826,0,0,0-2.826,2.841h0a11.684,11.684,0,0,1-11.684,11.684h-162.2a11.684,11.684,0,0,1-11.684-11.684h0a2.841,2.841,0,0,0-2.841-2.841H200.866A16.526,16.526,0,0,0,184.34,79.576v334.49a16.511,16.511,0,0,0,16.526,16.511H430.244a16.526,16.526,0,0,0,16.526-16.511V79.576A16.541,16.541,0,0,0,430.244,63.05Z" transform="translate(97.212 33.275)" fill="#fff"/>
        <path id="Trazado_24" data-name="Trazado 24" d="M384.823,56.89H270.47V443.2H384.823a25.965,25.965,0,0,0,25.965-25.965V82.748A25.965,25.965,0,0,0,384.823,56.89Z" transform="translate(142.633 30.027)" opacity="0.06"/>
        <path id="Trazado_25" data-name="Trazado 25" d="M323.577,301.145H246.858a4.338,4.338,0,0,1-4.338-4.338h0a4.338,4.338,0,0,1,4.338-4.338h76.719a4.338,4.338,0,0,1,4.338,4.338h0A4.338,4.338,0,0,1,323.577,301.145Z" transform="translate(127.894 154.261)" opacity="0.06"/>
        <rect id="Rectángulo_3" data-name="Rectángulo 3" width="220.473" height="134.774" transform="translate(303.027 128.354)" opacity="0.06"/>
        <rect id="Rectángulo_4" data-name="Rectángulo 4" width="75.955" height="40.307" transform="translate(303.027 280.066)" opacity="0.06"/>
        <rect id="Rectángulo_5" data-name="Rectángulo 5" width="75.955" height="40.307" transform="translate(303.027 336.41)" opacity="0.06"/>
        <rect id="Rectángulo_6" data-name="Rectángulo 6" width="75.955" height="40.307" transform="translate(303.027 392.754)" opacity="0.06"/>
        <path id="Trazado_26" data-name="Trazado 26" d="M381.8,193H264.366a4.826,4.826,0,0,1-4.826-4.826h0a4.826,4.826,0,0,1,4.826-4.826H381.8a4.842,4.842,0,0,1,4.826,4.826h0A4.842,4.842,0,0,1,381.8,193Z" transform="translate(136.869 96.716)" opacity="0.06"/>
        <path id="Trazado_27" data-name="Trazado 27" d="M381.8,206.188H264.366a4.811,4.811,0,0,1-4.826-4.811h0a4.811,4.811,0,0,1,4.826-4.826H381.8a4.826,4.826,0,0,1,4.826,4.826h0a4.826,4.826,0,0,1-4.826,4.811Z" transform="translate(136.869 103.677)" opacity="0.06"/>
        <path id="Trazado_28" data-name="Trazado 28" d="M381.8,219.388H264.366a4.811,4.811,0,0,1-4.826-4.826h0a4.811,4.811,0,0,1,4.826-4.811H381.8a4.826,4.826,0,0,1,4.826,4.811h0A4.826,4.826,0,0,1,381.8,219.388Z" transform="translate(136.869 110.638)" opacity="0.06"/>
        <rect id="Rectángulo_7" data-name="Rectángulo 7" width="127.091" height="9.638" rx="3.16" transform="translate(396.409 340.534)" opacity="0.06"/>
        <path id="Trazado_29" data-name="Trazado 29" d="M381.8,245.778H264.366a4.811,4.811,0,0,1-4.826-4.811h0a4.811,4.811,0,0,1,4.826-4.826H381.8a4.826,4.826,0,0,1,4.826,4.826h0A4.826,4.826,0,0,1,381.8,245.778Z" transform="translate(136.869 124.555)" opacity="0.06"/>
        <path id="Trazado_30" data-name="Trazado 30" d="M381.8,258.983H264.366a4.811,4.811,0,0,1-4.826-4.826h0a4.826,4.826,0,0,1,4.826-4.826H381.8a4.842,4.842,0,0,1,4.826,4.826h0A4.826,4.826,0,0,1,381.8,258.983Z" transform="translate(136.869 131.511)" opacity="0.06"/>
        <path id="Trazado_31" data-name="Trazado 31" d="M381.8,272.168H264.366a4.811,4.811,0,0,1-4.826-4.811h0a4.811,4.811,0,0,1,4.826-4.826H381.8a4.826,4.826,0,0,1,4.826,4.826h0a4.826,4.826,0,0,1-4.826,4.811Z" transform="translate(136.869 138.472)" opacity="0.06"/>
        <path id="Trazado_32" data-name="Trazado 32" d="M381.8,285.328H264.366a4.811,4.811,0,0,1-4.826-4.826h0a4.811,4.811,0,0,1,4.826-4.811H381.8a4.826,4.826,0,0,1,4.826,4.811h0A4.826,4.826,0,0,1,381.8,285.328Z" transform="translate(136.869 145.412)" opacity="0.06"/>
        <circle id="Elipse_4" data-name="Elipse 4" cx="40.719" cy="40.719" r="40.719" transform="translate(366.314 229.099) rotate(-80.42)" opacity="0.06"/>
        <path id="Trazado_33" data-name="Trazado 33" d="M300.491,131.195l-33.128-19.122a6.812,6.812,0,0,0-10.2,5.9v38.184a6.8,6.8,0,0,0,10.2,5.88l33.128-19.046a6.812,6.812,0,0,0,0-11.791Z" transform="translate(135.614 58.651)" opacity="0.06"/>
        <path id="Trazado_34" data-name="Trazado 34" d="M318.672,102.933a11.013,11.013,0,0,0,2.077-4.322,3.742,3.742,0,0,0-1.924-3.971,9.164,9.164,0,0,0,.84-7.362,4.979,4.979,0,0,0-5.743-3.055,6.766,6.766,0,0,0-3.849,4.888,19.52,19.52,0,0,0,2.8,16.633C315.4,105.148,317.221,105.071,318.672,102.933Z" transform="translate(163.116 44.375)" fill="#ddc4a2"/>
        <path id="Trazado_35" data-name="Trazado 35" d="M373.006,112a17.977,17.977,0,0,1-8.294-3.055,10.111,10.111,0,0,1-4.338-7.423,7.056,7.056,0,0,1,4.46-7c2.765-.916,5.773.305,8.309,1.741s5.1,3.146,8,3.314c2.276.137,4.582-.7,6.8-.5a7.8,7.8,0,0,1,6.659,9.057,10.019,10.019,0,0,1,2.352,8.645,16.083,16.083,0,0,1-4.918,7.82,40.961,40.961,0,0,1-7.637,5.285,39.911,39.911,0,0,0,.138-9.057,12.218,12.218,0,0,0-3.36-7.774A7.423,7.423,0,0,0,373.006,112Z" transform="translate(190.038 49.709)" fill="#0042c4"/>
        <path id="Trazado_36" data-name="Trazado 36" d="M346.568,306.053c.4,3.269-2.383,6.109-5.392,7.453s-6.4,1.527-9.485,2.734-6.109,3.635-6.2,6.919h36.443a56.054,56.054,0,0,0,0-17.137C357.228,304.19,351.547,305.03,346.568,306.053Z" transform="translate(171.648 160.838)" fill="#241a4d"/>
        <path id="Trazado_37" data-name="Trazado 37" d="M387.033,306.053c.382,3.269-2.383,6.109-5.407,7.453s-6.384,1.527-9.47,2.734-6.109,3.635-6.216,6.919H402.4a56.054,56.054,0,0,0,0-17.137C397.694,304.19,392,305.03,387.033,306.053Z" transform="translate(192.98 160.838)" fill="#241a4d"/>
        <path id="Trazado_38" data-name="Trazado 38" d="M358.483,376.658A430.249,430.249,0,0,0,375.9,289.6c3.055-33.6,19-66.562,21.688-100.164a23.689,23.689,0,0,0-10.539-9.409,73.51,73.51,0,0,0-14.021-3.711c-5.789-1.115-9.561-.275-15.35-1.405L338.2,376.658Z" transform="translate(178.351 92.265)" fill="#3e2d87"/>
        <path id="Trazado_39" data-name="Trazado 39" d="M365,175.386l20.375,201.87h19.443a430.263,430.263,0,0,0,.489-92.894c-3.589-33.525,5.636-68.991,1.7-102.47a23.628,23.628,0,0,0-12.219-7.163,72.947,72.947,0,0,0-14.495-.9C374.454,173.8,370.926,175.355,365,175.386Z" transform="translate(192.484 91.667)" fill="#3e2d87"/>
        <path id="Trazado_40" data-name="Trazado 40" d="M414.791,181.852a23.628,23.628,0,0,0-12.219-7.163,72.945,72.945,0,0,0-14.495-.9c-5.9,0-9.424,1.527-15.274,1.619l.275,2.749c-2.123-.5-4.277-.916-6.415-1.344-5.208-1.008-8.782-.443-13.655-1.13l-1.8.855c-.336,3.36-.657,6.705-.978,10.065a80.95,80.95,0,0,0,65.462,19.214,168.985,168.985,0,0,0-.9-23.964Z" transform="translate(184.695 91.646)" opacity="0.2"/>
        <path id="Trazado_41" data-name="Trazado 41" d="M388.014,117.779c-12.3,2.49-22.91,10.905-29.707,21.383s-10.05,23.063-11.15,35.557-.122,25.079.932,37.588c21.7,11.791,49.624,14.311,73.313,7.1,1.527-13.96,3.62-28.424,3.055-42.476s-3.36-28.164-10.08-40.521a40.9,40.9,0,0,0-10.035-12.753C400.141,120.238,393.359,116.694,388.014,117.779Z" transform="translate(182.819 62.032)" fill="#ffc349"/>
        <path id="Trazado_42" data-name="Trazado 42" d="M400.157,184.34h23.369c.092-.916.168-1.833.244-2.749H399.424l-7.973-29.8a7.637,7.637,0,0,0-6.888-5.422H349.2a99.452,99.452,0,0,0-2.047,13.181,167.025,167.025,0,0,0,0,24.728h53Z" transform="translate(182.833 77.214)" opacity="0.2"/>
        <rect id="Rectángulo_8" data-name="Rectángulo 8" width="53.839" height="2.734" transform="translate(548.503 260.18)" fill="#fff"/>
        <rect id="Rectángulo_9" data-name="Rectángulo 9" width="53.839" height="2.734" transform="translate(548.503 260.18)" opacity="0.3"/>
        <path id="Trazado_43" data-name="Trazado 43" d="M398.442,185.247H344.587l-8.721-32.563a4.032,4.032,0,0,1,3.971-5.422h43.01a7.637,7.637,0,0,1,6.873,5.422Z" transform="translate(176.989 77.682)" fill="#fff"/>
        <path id="Trazado_44" data-name="Trazado 44" d="M383.625,155.17a13.272,13.272,0,0,1,9.546-3.849,12.855,12.855,0,0,1,2.428.275,15.549,15.549,0,0,1,8.08,1.94,78.125,78.125,0,0,0-7.1-18.695,40.9,40.9,0,0,0-10.035-12.753c-.641-.519-1.329-1.023-2.062-1.527-3.895,10.218-6.247,24.789-1.084,34.289Z" transform="translate(200.618 63.603)" opacity="0.2"/>
        <path id="Trazado_45" data-name="Trazado 45" d="M414.17,161.664a5,5,0,0,1,0,.672c.473,8.217-6.552,15.35-14.4,17.809s-16.648.84-24.8-.29c-.2.336-.382.672-.565,1.039a7.1,7.1,0,0,0-2.459-1.359c-1.115-.26-2.551.321-2.673,1.527-1.146.473-2.306-.657-3.177-1.527s-1.894-1.879-3.131-1.787a2.459,2.459,0,0,0-1.94,1.527,4.048,4.048,0,0,0-.092,2.551,7.988,7.988,0,0,0,5.483,5.223,17.551,17.551,0,0,0,6.247.6,10.149,10.149,0,0,0,.076,1.359A86.082,86.082,0,0,0,398.5,192.15a48.2,48.2,0,0,0,16.373-3.7A248.46,248.46,0,0,0,417,159.74,16.069,16.069,0,0,1,414.17,161.664Z" transform="translate(190.25 84.265)" opacity="0.2"/>
        <path id="Trazado_46" data-name="Trazado 46" d="M403.413,130.255a55.443,55.443,0,0,1-83.592-35.037,10.1,10.1,0,0,0-9.271,2.749c1.207,17.671,10.218,35.542,22.7,48.1A75.192,75.192,0,0,0,380.5,167.8c8.584.641,17.259-7.117,21.719-14.495S406.437,138.319,403.413,130.255Z" transform="translate(163.77 50.121)" fill="#ffc349"/>
        <path id="Trazado_47" data-name="Trazado 47" d="M378.146,173.784a3.65,3.65,0,0,1-3.3-.351,9.286,9.286,0,0,0-3.162-1.344c-1.146-.137-2.49.626-2.474,1.772-1.084.611-2.367-.382-3.345-1.13a4.445,4.445,0,0,0-3.314-1.39,2.444,2.444,0,0,0-1.741,1.741,3.971,3.971,0,0,0,.214,2.551,7.988,7.988,0,0,0,6.109,4.582,20.36,20.36,0,0,0,7.851-.473A4.857,4.857,0,0,0,378.146,173.784Z" transform="translate(190.213 90.382)" fill="#ddc4a2"/>
        <path id="Trazado_48" data-name="Trazado 48" d="M380.62,118a72.885,72.885,0,0,1,31.906,16.22,51.4,51.4,0,0,1,16.8,31.127c1.527,11.959-2.352,24.713-11,33.113a44.141,44.141,0,0,1-23.139,11.119,86.54,86.54,0,0,1-25.965,0,14.739,14.739,0,0,1,1.115-9.3c8.232.137,17.152.7,24.651-2.688s13.624-11.3,12.219-19.413c-1.039-5.819-5.605-10.325-10.31-13.9s-9.928-6.736-13.349-11.562C377.183,143.644,377.886,128.554,380.62,118Z" transform="translate(194.551 62.253)" fill="#ffc349"/>
        <path id="Trazado_49" data-name="Trazado 49" d="M371.163,113.52c-.229,4.216-.458,8.416-.7,12.631a13.41,13.41,0,0,0,12.127.855c-.168-4.322-.382-8.63-.55-12.967a13.868,13.868,0,0,0-10.875-.519Z" transform="translate(195.363 59.433)" fill="#ddc4a2"/>
        <path id="Trazado_50" data-name="Trazado 50" d="M382.282,119.98c-.076-1.97-.168-3.956-.244-5.941a13.868,13.868,0,0,0-10.875-.519c-.229,4.215-.458,8.416-.7,12.631a37.847,37.847,0,0,0,11.822-6.171Z" transform="translate(195.363 59.433)" opacity="0.2"/>
        <path id="Trazado_51" data-name="Trazado 51" d="M368.629,104.079a47.486,47.486,0,0,0,.473,21.536,16.953,16.953,0,0,0,13.364-1.527,13.746,13.746,0,0,0,6.277-11.119A12.4,12.4,0,0,0,382.452,102C378.542,99.925,371.959,101.1,368.629,104.079Z" transform="translate(193.864 53.264)" fill="#ddc4a2"/>
        <path id="Trazado_52" data-name="Trazado 52" d="M366.5,108.281a17.7,17.7,0,0,0,14.25.825,12.8,12.8,0,0,0,1.39,4.322c0,.886-.153,2.047-.2,2.932h1.176a5.224,5.224,0,0,1,.428-3.467,2.184,2.184,0,0,1,2.719-.962,2.138,2.138,0,0,1,1.069,1.741,4.154,4.154,0,0,1-.428,2.047,8.294,8.294,0,0,1-2.841,3.482,10.432,10.432,0,0,0,.229,6.262,26.636,26.636,0,0,0,6.033-8.431,15.594,15.594,0,0,0,.626-9.958,11.348,11.348,0,0,0-6.491-7.377,14.6,14.6,0,0,0-7.637-.473,15.747,15.747,0,0,0-6.9,2.581,8.614,8.614,0,0,0-3.421,6.476Z" transform="translate(193.275 52.193)" fill="#0042c4"/>
        <path id="Trazado_53" data-name="Trazado 53" d="M362.271,161.226a3.3,3.3,0,0,1-3.269,4.46,6.231,6.231,0,0,1-5.651-4.46,3.3,3.3,0,0,1,3.269-4.445,6.232,6.232,0,0,1,5.651,4.445Z" transform="translate(186.232 82.702)" opacity="0.2"/>
      </g>
    </g>
  </g>
</svg>
