<svg xmlns="http://www.w3.org/2000/svg" xmlns:xlink="http://www.w3.org/1999/xlink" viewBox="0 0 582 353.48">
    <defs>
        <linearGradient id="Áåçûìÿííûé_ãðàäèåíò_3" x1="94.02" y1="146.34" x2="194.48" y2="146.34" gradientUnits="userSpaceOnUse"><stop offset="0" stop-color="#e0f0eb"/><stop offset="1" stop-color="#c0e4ef"/></linearGradient><linearGradient id="Áåçûìÿííûé_ãðàäèåíò_3-2" x1="170.89" y1="118.09" x2="325.12" y2="118.09" gradientTransform="matrix(-1, 0, 0, 1, 705.99, 0)" xlink:href="#Áåçûìÿííûé_ãðàäèåíò_3"/><linearGradient id="Áåçûìÿííûé_ãðàäèåíò_2" x1="355.55" y1="22.47" x2="395.69" y2="22.47" gradientUnits="userSpaceOnUse"><stop offset="0" stop-color="#f1f8f8"/><stop offset="1" stop-color="#c0e4ef"/></linearGradient><linearGradient id="Áåçûìÿííûé_ãðàäèåíò_2-2" x1="347.35" y1="23.57" x2="395.44" y2="23.57" xlink:href="#Áåçûìÿííûé_ãðàäèåíò_2"/><linearGradient id="Áåçûìÿííûé_ãðàäèåíò_3-3" x1="199.11" y1="78.5" x2="249.57" y2="78.5" gradientTransform="translate(-137.32 171.29) rotate(-0.07)" xlink:href="#Áåçûìÿííûé_ãðàäèåíò_3"/><linearGradient id="Áåçûìÿííûé_ãðàäèåíò_3-4" x1="450.73" y1="85.36" x2="491.78" y2="85.36" gradientTransform="translate(-137.32 171.29) rotate(-0.07)" xlink:href="#Áåçûìÿííûé_ãðàäèåíò_3"/><linearGradient id="Áåçûìÿííûé_ãðàäèåíò_3-5" x1="436.27" y1="300.69" x2="445.13" y2="248.39" xlink:href="#Áåçûìÿííûé_ãðàäèåíò_3"/><linearGradient id="Áåçûìÿííûé_ãðàäèåíò_3-6" x1="184.84" y1="84.55" x2="227.86" y2="84.55" gradientTransform="translate(16.34 -32.17) rotate(9.28)" xlink:href="#Áåçûìÿííûé_ãðàäèåíò_3"/><linearGradient id="Áåçûìÿííûé_ãðàäèåíò_3-7" x1="253.35" y1="246.61" x2="253.35" y2="293.61" xlink:href="#Áåçûìÿííûé_ãðàäèåíò_3"/><linearGradient id="Áåçûìÿííûé_ãðàäèåíò_3-8" x1="338.43" y1="88.71" x2="345.43" y2="128.71" gradientTransform="translate(175.01 -210.39) rotate(45)" xlink:href="#Áåçûìÿííûé_ãðàäèåíò_3"/><linearGradient id="Áåçûìÿííûé_ãðàäèåíò_3-9" x1="-130.15" y1="266.81" x2="-113.53" y2="266.81" gradientTransform="matrix(-1, 0, 0, 1, 35.01, 0)" xlink:href="#Áåçûìÿííûé_ãðàäèåíò_3"/><linearGradient id="Áåçûìÿííûé_ãðàäèåíò_3-10" x1="-116.42" y1="269" x2="-99.47" y2="269" gradientTransform="matrix(-1, 0, 0, 1, 35.01, 0)" xlink:href="#Áåçûìÿííûé_ãðàäèåíò_3"/><linearGradient id="Áåçûìÿííûé_ãðàäèåíò_7" x1="-106.97" y1="271.14" x2="-91.69" y2="271.14" gradientTransform="matrix(-1, 0, 0, 1, 35.01, 0)" gradientUnits="userSpaceOnUse"><stop offset="0" stop-color="#c0e4ef"/><stop offset="1" stop-color="#e0f0eb"/></linearGradient><linearGradient id="Áåçûìÿííûé_ãðàäèåíò_3-11" x1="43" y1="282.16" x2="53.56" y2="282.16" xlink:href="#Áåçûìÿííûé_ãðàäèåíò_3"/><linearGradient id="Áåçûìÿííûé_ãðàäèåíò_3-12" x1="74.55" y1="282.16" x2="85.11" y2="282.16" xlink:href="#Áåçûìÿííûé_ãðàäèåíò_3"/><linearGradient id="Áåçûìÿííûé_ãðàäèåíò_3-13" x1="106.86" y1="282.16" x2="117.41" y2="282.16" xlink:href="#Áåçûìÿííûé_ãðàäèåíò_3"/><linearGradient id="Áåçûìÿííûé_ãðàäèåíò_3-14" x1="357.95" y1="282.16" x2="368.51" y2="282.16" xlink:href="#Áåçûìÿííûé_ãðàäèåíò_3"/><linearGradient id="Áåçûìÿííûé_ãðàäèåíò_3-15" x1="389.5" y1="282.16" x2="400.06" y2="282.16" xlink:href="#Áåçûìÿííûé_ãðàäèåíò_3"/><linearGradient id="Áåçûìÿííûé_ãðàäèåíò_3-16" x1="421.8" y1="282.16" x2="432.36" y2="282.16" xlink:href="#Áåçûìÿííûé_ãðàäèåíò_3"/><linearGradient id="Áåçûìÿííûé_ãðàäèåíò_3-17" x1="455.15" y1="282.16" x2="465.7" y2="282.16" xlink:href="#Áåçûìÿííûé_ãðàäèåíò_3"/><linearGradient id="Áåçûìÿííûé_ãðàäèåíò_3-18" x1="486.7" y1="282.16" x2="497.26" y2="282.16" xlink:href="#Áåçûìÿííûé_ãðàäèåíò_3"/><linearGradient id="Áåçûìÿííûé_ãðàäèåíò_3-19" x1="519" y1="282.16" x2="529.56" y2="282.16" xlink:href="#Áåçûìÿííûé_ãðàäèåíò_3"/><linearGradient id="Áåçûìÿííûé_ãðàäèåíò_3-20" x1="376.35" y1="273.81" x2="377.59" y2="273.81" xlink:href="#Áåçûìÿííûé_ãðàäèåíò_3"/><linearGradient id="Áåçûìÿííûé_ãðàäèåíò_2-3" x1="30.81" y1="107.43" x2="63.28" y2="107.43" xlink:href="#Áåçûìÿííûé_ãðàäèåíò_2"/><linearGradient id="Áåçûìÿííûé_ãðàäèåíò_2-4" x1="30.81" y1="117.25" x2="57" y2="117.25" xlink:href="#Áåçûìÿííûé_ãðàäèåíò_2"/></defs><title>Login_1</title><g id="Layer_2" data-name="Layer 2"><g id="Ñëîé_1" data-name="Ñëîé 1"><path class="cls-1" d="M94.27,148.43c-3.66,15.93,33.88,18,49.36,18.15a60.79,60.79,0,0,0,12.76-1.22c13.08-2.65,41.72-9.62,37.71-19.09-5.19-12.23-20.75-3.7-20.75-3.7s2-9.23-24.54-15.33-26.38,14.22-26.38,14.22S98.87,128.43,94.27,148.43Z"/><path class="cls-2" d="M535.1,142.32H384.5s-8.17-10.33,0-17.28c4.5-3.84,9.83-3.44,13.69-2.31a4.52,4.52,0,0,0,5.59-3.53c.91-4.25,3.73-9.81,11.84-13.09s13,1.7,15.94,6.77a2.27,2.27,0,0,0,4.1-.42c2.52-8,11.34-18.61,40.29-18.61,36.82,0,32.72,19.57,29.43,27.71a1.88,1.88,0,0,0,2.13,2.56c5.68-1.22,16.22-2.79,21,.92C535.1,130.25,535.1,142.32,535.1,142.32Z"/><polygon class="cls-3" points="395.69 29.4 374.52 17.71 363.71 15.55 355.55 16.75 395.69 29.4"/><polyline class="cls-4" points="395.69 29.4 356.05 19.21 355.55 16.75"/><polygon class="cls-5" points="354.92 26.01 354.97 26.09 356.63 32.25 395.59 29.4 354.92 26.01"/><polygon class="cls-6" points="347.35 22.4 353 17.81 395.44 29.33 358.91 28.25 347.35 22.4"/><path class="cls-5" d="M258.17,101A30.63,30.63,0,0,0,262,99.29a.58.58,0,0,1,.77.25.56.56,0,0,1-.24.77,30,30,0,0,1-4,1.72q-.74.27-1.47.48a.54.54,0,0,1-.51-.09.51.51,0,0,1-.21-.29.58.58,0,0,1,.38-.72C257.23,101.27,257.7,101.11,258.17,101Z"/><path class="cls-5" d="M335.76,18.11c1.8.23,3.67.53,5.72.9a.59.59,0,0,1,.47.68.58.58,0,0,1-.68.46c-2-.38-3.88-.67-5.65-.9a.5.5,0,0,1-.27-.11.57.57,0,0,1,.41-1Z"/><path class="cls-5" d="M326.16,18.55a.6.6,0,0,1-.24-.46.58.58,0,0,1,.57-.58c1.85,0,3.81.06,5.81.23a.58.58,0,1,1-.1,1.15c-2-.17-3.88-.24-5.7-.23A.55.55,0,0,1,326.16,18.55Z"/><path class="cls-5" d="M269.29,94a.57.57,0,0,1,.81,0,.58.58,0,0,1,0,.82,32.33,32.33,0,0,1-4.55,3.69.56.56,0,0,1-.66,0,.35.35,0,0,1-.13-.14.58.58,0,0,1,.15-.8A30.51,30.51,0,0,0,269.29,94Z"/><path class="cls-5" d="M271.66,92.32a.57.57,0,0,1-.08-.81c.33-.4.64-.81.95-1.22a29.34,29.34,0,0,0,2.21-3.46.58.58,0,1,1,1,.55,30.43,30.43,0,0,1-2.3,3.6c-.31.43-.64.85-1,1.26a.57.57,0,0,1-.79.09Z"/><path class="cls-5" d="M276.51,84.52a.35.35,0,0,1-.12-.07.56.56,0,0,1-.19-.68A40.58,40.58,0,0,0,278,78.38a.57.57,0,1,1,1.11.28,38.84,38.84,0,0,1-1.8,5.55A.58.58,0,0,1,276.51,84.52Z"/><path class="cls-5" d="M291.78,35.37c-.48.59-.94,1.19-1.39,1.79-.68.92-1.33,1.87-1.93,2.83a.58.58,0,0,1-.8.18l0,0a.58.58,0,0,1-.15-.77c.62-1,1.28-1.95,2-2.89.46-.62.94-1.24,1.43-1.84a.56.56,0,0,1,.81-.08A.57.57,0,0,1,291.78,35.37Z"/><path class="cls-5" d="M286.76,42.94a41.85,41.85,0,0,0-2.28,5.2.59.59,0,0,1-.74.35l-.15-.08a.59.59,0,0,1-.2-.66,43.51,43.51,0,0,1,2.35-5.34.58.58,0,0,1,.78-.24A.56.56,0,0,1,286.76,42.94Z"/><path class="cls-5" d="M298.21,29A49.35,49.35,0,0,0,294,32.82a.58.58,0,0,1-.76.07l0,0a.57.57,0,0,1,0-.81,47.21,47.21,0,0,1,4.27-4,.58.58,0,0,1,.73.89Z"/><path class="cls-5" d="M308.83,22.4a.56.56,0,0,1-.57-.07.48.48,0,0,1-.19-.23.56.56,0,0,1,.3-.75,45.49,45.49,0,0,1,5.47-2,.58.58,0,0,1,.32,1.11A43.75,43.75,0,0,0,308.83,22.4Z"/><path class="cls-5" d="M280.45,66.58a.67.67,0,0,1-.28-.1A.58.58,0,0,1,280,66l.08-.73c.19-1.67.38-3.34.6-5a.57.57,0,1,1,1.14.15c-.22,1.66-.41,3.32-.6,5l-.08.73A.57.57,0,0,1,280.45,66.58Z"/><path class="cls-5" d="M300.93,26.88a.59.59,0,0,1-.68,0,.8.8,0,0,1-.13-.13.59.59,0,0,1,.14-.81,47.92,47.92,0,0,1,5-3.06.58.58,0,0,1,.55,1A47.28,47.28,0,0,0,300.93,26.88Z"/><path class="cls-5" d="M280.18,68.87a.58.58,0,0,1,.5.65c-.28,2.24-.56,4.06-.87,5.73a.58.58,0,0,1-.67.46.66.66,0,0,1-.24-.11.55.55,0,0,1-.22-.57c.3-1.64.58-3.44.86-5.66A.58.58,0,0,1,280.18,68.87Z"/><path class="cls-5" d="M253.46,102.22a.58.58,0,0,1,.22,1.13,46.11,46.11,0,0,1-5.78.75.55.55,0,0,1-.38-.11.62.62,0,0,1-.24-.43.58.58,0,0,1,.54-.61A45.75,45.75,0,0,0,253.46,102.22Z"/><path class="cls-5" d="M283.06,50.69a.57.57,0,0,1,.4.7c-.45,1.7-.84,3.52-1.18,5.58a.59.59,0,0,1-.67.47.6.6,0,0,1-.25-.1.59.59,0,0,1-.22-.56c.35-2.1.75-4,1.21-5.68A.58.58,0,0,1,283.06,50.69Z"/><path class="cls-5" d="M321,17.85c.67-.08,1.34-.14,2-.19a.57.57,0,0,1,.62.53.58.58,0,0,1-.53.62c-.66.05-1.31.11-2,.19-1.22.14-2.45.34-3.65.6a.6.6,0,0,1-.46-.1.57.57,0,0,1-.22-.34.58.58,0,0,1,.44-.69C318.47,18.21,319.73,18,321,17.85Z"/><polygon class="cls-7" points="61.92 279.29 112.39 284.67 112.31 214.31 61.85 214.37 61.92 279.29"/><polygon class="cls-5" points="112.31 214.41 121.47 201.51 74.83 201.57 61.85 214.47 112.31 214.41"/><polygon class="cls-5" points="112.31 214.31 130.66 215.16 130.39 270.13 112.39 284.67 112.31 214.31"/><polygon class="cls-8" points="121.47 201.51 130.66 215.16 112.31 214.41 121.47 201.51"/><polygon class="cls-8" points="74.83 201.57 121.47 201.51 121.45 190.86 74.82 191.59 74.83 201.57"/><polygon class="cls-9" points="121.47 201.51 117.77 206.72 130.14 214.39 121.47 201.51"/><polygon class="cls-10" points="313.54 280.31 354.6 284.68 354.53 227.43 313.48 227.48 313.54 280.31"/><polygon class="cls-5" points="354.53 227.51 361.98 217.02 324.04 217.06 313.48 227.56 354.53 227.51"/><polygon class="cls-5" points="354.53 227.43 369.46 228.12 369.24 272.85 354.6 284.68 354.53 227.43"/><polygon class="cls-8" points="361.98 217.02 369.46 228.12 354.53 227.51 361.98 217.02"/><polygon class="cls-8" points="324.04 217.06 361.98 217.02 361.98 208.35 324.03 208.94 324.04 217.06"/><polygon class="cls-9" points="361.98 217.02 358.98 221.26 369.04 227.5 361.98 217.02"/><polygon class="cls-9" points="479.6 242.62 475.51 235.4 457.98 235.4 459.65 240.69 479.6 242.62"/><polygon class="cls-11" points="421.76 276.87 463.85 280.17 464.29 242.02 422.17 241.66 421.76 276.87"/><polygon class="cls-5" points="464.29 242.02 479.6 242.62 478.98 272.43 463.85 280.17 464.29 242.02"/><polygon class="cls-8" points="464.51 238.76 479.6 242.62 464.29 242.07 464.51 238.76"/><polygon class="cls-5" points="464.29 242.07 466.18 232.98 427.25 232.64 422.16 241.71 464.29 242.07"/><polygon class="cls-9" points="547.92 226.89 543.83 215.61 526.3 215.61 527.97 223.88 547.92 226.89"/><polygon class="cls-5" points="490.08 280.45 532.17 285.62 532.61 225.96 490.48 225.39 490.08 280.45"/><polygon class="cls-9" points="532.61 225.96 547.92 226.89 547.3 273.51 532.17 285.62 532.61 225.96"/><polygon class="cls-12" points="532.83 220.87 547.92 226.89 532.61 226.04 532.83 220.87"/><polygon class="cls-13" points="532.61 226.04 534.5 211.82 495.57 211.3 490.48 225.47 532.61 226.04"/><rect class="cls-14" x="310.13" y="334.54" width="256.07" height="10.08" transform="translate(876.33 679.15) rotate(180)"/><rect class="cls-14" y="270.58" width="582" height="25.1" rx="12.55"/><path class="cls-5" d="M376.39,123.8c-.05-.88-2.37-3.34-5.45-5.52a32.92,32.92,0,0,0,1.84-9.4c3.26-.49,6.65-1.34,7.34-2.82,1.4-3-1.31-11.6-2.36-12.53-.67-.6-4.16-.69-8,0a33,33,0,0,0-5.16-8c2-2.66,3.77-5.67,3.21-7.21-1.13-3.11-9.13-7.27-10.53-7.19-.88,0-3.32,2.36-5.5,5.42a32.84,32.84,0,0,0-9.48-2.16c-.49-3.15-1.33-6.33-2.76-7-3-1.4-11.6,1.31-12.54,2.36-.55.63-.67,3.69-.14,7.17a33,33,0,0,0-8.64,5.37c-2.43-1.72-5-3.14-6.4-2.63-3.11,1.13-7.27,9.13-7.19,10.53.05.79,1.92,2.85,4.52,4.84a32.76,32.76,0,0,0-2.31,10.32c-2.78.51-5.35,1.31-5.94,2.58-1.4,3,1.31,11.6,2.36,12.54.58.51,3.24.65,6.39.25a32.94,32.94,0,0,0,5.88,8.92c-1.6,2.32-2.84,4.7-2.36,6,1.13,3.11,9.13,7.27,10.53,7.19.79-.05,2.85-1.92,4.85-4.54a32.75,32.75,0,0,0,10.24,1.95c.5,2.92,1.32,5.71,2.65,6.32,3,1.4,11.6-1.31,12.53-2.36.56-.63.67-3.72.14-7.22a32.68,32.68,0,0,0,8.21-5.63c2.56,1.86,5.37,3.48,6.84,3C372.31,133.2,376.47,125.2,376.39,123.8Zm-44.89-4.31A14.75,14.75,0,1,1,352,115.62,14.74,14.74,0,0,1,331.5,119.49Z"/><path class="cls-15" d="M328.26,124.44a21,21,0,1,1,29.18-5.5A21,21,0,0,1,328.26,124.44ZM351.77,90a20.7,20.7,0,1,0,5.43,28.76A20.72,20.72,0,0,0,351.77,90Z"/><path class="cls-15" d="M368.14,118.88l-.32-.27a30.09,30.09,0,0,1-58-12.75h0l-.38-.17a30.49,30.49,0,0,0,55.62,18.93A31.19,31.19,0,0,0,368.14,118.88Z"/><path class="cls-15" d="M338.1,77.39a30,30,0,0,1,18.75,5.17l.33.24.12-.4-.23-.16A30.29,30.29,0,0,0,338.15,77C338.14,77.13,338.12,77.26,338.1,77.39Z"/><path class="cls-16" d="M245.69,276s19.73-61.67-16.74-92c-71.3,39.73-32,109.75-32,109.75Z"/><path class="cls-15" d="M229,184l-.73.42-4.36,76.17-34-33.26c-.17.5-.33,1-.49,1.51l34.41,33.63-1.26,22,1.46-.53,2.5-43.81h0l23.78-14c-.07-.51-.13-1-.21-1.53l-23.47,13.81,3.08-53.81L229,184Z"/><path class="cls-13" d="M228.83,261.88s-23.08-60.31-68.13-66.21c-32.65,43.81,10.69,87.65,10.69,87.65l52.07,21.84Z"/><path class="cls-9" d="M204,221.41l-13,25.52-29.28-51.1-1.07-.16c-.13.17-.24.35-.37.52L176,223.56,150,218.23c0,.25-.1.49-.16.74l-.13.65L177,225.2l26.14,45.61-46-7.89.84,1.59L204,272.4l18.56,32.39.88.37.17-1.39L191.9,248.4,205,222.56Z"/><path class="cls-17" d="M180,330.61h49l-15.6-42s-44.85-29.89-74.47-9.07c1.85,31.87,20.48,49.93,41,60.17Z"/><path class="cls-15" d="M228.55,330.61H229l-.64-1.73L180,301.74l-8.35-29c-.5-.07-1-.12-1.52-.18l8.1,28.22-38.57-21.62c-.22.15-.45.29-.66.45h0l.06.84,63.67,35.69-36.81,14.95c.45.34.89.67,1.34,1L204.26,317Z"/><path class="cls-5" d="M239.69,245.39s-19.73-61.67,16.73-92c71.31,39.73,32.05,109.75,32.05,109.75Z"/><path class="cls-15" d="M256.42,153.37l.74.42L261.52,230l34-33.26c.17.5.34,1,.49,1.51l-34.41,33.63,1.26,22-1.45-.53-2.51-43.81h0l-23.77-14c.06-.51.13-1,.2-1.53l23.47,13.81L255.74,154l.68-.59Z"/><path class="cls-13" d="M256.55,231.27s23.07-60.31,68.12-66.21C357.32,208.87,314,252.71,314,252.71l-52.07,21.84Z"/><path class="cls-9" d="M281.34,190.8l13,25.52,29.29-51.1,1.06-.16c.13.17.25.35.37.52L309.36,193l26.06-5.33c.06.25.11.49.16.74l.13.65-27.29,5.58L282.27,240.2l46-7.89c-.27.54-.56,1.07-.84,1.59l-46.11,7.9L262.8,274.18l-.88.37-.18-1.39,31.74-55.37L280.34,192C280.67,191.57,281,191.18,281.34,190.8Z"/><path class="cls-17" d="M272,258s44.85-29.89,74.46-9.07C342.15,322.76,248,322.53,248,322.53Z"/><path class="cls-15" d="M346.43,249l-.06.84L282.7,285.5l36.81,14.95c-.44.34-.89.67-1.34,1l-37.06-15.05-24.87,13.94.77-2.06,48.42-27.14,8.34-29c.51-.07,1-.12,1.53-.17l-8.11,28.21,38.58-21.62.66.45Z"/><path class="cls-5" d="M260,72.32c-.47-1.33-5.11-4.06-10.79-6a52.26,52.26,0,0,0-1.35-15.22c4.78-2.19,9.6-5,10-7.57.81-5.22-7.15-17.19-9.17-18.15-1.3-.62-6.68.79-12.2,3.5A52.4,52.4,0,0,0,225,18.93c1.85-4.94,3.28-10.35,1.74-12.46C223.63,2.2,209.54-.63,207.43.12c-1.32.47-4,5.08-6,10.74a52.64,52.64,0,0,0-15.48.88c-2.15-4.6-4.85-9.1-7.33-9.48-5.22-.81-17.18,7.15-18.15,9.17-.57,1.21.61,5.95,3,11.05a52.1,52.1,0,0,0-10.85,12.05c-4.5-1.56-9.08-2.59-11-1.2-4.26,3.12-7.09,17.21-6.35,19.32.42,1.19,4.19,3.51,9.06,5.4a52.29,52.29,0,0,0,1,16.83c-4,2-7.62,4.39-8,6.6-.81,5.22,7.15,17.18,9.17,18.15,1.12.53,5.26-.44,9.9-2.45a52.19,52.19,0,0,0,13,11.06c-1.42,4.26-2.27,8.46-1,10.26,3.12,4.26,17.21,7.09,19.32,6.35,1.19-.42,3.52-4.21,5.42-9.1a52,52,0,0,0,16.54-1.56c2.07,4.25,4.56,8.16,6.87,8.52,5.22.81,17.19-7.16,18.15-9.18.58-1.2-.62-6-3-11.11a52.63,52.63,0,0,0,10.09-12.26c4.75,1.71,9.76,3,11.77,1.48C257.88,88.52,260.71,74.43,260,72.32ZM189.3,85.59a23.52,23.52,0,1,1,29.69-15A23.52,23.52,0,0,1,189.3,85.59Z"/><path class="cls-15" d="M186.53,94.61a33.47,33.47,0,1,1,42.26-21.35A33.5,33.5,0,0,1,186.53,94.61Zm20.75-63.15a33,33,0,1,0,21.05,41.65A33,33,0,0,0,207.28,31.46Z"/><path class="cls-15" d="M245.14,68.44l-.6-.29a48,48,0,0,1-94.48,6.17h0q-.33,0-.66-.09a48.61,48.61,0,0,0,95.74-5.79Z"/><path class="cls-15" d="M180.75,18.2a47.71,47.71,0,0,1,31-.4l.61.22q0-.33,0-.66l-.41-.15a48.39,48.39,0,0,0-31.31.35C180.7,17.77,180.73,18,180.75,18.2Z"/><path class="cls-9" d="M310.13,324.14H196.57c0-24.86,9.65-45,34.5-45h44.56c24.85,0,34.5,20.14,34.5,45Z"/><rect class="cls-12" x="176.01" y="324.14" width="154.69" height="24.5"/><path class="cls-14" d="M263.29,287.38l-11.66,2.86c-9.61,2.36-17-.54-21.77-13.19C183.44,153.64,183.4,87.67,183.4,87.67A18.05,18.05,0,0,1,196.59,65.9L208.25,63c5.77-1.42,9.72-.2,13.6,3.29a26.36,26.36,0,0,1,8.44,18c3.8,59.3,46.19,181.33,46.19,181.33A18.05,18.05,0,0,1,263.29,287.38Z"/><path class="cls-12" d="M331.16,114.87c.38-9.8.94-15.65,6.31-24.83-30.88-8.49-71.75-22.37-129.79-28.74-13.45-1.45-19.37,3.82-21.61,13.46l-2.72,11.69a18.07,18.07,0,0,0,13.46,21.61s75.76-4.74,135.58,10.66C331.3,112.47,330.93,121.1,331.16,114.87Z"/><path class="cls-14" d="M354.54,92.53A50.19,50.19,0,0,1,339,116.84c-.82.68-1.66,1.31-2.5,1.91,16.37,13,45.27,37,70.66,63.27a66,66,0,0,1,13-18.35A827.15,827.15,0,0,0,354.54,92.53Z"/><circle class="cls-14" cx="253.35" cy="272.55" r="28.09" transform="translate(-118.52 258.97) rotate(-45)"/><circle class="cls-12" cx="206.35" cy="84.55" r="28.09" transform="translate(-10.95 34.46) rotate(-9.3)"/><circle class="cls-18" cx="206.35" cy="84.55" r="21.51" transform="translate(-10.93 34.38) rotate(-9.28)"/><circle class="cls-19" cx="253.35" cy="272.55" r="21.51"/><circle class="cls-12" cx="341.47" cy="106.06" r="21.38" transform="translate(44.43 305.1) rotate(-51.08)"/><circle class="cls-20" cx="341.47" cy="106.06" r="16.37" transform="translate(25.02 272.52) rotate(-45)"/><polygon class="cls-13" points="425.08 164.9 455.96 161.86 469.67 189.77 466.34 197.66 450.69 175.45 424.68 175.53 425.08 164.9"/><polygon class="cls-13" points="401.72 182.75 385.98 207.02 402.98 232.84 410.64 234.08 399 209.56 409.38 187.74 401.72 182.75"/><polygon class="cls-13" points="415.68 190.09 436.21 224.87 442.66 221.88 427.99 180.72 422.77 188.92 415.68 190.09"/><path class="cls-9" d="M418.67,160.68c-5.33,5.14-11.79,8.73-19,11.46a19.1,19.1,0,1,0,19-11.46Z"/><path class="cls-14" d="M150,348.89s.81,1.13,4.64,2.11c.85.21,1.76.36,1.76,1.75h-3.79l-3.87-.67v.67h-2.09s-.58-3.42.64-3.86Z"/><path class="cls-21" d="M150.17,346.44l-.19,2.45h0a2.37,2.37,0,0,1-2.57.09l-.14-.09v-2.45Z"/><path class="cls-14" d="M130.56,349.38s.81,1.13,4.64,2.11c.85.21,1.76.36,1.76,1.75h-3.79l-3.87-.67v.67h-2.09s-.58-3.42.64-3.86Z"/><path class="cls-21" d="M130.75,346.93l-.19,2.45h0a2.37,2.37,0,0,1-2.57.09l-.14-.09v-2.45Z"/><path class="cls-14" d="M151.72,286.08l-.95,61.69h-4.49s-6.84-49.81-5.38-61.69S151.72,286.08,151.72,286.08Z"/><path class="cls-22" d="M147,286.06s-1.57,19-5.16,29.45-10.09,32.26-10.09,32.26h-4.65s7.77-45.5,6-61.71H147Z"/><path class="cls-23" d="M151,254.66s5.54,12.92,6.94,12.92c1.13,0-.42-10.55-.42-10.55h4.64s5.83,18.08,1.19,21.38-14.83-9.35-14.83-9.35Z"/><path class="cls-21" d="M134.5,287.7l1.68,4.15c.81,1.63,3.78,1.68,5.75,1.16a.4.4,0,0,0,.19-.67,55.46,55.46,0,0,0-4.87-4.92Z"/><path class="cls-24" d="M148.54,252s2.9,2,2.9,4.22v29.85h-17V258.15s.35-6.21,6.42-6.21S148.54,252,148.54,252Z"/><polygon class="cls-25" points="151.16 286.08 151.16 259.26 151.72 259.28 151.72 286.08 151.16 286.08"/><path class="cls-26" d="M142.4,245.33v7a4.3,4.3,0,0,0,3.28,1.6c2.12,0,2.12-1.52,2.12-1.52v-4.51l-3.13-.82Z"/><path class="cls-21" d="M148.07,249.28a2.65,2.65,0,0,0,1.57-.41c1.88-3-.26-11.06-.26-11.06L142.56,239l-.22,5.4a4.56,4.56,0,0,0,1.71,3.73h0A7.26,7.26,0,0,0,148.07,249.28Z"/><path class="cls-14" d="M145.77,239.17a14.66,14.66,0,0,0,4.64,0c2.38-.42.86-3,.86-3a9.27,9.27,0,0,1-4.89.34c-2.12-.31-2.68-.72-4,0-1.84,1-1.39,4.31-1.39,4.31l1,7h.38s.09-4.18.09-5.61c.4-.65.83-.65,1.17-.49a1.07,1.07,0,0,1,.56,1V250s4.65,2,5.84,1.64.39-5.78.39-5.78a2.17,2.17,0,0,0-2.42.6c-1.05,1.17-2.32,0-2.32,0Z"/><path class="cls-21" d="M161.29,257l-.16-.89a7.44,7.44,0,0,0-4.15-5.07h-2l.61,4.21L158.4,257Z"/><path class="cls-21" d="M143,241.53a1.2,1.2,0,0,1,1.13,1.12,1,1,0,0,1-.78,1.27,1.18,1.18,0,0,1-1.12-1.11C142.14,242.14,142.48,241.57,143,241.53Z"/><path class="cls-21" d="M156.43,254.81l3.84,2.22s-2.41,0-2.45,0l-4.06-3.4s.3-.59,1.22-.09A4.59,4.59,0,0,1,156.43,254.81Z"/><path class="cls-27" d="M136.29,253.81s-9.59,10.65-9.59,17,7.78,17.63,7.78,17.63l3.85-1.13s-3.47-13.92-3.47-17.62,7.12-9.13,7.12-9.13"/><path class="cls-25" d="M135.14,269.72c0,3.19,2.82,14.84,3.48,17.56l-.57.14c-.81-3.35-3.47-14.57-3.47-17.7,0-3.8,6.94-9.13,7.23-9.35l.34.44C142.08,260.87,135.14,266.2,135.14,269.72Z"/><path class="cls-28" d="M153.86,247.84a10.17,10.17,0,0,0,1.76,7.44,1.15,1.15,0,0,0,.72.4,2.81,2.81,0,0,0,1.32-.22,1.23,1.23,0,0,0,.8-.58.51.51,0,0,0-.05-.55c-.52-.77-2.11-3.42-1.39-5.76A4.16,4.16,0,0,0,153.86,247.84Z"/><path class="cls-29" d="M158,255.31a.77.77,0,0,0,.44-.43.51.51,0,0,0-.05-.55c-.52-.77-2.11-3.42-1.39-5.76a3.44,3.44,0,0,0-1.5-.69C155.44,250.45,156,252.17,158,255.31Z"/><path class="cls-28" d="M156.14,251.24c.12.59.41,1,.64,1s.32-.56.2-1.15-.41-1-.64-1S156,250.65,156.14,251.24Z"/><polygon class="cls-28" points="156.29 250.1 156.54 250.05 156.52 250.17 156.36 250.23 156.29 250.1"/><polygon class="cls-30" points="156.72 252.23 157.02 252.17 156.68 252.12 156.72 252.23"/><path class="cls-17" d="M156.34,251.2c.12.59.4,1,.64,1s.32-.56.2-1.15-.41-1-.64-1S156.22,250.61,156.34,251.2Z"/><path class="cls-17" d="M152.83,244.37h-.46a1.54,1.54,0,0,0-1.57,1.5v1.19a1.55,1.55,0,0,0,1.57,1.51h.46Z"/><path class="cls-14" d="M166.72,245.55c0,3.26-.75,5.9-1.68,5.9s-1.67-2.64-1.67-5.9.75-5.91,1.67-5.91S166.72,242.29,166.72,245.55Z"/><polygon class="cls-15" points="163.3 243.37 164.62 244.23 164.62 246.14 163.25 247.38 162.78 244.9 163.3 243.37"/><path class="cls-16" d="M163.37,245.55c0-2.74.53-5,1.25-5.71h0a27,27,0,0,1-12.05,4.57v4.16s8.8-.49,12.05,2.69h0C163.9,250.59,163.37,248.29,163.37,245.55Z"/><path class="cls-17" d="M164.8,245.18c0,.53-.08,1-.18,1s-.18-.43-.18-1,.08-1,.18-1S164.8,244.65,164.8,245.18Z"/><path class="cls-21" d="M159.16,254a4.41,4.41,0,0,1-2.15.35c-1.11,0-1.61-1.37-1.8-2.11-.07-.27-.13-.64.2-.81l1.79-.24Z"/><polygon class="cls-17" points="262.59 352.54 218.39 215.13 220.91 215.13 265.11 352.54 262.59 352.54"/><polygon class="cls-17" points="239.74 352.54 195.54 215.13 198.05 215.13 242.25 352.54 239.74 352.54"/><polygon class="cls-17" points="232.36 250.82 232.36 252.87 208.68 252.85 208.27 250.81 232.36 250.82"/><polygon class="cls-17" points="227.46 237.5 227.46 239.55 203.78 239.54 203.38 237.49 227.46 237.5"/><polygon class="cls-17" points="223.41 224.19 223.41 226.24 199.73 226.23 199.33 224.18 223.41 224.19"/><polygon class="cls-17" points="236.67 264.3 236.67 266.35 212.99 266.34 212.59 264.29 236.67 264.3"/><polygon class="cls-17" points="240.72 277.79 240.72 279.84 217.04 279.82 216.63 277.78 240.72 277.79"/><polygon class="cls-17" points="244.91 291.8 245.87 293.85 222.18 293.83 221.78 291.79 244.91 291.8"/><polygon class="cls-17" points="249.35 305.81 250.31 307.86 226.62 307.85 226.22 305.8 249.35 305.81"/><polygon class="cls-17" points="253.51 319.51 254.46 321.56 230.78 321.54 230.38 319.5 253.51 319.51"/><polygon class="cls-17" points="256.95 333.5 257.91 335.55 234.23 335.54 233.82 333.49 256.95 333.5"/><polygon class="cls-14" points="152.42 352.54 196.62 215.13 194.1 215.13 149.9 352.54 152.42 352.54"/><polygon class="cls-14" points="175.27 352.54 219.47 215.13 216.96 215.13 172.76 352.54 175.27 352.54"/><polygon class="cls-14" points="182.65 250.82 182.65 252.87 206.33 252.85 206.74 250.81 182.65 250.82"/><polygon class="cls-14" points="187.55 237.5 187.55 239.55 211.23 239.54 211.63 237.49 187.55 237.5"/><polygon class="cls-14" points="191.6 224.19 191.6 226.24 215.28 226.23 215.68 224.18 191.6 224.19"/><polygon class="cls-14" points="178.34 264.3 178.34 266.35 202.02 266.34 202.42 264.29 178.34 264.3"/><polygon class="cls-14" points="174.29 277.79 174.29 279.84 197.97 279.82 198.38 277.78 174.29 277.79"/><polygon class="cls-14" points="170.1 291.8 169.15 293.85 192.83 293.83 193.23 291.79 170.1 291.8"/><polygon class="cls-14" points="165.66 305.81 164.71 307.86 188.39 307.85 188.79 305.8 165.66 305.81"/><polygon class="cls-14" points="161.5 319.51 160.55 321.56 184.23 321.54 184.63 319.5 161.5 319.51"/><polygon class="cls-14" points="158.06 333.5 157.1 335.55 180.78 335.54 181.19 333.49 158.06 333.5"/><polygon class="cls-14" points="392.67 175.41 421.64 155.77 425.08 163.86 397.99 181.1 392.67 175.41"/><path class="cls-31" d="M53.56,282.16a5.28,5.28,0,1,1-5.28-5.28A5.28,5.28,0,0,1,53.56,282.16Z"/><path class="cls-32" d="M85.11,282.16a5.28,5.28,0,1,1-5.28-5.28A5.28,5.28,0,0,1,85.11,282.16Z"/><path class="cls-33" d="M117.41,282.16a5.28,5.28,0,1,1-5.27-5.28A5.28,5.28,0,0,1,117.41,282.16Z"/><path class="cls-34" d="M368.51,282.16a5.28,5.28,0,1,1-5.28-5.28A5.29,5.29,0,0,1,368.51,282.16Z"/><path class="cls-35" d="M400.06,282.16a5.28,5.28,0,1,1-5.28-5.28A5.29,5.29,0,0,1,400.06,282.16Z"/><path class="cls-36" d="M432.36,282.16a5.28,5.28,0,1,1-5.28-5.28A5.28,5.28,0,0,1,432.36,282.16Z"/><path class="cls-37" d="M465.7,282.16a5.28,5.28,0,1,1-5.27-5.28A5.28,5.28,0,0,1,465.7,282.16Z"/><path class="cls-38" d="M497.26,282.16a5.28,5.28,0,1,1-5.28-5.28A5.29,5.29,0,0,1,497.26,282.16Z"/><path class="cls-39" d="M529.56,282.16a5.28,5.28,0,1,1-5.28-5.28A5.28,5.28,0,0,1,529.56,282.16Z"/><rect class="cls-14" x="28" y="287.59" width="9" height="46.95"/><rect class="cls-14" x="15" y="334.54" width="161" height="10.08"/><rect class="cls-14" x="544.2" y="287.59" width="9" height="46.95" transform="translate(1097.4 622.12) rotate(180)"/><polygon class="cls-26" points="68.59 229.67 61.24 248.88 56.61 245.43 66.96 227.97 68.59 229.67"/><path class="cls-26" d="M67.68,223.86a3,3,0,0,0-.66,2l-.33,2.77.38.43,1.3,1.15c0-.57-.11,0-.11,0l2.09-3.64s2.53-1.62-.66-4a.92.92,0,0,0-1-.07A2.36,2.36,0,0,0,67.68,223.86Z"/><path class="cls-9" d="M52.37,262.75a120.35,120.35,0,0,0,8.87-13.88l-4-4.53L52.37,250Z"/><path class="cls-26" d="M40.88,346l2.35.41c.48-2.9,7.76-16.67,8.35-23.82a162.26,162.26,0,0,1,2.5-16.77l-7.83-2.33s-2,0,.2,16.18C41.55,326.09,40.24,340.68,40.88,346Z"/><path class="cls-21" d="M46.65,297.61s1.84,11.06,4.4,22.9c-2.67,7.14,1.4,27.08,1.47,27,.31-.29,1.72,1.45,1.72,1.45s3-17.6,3.62-25.54.82-17.61.82-17.61Z"/><path class="cls-12" d="M52.19,346.41a2.62,2.62,0,0,0-.91,2.15c.2,1.2.49,4,.49,4h1.15l0-2.63c0-.17,2.46,2.63,2.88,2.63h6.06s.4-1.77-3.16-2.34S52.19,346.41,52.19,346.41Z"/><path class="cls-26" d="M43.49,344.4l-.16,2.51a2.39,2.39,0,0,0,.41,1.49,9.53,9.53,0,0,0,1.83,1.89c-1.76.57-3.36-1.4-4.2-2.71a3.13,3.13,0,0,1-.45-2.15l.29-2Z"/><path class="cls-14" d="M40.88,345.78s-1.54.14-1.8,1.32-1,3.55-1,3.55l.85.68L40.13,349a34.62,34.62,0,0,0,3,3.61h6.62s0-2.19-4.14-2.29C41.75,350.2,40.88,345.78,40.88,345.78Z"/><polygon class="cls-21" points="76.32 228.74 68.97 247.95 64.33 244.5 74.69 227.04 76.32 228.74"/><path class="cls-21" d="M75.41,222.93a2.93,2.93,0,0,0-.67,2l-.32,2.77.37.43,1.31,1.15c0-.57-.12,0-.12,0l2.1-3.64s2.52-1.62-.66-4a.92.92,0,0,0-1-.07A2.33,2.33,0,0,0,75.41,222.93Z"/><polygon class="cls-26" points="54.08 252.66 49.34 252.66 51.24 247.09 54.94 249.36 54.08 252.66"/><path class="cls-13" d="M60.38,258.64c0-.14-.06-.25-.09-.38C65,252.21,69,248,69,248l-4-4.54L55.92,252H53.26a5.33,5.33,0,0,0-6.73.87c-1.15,1.18-1.91,4.39-1.15,7.78,2.11,9.34.46,14.28.46,14.28l12.22,4.56s.28-8.13.47-13.82v0a6.29,6.29,0,0,1,1-3.12A5.6,5.6,0,0,0,60.38,258.64Z"/><path class="cls-21" d="M55.75,237.08,48,239.8l.76,5.8a2,2,0,0,1,0,.24c.15,0,.3,0,.45.09l.07,0,.07,0A5.32,5.32,0,0,1,53,249.6a9.1,9.1,0,0,0,3.37,0,3.44,3.44,0,0,0,1.76-.76C59.78,245.22,55.75,237.08,55.75,237.08Z"/><path class="cls-14" d="M55.57,242c-2.09,1-1.6,11.81-2,19.15a8.35,8.35,0,0,1-7.06,7.8c-2.77.44-5.81.52-7.65-.52,1.22-1,7.75-10.61,5.66-23.34-.28-1.68-.31-6.34,2.51-8.88,3.14-2.81,9.6.86,9.6.86S58.44,240.61,55.57,242Z"/><path class="cls-17" d="M58.31,274.67s1.63,8.28,1.63,13.21c0,2.7-.66,19.75-.66,19.75s-11.61.84-13.87.84c-.56-14-3.75-14.4-3.75-20.92,0-2.83,1.46-6,2.57-8.07A11.83,11.83,0,0,0,45.84,275l.08-.27Z"/><polygon class="cls-21" points="373.24 260.24 378.46 270.07 372.71 269.79 372.31 259.92 373.24 260.24"/><polygon class="cls-15" points="365.05 255.88 369.87 255.88 371.87 287.04 363.23 287.04 365.05 255.88"/><path class="cls-12" d="M356.2,347.36a2.52,2.52,0,0,0-1,2.13c.22,1.2.53,4,.53,4H357l0-2.61c0-.17,2.62,2.61,3.07,2.61h6.48s.43-1.76-3.37-2.32S356.2,347.36,356.2,347.36Z"/><path class="cls-21" d="M359,346.17l.88,2.29a3,3,0,0,0,1.2,1.52,11.58,11.58,0,0,0,3,1.37c-1.76,1.51-4.57-.06-6.17-1.17a4,4,0,0,1-1.57-2.28l-.37-1.73Z"/><path class="cls-12" d="M368.55,347.36a2.52,2.52,0,0,0-1,2.13c.22,1.2.53,4,.53,4h1.23l0-2.61c0-.17,2.62,2.61,3.07,2.61h6.48s.43-1.76-3.37-2.32S368.55,347.36,368.55,347.36Z"/><path class="cls-21" d="M371.36,346.17l.87,2.29a3,3,0,0,0,1.2,1.52,11.58,11.58,0,0,0,3,1.37c-1.76,1.51-4.57-.06-6.17-1.17a4,4,0,0,1-1.57-2.28l-.37-1.73Z"/><path class="cls-13" d="M361.35,287s-.81,4.66,3.85,27.55c-3.77,11.93,2.26,31.89,2.26,31.89h4.41l3-59.44Z"/><path class="cls-40" d="M369.34,255.88l1.56,37.81,5.18-2.21a55.78,55.78,0,0,1-2.11-17c-.79-7.13,3.25-3.38-1.7-17.1C370.42,255.88,369.34,255.88,369.34,255.88Z"/><path class="cls-26" d="M370,252l-.6,3.19a2,2,0,0,1-3.07,1.34l-2.13-1.34,3.8-8.58Z"/><path class="cls-5" d="M357.11,287s-5.76,4.66-1.11,27.55c-3.77,11.93-.44,31.89-.44,31.89h3.95L370.63,287Z"/><path class="cls-40" d="M365.05,252.68s-4.87,2.74-6.38,5.18-1.94,7.62-2.08,12.34c-.19,6.48-3.32,23.49-3.32,23.49h13.05l.32-37Z"/><path class="cls-14" d="M374.65,242.42c-2.95-.75-5.79,2.27-5.79,2.27l-2.22,12-3.41-5.26s-.2-7.15,3.1-11.89c2.37-2.86,6.9-2,9.2.75a7.07,7.07,0,0,1,1.24,4.95c-.15,2.31-.8,15.59-.8,15.59l-6.76-5a31.52,31.52,0,0,1,.8-3.8C371.13,247.75,376.63,242.92,374.65,242.42Z"/><path class="cls-21" d="M368,244.51a1.07,1.07,0,0,1,1.26.66.93.93,0,0,1-.32,1.3,1.07,1.07,0,0,1-1.26-.66A.92.92,0,0,1,368,244.51Z"/><path class="cls-21" d="M371.15,252.54a2.34,2.34,0,0,0,1.44.19c2.57-1.86,3.49-9.29,3.49-9.29l-2-2.16-4.05.89-2,4.42a4.11,4.11,0,0,0,.16,3.68h0A6.56,6.56,0,0,0,371.15,252.54Z"/><path class="cls-14" d="M375.33,242.26c-.21,2.25-6.47,2.43-6.47,2.43l-.32-3,3.64-2,2.89,1.74A2,2,0,0,1,375.33,242.26Z"/><path class="cls-14" d="M375.19,242.7a4.24,4.24,0,0,0,.64,2.29l.5-.9v-.77l-.5-.61S375.4,241.86,375.19,242.7Z"/><path class="cls-21" d="M360,257.86c-6.32.74-3.33,17-2,23.71a2.84,2.84,0,0,0,3.62,2.15c5.49-1.74,13.52-8.93,13.52-8.93l-1.27-1.6-10.66,2.49S367.32,257,360,257.86Z"/><path class="cls-9" d="M372.63,269.36l-2.06,12.76a.61.61,0,0,0,.6.71h8.16a.61.61,0,0,0,.6-.51l2-12.77a.61.61,0,0,0-.6-.7h-8.12A.61.61,0,0,0,372.63,269.36Z"/><path class="cls-21" d="M381.69,275a5.56,5.56,0,0,0-.14-1.66c-.2-1.2-.15-3.09-1.38-2.15a6.13,6.13,0,0,0-1.3,3,3.61,3.61,0,0,0,.78,2.7l.84,1.85A5.35,5.35,0,0,0,381.69,275Z"/><path class="cls-41" d="M376.35,273.81a.62.62,0,1,0,.62-.62A.62.62,0,0,0,376.35,273.81Z"/><path class="cls-12" d="M166.67,204.26l2.17,5.73c.18.81.21,1.77-.62,2.24a7.19,7.19,0,0,1-1.14.52c-.39-.08-2.9-7.83-2.9-7.83l0,0A2.05,2.05,0,0,1,166.67,204.26Z"/><polygon class="cls-14" points="167.08 212.75 164.18 204.92 163.8 205.14 166.72 212.9 167.08 212.75"/><polygon class="cls-15" points="167.53 206.53 167.72 207.04 166.72 207.24 166.53 206.74 167.53 206.53"/><polygon class="cls-15" points="167.95 207.63 168.14 208.15 167.14 208.34 166.95 207.84 167.95 207.63"/><path class="cls-21" d="M169.07,202.9l-2.4,1.36h0a1.53,1.53,0,0,0,.53,1.55l.08.07,2.66-.68Z"/><path class="cls-14" d="M188.27,166.69a13.86,13.86,0,0,0-3,7.09c-.41,3,.72,7.78.84,11.52a9.64,9.64,0,0,1-4.14,8.23l-12.9,9.37.87,2.3s17.65-2.65,22.29-10.56S198,168.83,198,168.83Z"/><path class="cls-21" d="M178,157l-6.63,14.82s-2.73.31-3.91,1.36a2.82,2.82,0,0,0-.42,2.56.91.91,0,0,0,1.5.52,6.23,6.23,0,0,1,2.28-1.44,2.77,2.77,0,0,0,2.13-1.44l9.52-14.92Z"/><path class="cls-21" d="M211.46,127.16l3.4-2.91-2.64-14.36-4.09-2.09a1.2,1.2,0,0,1,1.46-.46,3.72,3.72,0,0,0,1.86.14s.77-1-.68-1.59c-.82-.55-1.36,0-3.73-.09,0-.37,3.12-1.23,3.12-1.23,1-.31,3.45,1.61,3.45,1.61a1.79,1.79,0,0,1,.31.77l.39,2.67s5.27,14.45,5.27,16-3,3.66-3,3.66Z"/><path class="cls-12" d="M193.18,168.19s-2,2.46-.82,8.18c.79,3.66,4.23,8.26,6.54,11.43,1.65,2.27,1.69,5.13,1.19,7.89-1.89,10.52,1.14,23.36,1.14,23.36h2.45s3.68-18.82,4.77-32a38.11,38.11,0,0,0-4.23-20.86Z"/><rect class="cls-16" x="209.76" y="102.93" width="2.06" height="7.79" transform="translate(74.49 299.88) rotate(-81.65)"/><rect class="cls-15" x="213.7" y="107.05" width="2.06" height="0.71" transform="matrix(0.15, -0.99, 0.99, 0.15, 77.29, 304.27)"/><path class="cls-14" d="M214.79,108.46c.56.07,1,0,1.17-.88s-.31-1.1-.87-1.19Z"/><polygon class="cls-15" points="206.78 107.28 205.29 106.38 205.4 105.64 207.08 105.25 206.78 107.28"/><polygon class="cls-12" points="205.29 106.38 204.64 105.91 205.4 105.64 205.29 106.38"/><rect class="cls-42" x="210.35" y="103.52" width="0.47" height="7.53" transform="translate(73.9 300.08) rotate(-81.66)"/><rect class="cls-42" x="210.5" y="102.54" width="0.47" height="7.53" transform="matrix(0.15, -0.99, 0.99, 0.15, 74.99, 299.39)"/><path class="cls-13" d="M187.16,139.12c-4.39,3.22-9.55,18.7-9.55,18.7l3.85,2.16,6.27-8.6s.61,10-.89,17.59c.68,2.86,3.93,2.54,9.2,1.54a26.14,26.14,0,0,0,8.73-3.27s.23-13.81.91-21.13-.67-8.11,1.18-7.86c4.12-2.34,10.87-9.87,10.87-9.87l-6.27-1.22-13.5,7.9A58,58,0,0,0,187.16,139.12Z"/><path class="cls-21" d="M194.81,120.8l3.25,3.22a5.62,5.62,0,0,1,1.55,5.24l-.38,1.72Z"/><path class="cls-17" d="M190.86,119.58c-7.9,0-4.54,15.18-4.54,15.18s1.41,9.85,4.54,13.8c2.72,3.42,8.09,2.4,10.63.75a9.65,9.65,0,0,1,4.11-1.51c2.15-.26,4.71-1.21,4.71-5.1,0-3.66-4.36-6.49-7.24-8.51a9.44,9.44,0,0,1-3.72-5.51C198.43,124.94,196.18,119.58,190.86,119.58Z"/><path class="cls-12" d="M201.65,221.78h6.13c.81.11,1.73.42,1.88,1.36a8.31,8.31,0,0,1,.09,1.25c-.22.34-8.35,0-8.35,0l0,0A2,2,0,0,1,201.65,221.78Z"/><polygon class="cls-12" points="209.75 224.38 201.4 224.33 201.47 224.77 209.76 224.77 209.75 224.38"/><polygon class="cls-15" points="204.07 221.77 204.63 221.77 204.46 222.78 203.92 222.78 204.07 221.77"/><polygon class="cls-15" points="205.26 221.77 205.81 221.77 205.64 222.78 205.1 222.78 205.26 221.77"/><path class="cls-21" d="M201.23,219.05l.42,2.73h0a1.54,1.54,0,0,0,1.64.05l.09-.06.3-2.72Z"/><path class="cls-21" d="M209.59,107.34a1.2,1.2,0,0,0-1.46.46l2.72,1.39.12,0a13.56,13.56,0,0,1,1.8-.66A22.94,22.94,0,0,0,209.59,107.34Z"/><path class="cls-22" d="M519.24,349h-9.37c-1.24.13-2.63.49-2.86,1.56a6.7,6.7,0,0,0-.14,1.43c.34.39,12.75-.05,12.75-.05l0,0A2,2,0,0,0,519.24,349Z"/><polygon class="cls-14" points="506.87 352.01 519.62 351.96 519.51 352.45 506.86 352.45 506.87 352.01"/><polygon class="cls-15" points="515.53 349.02 514.69 349.03 514.95 350.18 515.77 350.18 515.53 349.02"/><polygon class="cls-15" points="513.72 349.02 512.88 349.03 513.14 350.18 513.96 350.18 513.72 349.02"/><path class="cls-21" d="M519.88,345.91l-.64,3.12h0a3,3,0,0,1-2.51.06l-.15-.06-.45-3.12Z"/><path class="cls-14" d="M541.12,349h-9.36c-1.25.13-2.64.49-2.87,1.56a6.33,6.33,0,0,0-.13,1.43c.33.39,12.74-.05,12.74-.05l.06,0A2,2,0,0,0,541.12,349Z"/><polygon class="cls-14" points="528.75 352.01 541.5 351.96 541.39 352.45 528.74 352.45 528.75 352.01"/><polygon class="cls-15" points="537.41 349.02 536.57 349.03 536.83 350.18 537.65 350.18 537.41 349.02"/><polygon class="cls-15" points="535.61 349.02 534.76 349.03 535.02 350.18 535.84 350.18 535.61 349.02"/><path class="cls-21" d="M540.71,345.91l.41,3.12h0a3,3,0,0,1-2.51.06l-.14-.06-1.5-3.12Z"/><path class="cls-21" d="M526.74,241l7.71,5-2.38,6.09a1.92,1.92,0,0,1-.12.25l-.51,0h-.16a5.94,5.94,0,0,0-4.91,3,10.31,10.31,0,0,1-3.64-.94,3.84,3.84,0,0,1-1.72-1.3C520.19,248.81,526.74,241,526.74,241Z"/><path class="cls-21" d="M516.93,242.62s-.94,8.95,1,14.65c-.88.76-4.12,4.23-5.14-.27s1.14-16,1.14-16Z"/><polygon class="cls-14" points="521.56 241.98 523.37 243.15 522.73 244.51 520.78 243.65 521.56 241.98"/><path class="cls-14" d="M522.63,243.61c-.18.42-.2.81,0,.88s.45-.2.63-.61.19-.81,0-.89S522.81,243.2,522.63,243.61Z"/><path class="cls-12" d="M499.67,235.38a.11.11,0,0,0,0,0,19.42,19.42,0,0,1,1.76-3.15,15.41,15.41,0,0,0,1.68-2.75l18.74,12.26L520.62,244l-20.95-7.74A6.17,6.17,0,0,0,499.67,235.38Z"/><polygon class="cls-26" points="528.44 255.37 529.12 259.58 523.15 259.58 522.73 254.43 528.44 255.37"/><path class="cls-21" d="M513.05,265.81s-7-2.24-9.25-5.25S505.33,241,505.33,241l-.48-3a2.75,2.75,0,0,1,2.7-3.2l1.88,0a1.07,1.07,0,0,1,1,1.51L508,241.93s-1.86,12.5.74,13.44a29,29,0,0,0,6.62,1.37Z"/><path class="cls-14" d="M526.27,255.37l1.82-4-1.18-.74A2.22,2.22,0,0,1,526,248l1.29-3.79s-3.67-.45-3.56-3.86c0-1.76,2.42-1.77,2.42-1.77a3.55,3.55,0,0,0,3,1.76c1-.12,3.61.23,5.39,3.35,1.21,2.1.68,5.38-.37,7.85-.93,2.21-3.33,3.44-5.7,3.8Z"/><path class="cls-9" d="M533.43,289.11A132.18,132.18,0,0,1,531.21,307a15.91,15.91,0,0,0,.55,8.21c4.2,12.49,10.09,31.27,10.09,31.27h-5.24s-11.88-22.2-14.94-33.21-3.58-14.5-3.58-14.5l3.64-9.62Z"/><path class="cls-21" d="M529.06,249.49a1.7,1.7,0,0,1-1,1.87c-.76.4-1.54.21-1.76-.42a1.7,1.7,0,0,1,1-1.87C528.06,248.66,528.84,248.85,529.06,249.49Z"/><path class="cls-17" d="M516.34,289.11h17.09V267.18a9.29,9.29,0,0,0-8.44-9.26l-11.88-1.44s-1.4,2.14-5.3,7.11a40.11,40.11,0,0,0,10.1,4.22Z"/><path class="cls-13" d="M533.43,289.11s-2.41,8.74-11.32,18.54a11.42,11.42,0,0,0-3.32,8.9l1.83,29.89h-5.31s-6.49-24.82-5.09-37.05a56.16,56.16,0,0,1,6.12-20.28Z"/><path class="cls-15" d="M502.54,233.35c-.92,1.91-2.17,3.21-2.79,2.91s-.37-2.08.55-4,2.16-3.21,2.78-2.91S503.46,231.44,502.54,233.35Z"/><path class="cls-21" d="M517.67,239l-.16.07a2.34,2.34,0,0,1-1.78.11l-.11,0a3.19,3.19,0,0,1-2-2.06h0a.58.58,0,0,1,.68-.75l1.19.25a1.76,1.76,0,0,1,1.12.76Z"/><path class="cls-43" d="M206.73,101.1a17.19,17.19,0,0,1-4.17-.51l.25-1a16.25,16.25,0,0,0,5.77.37l.11,1A18.25,18.25,0,0,1,206.73,101.1Zm7.84-1.91-.46-.89a15.93,15.93,0,0,0,4.56-3.56l.75.67A17,17,0,0,1,214.57,99.19ZM197,98a17.25,17.25,0,0,1-4.31-4.38l.83-.56a16.06,16.06,0,0,0,4.06,4.12Zm25.64-7.88-.93-.35a16,16,0,0,0,1-5.69h1A16.79,16.79,0,0,1,222.61,90.15ZM190.18,88a17.06,17.06,0,0,1-.45-3.91,16.49,16.49,0,0,1,.15-2.23l1,.13a16.34,16.34,0,0,0-.14,2.1,15.69,15.69,0,0,0,.43,3.68Zm32.46-5.53A15.85,15.85,0,0,0,221,76.94l.9-.45a16.64,16.64,0,0,1,1.71,5.9Zm-30-6-.88-.48a17,17,0,0,1,3.85-4.79l.65.76A15.93,15.93,0,0,0,192.65,76.51Zm24.89-4.19a16.09,16.09,0,0,0-4.9-3.08l.37-.93a17.11,17.11,0,0,1,5.2,3.27Zm-16.28-3.25-.34-.94a17,17,0,0,1,5.8-1H207l0,1h-.24A16.1,16.1,0,0,0,201.26,69.07Z"/><polygon class="cls-4" points="61.01 110.92 64.65 118.09 57 116.34 30.81 108.09 61.01 110.92"/><polygon class="cls-5" points="64.65 118.09 51.65 117.28 54.84 115.66 64.65 118.09"/><polygon class="cls-44" points="61.01 110.92 63.28 103.94 30.81 108.09 61.01 110.92"/><polygon class="cls-45" points="30.81 108.09 57 116.34 53.1 126.41 30.81 108.09"/><path class="cls-5" d="M61.78,125.3a.6.6,0,0,0,.13-1,17.14,17.14,0,0,0-2.58-1.85.61.61,0,0,0-.62,1,16.14,16.14,0,0,1,2.39,1.73A.63.63,0,0,0,61.78,125.3Z"/><path class="cls-5" d="M52.27,192.15a.61.61,0,0,1,.21-.84A17.09,17.09,0,0,0,57,187.42a.61.61,0,1,1,.94.78,18.27,18.27,0,0,1-4.81,4.16l0,0A.6.6,0,0,1,52.27,192.15Zm7-6.86a.6.6,0,0,1-.23-.83,22.36,22.36,0,0,0,2.22-5.57.61.61,0,1,1,1.18.29,22.65,22.65,0,0,1-2.34,5.88.58.58,0,0,1-.25.24A.63.63,0,0,1,59.24,185.29Zm3.11-9.3a.62.62,0,0,1-.57-.66l0-.27a28.06,28.06,0,0,0-.3-5.75.61.61,0,1,1,1.21-.18,29,29,0,0,1,.31,6l0,.3a.58.58,0,0,1-.33.5A.66.66,0,0,1,62.35,176Zm-.85-9.81a.61.61,0,0,1-.75-.43,43.33,43.33,0,0,0-2-5.76.61.61,0,0,1,1.13-.47,46.84,46.84,0,0,1,2,5.92.63.63,0,0,1-.32.7A.42.42,0,0,1,61.5,166.18Zm-3.44-9.25a.62.62,0,0,1-.82-.28l-.22-.46q-1,.38-2,.66a.61.61,0,1,1-.33-1.18c.59-.16,1.17-.36,1.75-.57-.64-1.22-1.34-2.49-2.13-3.85a.61.61,0,0,1,.22-.83.62.62,0,0,1,.84.22c.82,1.41,1.54,2.72,2.2,4a19,19,0,0,0,2.54-1.42.61.61,0,1,1,.68,1,19.83,19.83,0,0,1-2.67,1.49c.07.13.14.27.2.4a.61.61,0,0,1-.27.82Zm4.84-5.15a.6.6,0,0,1,0-.86,15.36,15.36,0,0,0,2.23-2.9,14.93,14.93,0,0,0,1-2,.61.61,0,0,1,1.13.47,17.18,17.18,0,0,1-1.09,2.19,16.85,16.85,0,0,1-2.41,3.13.61.61,0,0,1-.16.12A.59.59,0,0,1,62.9,151.78Zm-11.62,5.75A19.09,19.09,0,0,1,45,157a.61.61,0,0,1,.3-1.18,18,18,0,0,0,5.93.46.61.61,0,0,1,.66.56.62.62,0,0,1-.56.66Zm16.33-14.27a.62.62,0,0,1-.5-.71,18.53,18.53,0,0,0,.06-6,.61.61,0,1,1,1.21-.18,19.81,19.81,0,0,1-.06,6.34.62.62,0,0,1-.71.5ZM41.36,155.68a14.56,14.56,0,0,1-1.44-.83,13.08,13.08,0,0,1-3.46-3.3.61.61,0,0,1,1-.71,11.88,11.88,0,0,0,3.13,3c.42.27.87.53,1.32.76a.62.62,0,0,1,.27.83.62.62,0,0,1-.82.26Zm11.06-7.57a22.31,22.31,0,0,0-3.78-4.66.62.62,0,0,1,0-.87.6.6,0,0,1,.86,0,23.47,23.47,0,0,1,4,4.9.62.62,0,0,1-.18.85l-.06,0A.62.62,0,0,1,52.42,148.11Zm14.67-14.62a.61.61,0,0,1-.77-.38,19.92,19.92,0,0,0-1.07-2.51,18,18,0,0,0-1.71-2.76.61.61,0,0,1,.12-.86.6.6,0,0,1,.85.12A19.64,19.64,0,0,1,66.35,130a23.22,23.22,0,0,1,1.13,2.67.61.61,0,0,1-.31.74A.2.2,0,0,1,67.09,133.49Zm-31.58,15a.62.62,0,0,1-.74-.44,6.83,6.83,0,0,1,.5-4.88,6.19,6.19,0,0,1,1-1.44.61.61,0,0,1,.88.85,5,5,0,0,0-.84,1.16,5.49,5.49,0,0,0-.4,4,.61.61,0,0,1-.32.69Zm10.23-7a8.74,8.74,0,0,0-5.63-.53.63.63,0,0,1-.75-.45.61.61,0,0,1,.45-.74,9.87,9.87,0,0,1,6.44.61.61.61,0,0,1,0,1.1A.61.61,0,0,1,45.74,141.48Z"/><path class="cls-5" d="M49.62,193.88a.63.63,0,0,0,.31-.72.62.62,0,0,0-.76-.42,13.36,13.36,0,0,1-2.87.49.6.6,0,0,0-.58.64.61.61,0,0,0,.64.58,14.72,14.72,0,0,0,3.15-.53Z"/></g></g></svg>