<svg xmlns="http://www.w3.org/2000/svg" xmlns:xlink="http://www.w3.org/1999/xlink" width="582" height="353.49" viewBox="0 0 582 353.49">
  <defs>
    <linearGradient id="linear-gradient" y1="0.5" x2="1" y2="0.5" gradientUnits="objectBoundingBox">
      <stop offset="0" stop-color="#e0f0eb"/>
      <stop offset="1" stop-color="#c0e4ef"/>
    </linearGradient>
    <linearGradient id="linear-gradient-2" x1="-1.361" y1="0.5" x2="-0.361" y2="0.5" xlink:href="#linear-gradient"/>
    <linearGradient id="linear-gradient-3" y1="0.5" x2="1" y2="0.5" gradientUnits="objectBoundingBox">
      <stop offset="0" stop-color="#f1f8f8"/>
      <stop offset="1" stop-color="#c0e4ef"/>
    </linearGradient>
    <linearGradient id="linear-gradient-4" x1="0" y1="0.5" x2="1" y2="0.5" xlink:href="#linear-gradient-3"/>
    <linearGradient id="linear-gradient-5" x1="2.716" y1="-1.93" x2="3.714" y2="-1.93" xlink:href="#linear-gradient"/>
    <linearGradient id="linear-gradient-6" x1="3.338" y1="-2.482" x2="4.336" y2="-2.482" xlink:href="#linear-gradient"/>
    <linearGradient id="linear-gradient-7" x1="0.341" y1="1.533" x2="0.549" y2="0.175" xlink:href="#linear-gradient"/>
    <linearGradient id="linear-gradient-9" x1="0.5" y1="-0.103" x2="0.5" y2="0.99" xlink:href="#linear-gradient"/>
    <linearGradient id="linear-gradient-10" x1="0.407" y1="-0.03" x2="0.621" y2="1.192" xlink:href="#linear-gradient"/>
    <linearGradient id="linear-gradient-11" x1="-16.764" y1="0.5" x2="-15.764" y2="0.5" xlink:href="#linear-gradient"/>
    <linearGradient id="linear-gradient-12" x1="-14.756" y1="0.5" x2="-13.759" y2="0.5" xlink:href="#linear-gradient"/>
    <linearGradient id="linear-gradient-13" x1="-15.293" y1="0.5" x2="-14.293" y2="0.5" gradientUnits="objectBoundingBox">
      <stop offset="0" stop-color="#c0e4ef"/>
      <stop offset="1" stop-color="#e0f0eb"/>
    </linearGradient>
    <linearGradient id="linear-gradient-16" x1="0.001" y1="0.5" x2="1" y2="0.5" xlink:href="#linear-gradient"/>
  </defs>
  <g id="Layer_2" data-name="Layer 2" transform="translate(0 0)">
    <g id="Ñëîé_1" data-name="Ñëîé 1">
      <path id="Trazado_1" data-name="Trazado 1" d="M94.27,148.43c-3.66,15.93,33.88,18,49.36,18.15a60.791,60.791,0,0,0,12.76-1.22c13.08-2.65,41.72-9.62,37.71-19.09-5.19-12.23-20.75-3.7-20.75-3.7s2-9.23-24.54-15.33-26.38,14.22-26.38,14.22S98.87,128.43,94.27,148.43Z" fill="url(#linear-gradient)"/>
      <path id="Trazado_2" data-name="Trazado 2" d="M535.1,142.32H384.5s-8.17-10.33,0-17.28c4.5-3.84,9.83-3.44,13.69-2.31a4.52,4.52,0,0,0,5.59-3.53c.91-4.25,3.73-9.81,11.84-13.09s13,1.7,15.94,6.77a2.27,2.27,0,0,0,4.1-.42c2.52-8,11.34-18.61,40.29-18.61,36.82,0,32.72,19.57,29.43,27.71a1.88,1.88,0,0,0,2.13,2.56c5.68-1.22,16.22-2.79,21,.92C535.1,130.25,535.1,142.32,535.1,142.32Z" fill="url(#linear-gradient-2)"/>
      <path id="Trazado_3" data-name="Trazado 3" d="M395.69,29.4,374.52,17.71l-10.81-2.16-8.16,1.2Z" fill="url(#linear-gradient-3)"/>
      <path id="Trazado_4" data-name="Trazado 4" d="M395.69,29.4,356.05,19.21l-.5-2.46" fill="#b0d9c8"/>
      <path id="Trazado_5" data-name="Trazado 5" d="M354.92,26.01l.05.08,1.66,6.16,38.96-2.85Z" fill="#63c1c5"/>
      <path id="Trazado_6" data-name="Trazado 6" d="M347.35,22.4,353,17.81l42.44,11.52-36.53-1.08Z" fill="url(#linear-gradient-4)"/>
      <path id="Trazado_7" data-name="Trazado 7" d="M258.17,101A30.631,30.631,0,0,0,262,99.29a.58.58,0,0,1,.77.25.56.56,0,0,1-.24.77,30,30,0,0,1-4,1.72q-.74.27-1.47.48a.54.54,0,0,1-.51-.09.51.51,0,0,1-.21-.29.58.58,0,0,1,.38-.72C257.23,101.27,257.7,101.11,258.17,101Z" fill="#63c1c5"/>
      <path id="Trazado_8" data-name="Trazado 8" d="M335.76,18.11c1.8.23,3.67.53,5.72.9a.59.59,0,0,1,.47.68.58.58,0,0,1-.68.46c-2-.38-3.88-.67-5.65-.9a.5.5,0,0,1-.27-.11.57.57,0,0,1,.41-1Z" fill="#63c1c5"/>
      <path id="Trazado_9" data-name="Trazado 9" d="M326.16,18.55a.6.6,0,0,1-.24-.46.58.58,0,0,1,.57-.58c1.85,0,3.81.06,5.81.23a.58.58,0,1,1-.1,1.15c-2-.17-3.88-.24-5.7-.23a.55.55,0,0,1-.34-.11Z" fill="#63c1c5"/>
      <path id="Trazado_10" data-name="Trazado 10" d="M269.29,94a.57.57,0,0,1,.81,0,.58.58,0,0,1,0,.82,32.329,32.329,0,0,1-4.55,3.69.56.56,0,0,1-.66,0,.35.35,0,0,1-.13-.14.58.58,0,0,1,.15-.8A30.511,30.511,0,0,0,269.29,94Z" fill="#63c1c5"/>
      <path id="Trazado_11" data-name="Trazado 11" d="M271.66,92.32a.57.57,0,0,1-.08-.81c.33-.4.64-.81.95-1.22a29.339,29.339,0,0,0,2.21-3.46.58.58,0,1,1,1,.55,30.427,30.427,0,0,1-2.3,3.6c-.31.43-.64.85-1,1.26a.57.57,0,0,1-.79.09Z" fill="#63c1c5"/>
      <path id="Trazado_12" data-name="Trazado 12" d="M276.51,84.52a.35.35,0,0,1-.12-.07.56.56,0,0,1-.19-.68,40.587,40.587,0,0,0,1.8-5.39.572.572,0,0,1,1.11.28,38.841,38.841,0,0,1-1.8,5.55.58.58,0,0,1-.8.31Z" fill="#63c1c5"/>
      <path id="Trazado_13" data-name="Trazado 13" d="M291.78,35.37c-.48.59-.94,1.19-1.39,1.79-.68.92-1.33,1.87-1.93,2.83a.58.58,0,0,1-.8.18h0a.58.58,0,0,1-.15-.77c.62-1,1.28-1.95,2-2.89.46-.62.94-1.24,1.43-1.84a.56.56,0,0,1,.81-.08.57.57,0,0,1,.03.78Z" fill="#63c1c5"/>
      <path id="Trazado_14" data-name="Trazado 14" d="M286.76,42.94a41.853,41.853,0,0,0-2.28,5.2.59.59,0,0,1-.74.35l-.15-.08a.59.59,0,0,1-.2-.66,43.513,43.513,0,0,1,2.35-5.34.58.58,0,0,1,.78-.24.56.56,0,0,1,.24.77Z" fill="#63c1c5"/>
      <path id="Trazado_15" data-name="Trazado 15" d="M298.21,29A49.351,49.351,0,0,0,294,32.82a.58.58,0,0,1-.76.07h0a.57.57,0,0,1,0-.81,47.217,47.217,0,0,1,4.27-4,.58.58,0,0,1,.73.89Z" fill="#63c1c5"/>
      <path id="Trazado_16" data-name="Trazado 16" d="M308.83,22.4a.56.56,0,0,1-.57-.07.48.48,0,0,1-.19-.23.56.56,0,0,1,.3-.75,45.49,45.49,0,0,1,5.47-2,.58.58,0,0,1,.32,1.11,43.75,43.75,0,0,0-5.33,1.94Z" fill="#63c1c5"/>
      <path id="Trazado_17" data-name="Trazado 17" d="M280.45,66.58a.67.67,0,0,1-.28-.1A.58.58,0,0,1,280,66l.08-.73c.19-1.67.38-3.34.6-5a.575.575,0,1,1,1.14.15c-.22,1.66-.41,3.32-.6,5l-.08.73a.57.57,0,0,1-.69.43Z" fill="#63c1c5"/>
      <path id="Trazado_18" data-name="Trazado 18" d="M300.93,26.88a.59.59,0,0,1-.68,0,.8.8,0,0,1-.13-.13.59.59,0,0,1,.14-.81,47.922,47.922,0,0,1,5-3.06.58.58,0,0,1,.55,1,47.279,47.279,0,0,0-4.88,3Z" fill="#63c1c5"/>
      <path id="Trazado_19" data-name="Trazado 19" d="M280.18,68.87a.58.58,0,0,1,.5.65c-.28,2.24-.56,4.06-.87,5.73a.58.58,0,0,1-.67.46.66.66,0,0,1-.24-.11.55.55,0,0,1-.22-.57c.3-1.64.58-3.44.86-5.66a.58.58,0,0,1,.64-.5Z" fill="#63c1c5"/>
      <path id="Trazado_20" data-name="Trazado 20" d="M253.46,102.22a.58.58,0,0,1,.22,1.13,46.11,46.11,0,0,1-5.78.75.55.55,0,0,1-.38-.11.62.62,0,0,1-.24-.43.58.58,0,0,1,.54-.61,45.753,45.753,0,0,0,5.64-.73Z" fill="#63c1c5"/>
      <path id="Trazado_21" data-name="Trazado 21" d="M283.06,50.69a.57.57,0,0,1,.4.7c-.45,1.7-.84,3.52-1.18,5.58a.59.59,0,0,1-.67.47.6.6,0,0,1-.25-.1.59.59,0,0,1-.22-.56,57.529,57.529,0,0,1,1.21-5.68.58.58,0,0,1,.71-.41Z" fill="#63c1c5"/>
      <path id="Trazado_22" data-name="Trazado 22" d="M321,17.85c.67-.08,1.34-.14,2-.19a.57.57,0,0,1,.62.53.58.58,0,0,1-.53.62c-.66.05-1.31.11-2,.19-1.22.14-2.45.34-3.65.6a.6.6,0,0,1-.46-.1.57.57,0,0,1-.22-.34.58.58,0,0,1,.44-.69C318.47,18.21,319.73,18,321,17.85Z" fill="#63c1c5"/>
      <path id="Trazado_23" data-name="Trazado 23" d="M61.92,279.29l50.47,5.38-.08-70.36-50.46.06Z" fill="url(#linear-gradient-5)"/>
      <path id="Trazado_24" data-name="Trazado 24" d="M112.31,214.41l9.16-12.9-46.64.06-12.98,12.9Z" fill="#63c1c5"/>
      <path id="Trazado_25" data-name="Trazado 25" d="M112.31,214.31l18.35.85-.27,54.97-18,14.54Z" fill="#63c1c5"/>
      <path id="Trazado_26" data-name="Trazado 26" d="M121.47,201.51l9.19,13.65-18.35-.75Z" fill="#198a8d"/>
      <path id="Trazado_27" data-name="Trazado 27" d="M74.83,201.57l46.64-.06-.02-10.65-46.63.73Z" fill="#198a8d"/>
      <path id="Trazado_28" data-name="Trazado 28" d="M121.47,201.51l-3.7,5.21,12.37,7.67Z" fill="#00666a"/>
      <path id="Trazado_29" data-name="Trazado 29" d="M313.54,280.31l41.06,4.37-.07-57.25-41.05.05Z" fill="url(#linear-gradient-6)"/>
      <path id="Trazado_30" data-name="Trazado 30" d="M354.53,227.51l7.45-10.49-37.94.04-10.56,10.5Z" fill="#63c1c5"/>
      <path id="Trazado_31" data-name="Trazado 31" d="M354.53,227.43l14.93.69-.22,44.73L354.6,284.68Z" fill="#63c1c5"/>
      <path id="Trazado_32" data-name="Trazado 32" d="M361.98,217.02l7.48,11.1-14.93-.61Z" fill="#198a8d"/>
      <path id="Trazado_33" data-name="Trazado 33" d="M324.04,217.06l37.94-.04v-8.67l-37.95.59Z" fill="#198a8d"/>
      <path id="Trazado_34" data-name="Trazado 34" d="M361.98,217.02l-3,4.24,10.06,6.24Z" fill="#00666a"/>
      <path id="Trazado_35" data-name="Trazado 35" d="M479.6,242.62l-4.09-7.22H457.98l1.67,5.29Z" fill="#00666a"/>
      <path id="Trazado_36" data-name="Trazado 36" d="M421.76,276.87l42.09,3.3.44-38.15-42.12-.36Z" fill="url(#linear-gradient-7)"/>
      <path id="Trazado_37" data-name="Trazado 37" d="M464.29,242.02l15.31.6-.62,29.81-15.13,7.74Z" fill="#63c1c5"/>
      <path id="Trazado_38" data-name="Trazado 38" d="M464.51,238.76l15.09,3.86-15.31-.55Z" fill="#198a8d"/>
      <path id="Trazado_39" data-name="Trazado 39" d="M464.29,242.07l1.89-9.09-38.93-.34-5.09,9.07Z" fill="#63c1c5"/>
      <path id="Trazado_40" data-name="Trazado 40" d="M547.92,226.89l-4.09-11.28H526.3l1.67,8.27Z" fill="#00666a"/>
      <path id="Trazado_41" data-name="Trazado 41" d="M490.08,280.45l42.09,5.17.44-59.66-42.13-.57Z" fill="#63c1c5"/>
      <path id="Trazado_42" data-name="Trazado 42" d="M532.61,225.96l15.31.93-.62,46.62-15.13,12.11Z" fill="#00666a"/>
      <path id="Trazado_43" data-name="Trazado 43" d="M532.83,220.87l15.09,6.02-15.31-.85Z" fill="#043c5e"/>
      <path id="Trazado_44" data-name="Trazado 44" d="M532.61,226.04l1.89-14.22-38.93-.52-5.09,14.17Z" fill="#01898c"/>
      <rect id="Rectángulo_1" data-name="Rectángulo 1" width="256.07" height="10.08" transform="translate(566.2 344.61) rotate(180)" fill="#212b53"/>
      <rect id="Rectángulo_2" data-name="Rectángulo 2" width="582" height="25.1" rx="12.55" transform="translate(0 270.58)" fill="#212b53"/>
      <path id="Trazado_45" data-name="Trazado 45" d="M376.39,123.8c-.05-.88-2.37-3.34-5.45-5.52a32.919,32.919,0,0,0,1.84-9.4c3.26-.49,6.65-1.34,7.34-2.82,1.4-3-1.31-11.6-2.36-12.53-.67-.6-4.16-.69-8,0a33,33,0,0,0-5.16-8c2-2.66,3.77-5.67,3.21-7.21-1.13-3.11-9.13-7.27-10.53-7.19-.88,0-3.32,2.36-5.5,5.42a32.84,32.84,0,0,0-9.48-2.16c-.49-3.15-1.33-6.33-2.76-7-3-1.4-11.6,1.31-12.54,2.36-.55.63-.67,3.69-.14,7.17a33,33,0,0,0-8.64,5.37c-2.43-1.72-5-3.14-6.4-2.63-3.11,1.13-7.27,9.13-7.19,10.53.05.79,1.92,2.85,4.52,4.84a32.759,32.759,0,0,0-2.31,10.32c-2.78.51-5.35,1.31-5.94,2.58-1.4,3,1.31,11.6,2.36,12.54.58.51,3.24.65,6.39.25a32.94,32.94,0,0,0,5.88,8.92c-1.6,2.32-2.84,4.7-2.36,6,1.13,3.11,9.13,7.27,10.53,7.19.79-.05,2.85-1.92,4.85-4.54a32.75,32.75,0,0,0,10.24,1.95c.5,2.92,1.32,5.71,2.65,6.32,3,1.4,11.6-1.31,12.53-2.36.56-.63.67-3.72.14-7.22a32.68,32.68,0,0,0,8.21-5.63c2.56,1.86,5.37,3.48,6.84,3C372.31,133.2,376.47,125.2,376.39,123.8Zm-44.89-4.31a14.74,14.74,0,1,1,11.052,2.315A14.75,14.75,0,0,1,331.5,119.49Z" fill="#63c1c5"/>
      <path id="Trazado_46" data-name="Trazado 46" d="M328.26,124.44a21,21,0,1,1,29.18-5.5A21,21,0,0,1,328.26,124.44ZM351.77,90a20.7,20.7,0,1,0,5.43,28.76A20.7,20.7,0,0,0,351.77,90Z" fill="#fff"/>
      <path id="Trazado_47" data-name="Trazado 47" d="M368.14,118.88l-.32-.27a30.09,30.09,0,0,1-58-12.75h0l-.38-.17a30.49,30.49,0,0,0,55.62,18.93,31.188,31.188,0,0,0,3.08-5.74Z" fill="#fff"/>
      <path id="Trazado_48" data-name="Trazado 48" d="M338.1,77.39a30,30,0,0,1,18.75,5.17l.33.24.12-.4-.23-.16A30.29,30.29,0,0,0,338.15,77C338.14,77.13,338.12,77.26,338.1,77.39Z" fill="#fff"/>
      <path id="Trazado_49" data-name="Trazado 49" d="M245.69,276s19.73-61.67-16.74-92c-71.3,39.73-32,109.75-32,109.75Z" fill="#f7a605"/>
      <path id="Trazado_50" data-name="Trazado 50" d="M229,184l-.73.42-4.36,76.17-34-33.26c-.17.5-.33,1-.49,1.51l34.41,33.63-1.26,22,1.46-.53,2.5-43.81h0l23.78-14c-.07-.51-.13-1-.21-1.53l-23.47,13.81,3.08-53.81Z" fill="#fff"/>
      <path id="Trazado_51" data-name="Trazado 51" d="M228.83,261.88s-23.08-60.31-68.13-66.21c-32.65,43.81,10.69,87.65,10.69,87.65l52.07,21.84Z" fill="#01898c"/>
      <path id="Trazado_52" data-name="Trazado 52" d="M204,221.41l-13,25.52-29.28-51.1-1.07-.16c-.13.17-.24.35-.37.52L176,223.56l-26-5.33a3.269,3.269,0,0,1-.16.74l-.13.65L177,225.2l26.14,45.61-46-7.89.84,1.59L204,272.4l18.56,32.39.88.37.17-1.39L191.9,248.4,205,222.56Z" fill="#00666a"/>
      <path id="Trazado_53" data-name="Trazado 53" d="M180,330.61h49l-15.6-42s-44.85-29.89-74.47-9.07c1.85,31.87,20.48,49.93,41,60.17Z" fill="#ffd247"/>
      <path id="Trazado_54" data-name="Trazado 54" d="M228.55,330.61H229l-.64-1.73L180,301.74l-8.35-29c-.5-.07-1-.12-1.52-.18l8.1,28.22-38.57-21.62c-.22.15-.45.29-.66.45h0l.06.84,63.67,35.69-36.81,14.95c.45.34.89.67,1.34,1l37-15.09Z" fill="#fff"/>
      <path id="Trazado_55" data-name="Trazado 55" d="M239.69,245.39s-19.73-61.67,16.73-92c71.31,39.73,32.05,109.75,32.05,109.75Z" fill="#63c1c5"/>
      <path id="Trazado_56" data-name="Trazado 56" d="M256.42,153.37l.74.42L261.52,230l34-33.26c.17.5.34,1,.49,1.51L261.6,231.88l1.26,22-1.45-.53-2.51-43.81h0l-23.77-14c.06-.51.13-1,.2-1.53l23.47,13.81L255.74,154l.68-.59Z" fill="#fff"/>
      <path id="Trazado_57" data-name="Trazado 57" d="M256.55,231.27s23.07-60.31,68.12-66.21C357.32,208.87,314,252.71,314,252.71l-52.07,21.84Z" fill="#01898c"/>
      <path id="Trazado_58" data-name="Trazado 58" d="M281.34,190.8l13,25.52,29.29-51.1,1.06-.16c.13.17.25.35.37.52L309.36,193l26.06-5.33c.06.25.11.49.16.74l.13.65-27.29,5.58L282.27,240.2l46-7.89c-.27.54-.56,1.07-.84,1.59l-46.11,7.9L262.8,274.18l-.88.37-.18-1.39,31.74-55.37L280.34,192C280.67,191.57,281,191.18,281.34,190.8Z" fill="#00666a"/>
      <path id="Trazado_59" data-name="Trazado 59" d="M272,258s44.85-29.89,74.46-9.07c-4.31,73.83-98.46,73.6-98.46,73.6Z" fill="#ffd247"/>
      <path id="Trazado_60" data-name="Trazado 60" d="M346.43,249l-.06.84L282.7,285.5l36.81,14.95c-.44.34-.89.67-1.34,1L281.11,286.4l-24.87,13.94.77-2.06,48.42-27.14,8.34-29c.51-.07,1-.12,1.53-.17l-8.11,28.21,38.58-21.62.66.45Z" fill="#fff"/>
      <path id="Trazado_61" data-name="Trazado 61" d="M260,72.32c-.47-1.33-5.11-4.06-10.79-6a52.26,52.26,0,0,0-1.35-15.22c4.78-2.19,9.6-5,10-7.57.81-5.22-7.15-17.19-9.17-18.15-1.3-.62-6.68.79-12.2,3.5A52.4,52.4,0,0,0,225,18.93c1.85-4.94,3.28-10.35,1.74-12.46-3.11-4.27-17.2-7.1-19.31-6.35-1.32.47-4,5.08-6,10.74a52.64,52.64,0,0,0-15.48.88c-2.15-4.6-4.85-9.1-7.33-9.48-5.22-.81-17.18,7.15-18.15,9.17-.57,1.21.61,5.95,3,11.05a52.1,52.1,0,0,0-10.85,12.05c-4.5-1.56-9.08-2.59-11-1.2-4.26,3.12-7.09,17.21-6.35,19.32.42,1.19,4.19,3.51,9.06,5.4a52.29,52.29,0,0,0,1,16.83c-4,2-7.62,4.39-8,6.6-.81,5.22,7.15,17.18,9.17,18.15,1.12.53,5.26-.44,9.9-2.45a52.19,52.19,0,0,0,13,11.06c-1.42,4.26-2.27,8.46-1,10.26,3.12,4.26,17.21,7.09,19.32,6.35,1.19-.42,3.52-4.21,5.42-9.1a52,52,0,0,0,16.54-1.56c2.07,4.25,4.56,8.16,6.87,8.52,5.22.81,17.19-7.16,18.15-9.18.58-1.2-.62-6-3-11.11a52.63,52.63,0,0,0,10.09-12.26c4.75,1.71,9.76,3,11.77,1.48C257.88,88.52,260.71,74.43,260,72.32ZM189.3,85.59a23.52,23.52,0,1,1,29.69-15A23.52,23.52,0,0,1,189.3,85.59Z" fill="#63c1c5"/>
      <path id="Trazado_62" data-name="Trazado 62" d="M186.53,94.61a33.47,33.47,0,1,1,42.26-21.35,33.47,33.47,0,0,1-42.26,21.35Zm20.75-63.15a33,33,0,1,0,21.05,41.65,33,33,0,0,0-21.05-41.65Z" fill="#fff"/>
      <path id="Trazado_63" data-name="Trazado 63" d="M245.14,68.44l-.6-.29a48,48,0,0,1-94.48,6.17h0a2.5,2.5,0,0,1-.66-.09,48.61,48.61,0,0,0,95.74-5.79Z" fill="#fff"/>
      <path id="Trazado_64" data-name="Trazado 64" d="M180.75,18.2a47.71,47.71,0,0,1,31-.4l.61.22v-.66l-.41-.15a48.39,48.39,0,0,0-31.31.35A3.733,3.733,0,0,1,180.75,18.2Z" fill="#fff"/>
      <path id="Trazado_65" data-name="Trazado 65" d="M310.13,324.14H196.57c0-24.86,9.65-45,34.5-45h44.56C300.48,279.14,310.13,299.28,310.13,324.14Z" fill="#00666a"/>
      <rect id="Rectángulo_3" data-name="Rectángulo 3" width="154.69" height="24.5" transform="translate(176.01 324.14)" fill="#043c5e"/>
      <path id="Trazado_66" data-name="Trazado 66" d="M263.29,287.38l-11.66,2.86c-9.61,2.36-17-.54-21.77-13.19C183.44,153.64,183.4,87.67,183.4,87.67A18.05,18.05,0,0,1,196.59,65.9L208.25,63c5.77-1.42,9.72-.2,13.6,3.29a26.36,26.36,0,0,1,8.44,18c3.8,59.3,46.19,181.33,46.19,181.33a18.05,18.05,0,0,1-13.19,21.76Z" fill="#212b53"/>
      <path id="Trazado_67" data-name="Trazado 67" d="M331.16,114.87c.38-9.8.94-15.65,6.31-24.83-30.88-8.49-71.75-22.37-129.79-28.74-13.45-1.45-19.37,3.82-21.61,13.46l-2.72,11.69a18.07,18.07,0,0,0,13.46,21.61s75.76-4.74,135.58,10.66C331.3,112.47,330.93,121.1,331.16,114.87Z" fill="#043c5e"/>
      <path id="Trazado_68" data-name="Trazado 68" d="M354.54,92.53A50.19,50.19,0,0,1,339,116.84c-.82.68-1.66,1.31-2.5,1.91,16.37,13,45.27,37,70.66,63.27a66,66,0,0,1,13-18.35,827.128,827.128,0,0,0-65.62-71.14Z" fill="#212b53"/>
      <circle id="Elipse_1" data-name="Elipse 1" cx="28.09" cy="28.09" r="28.09" transform="translate(213.624 272.547) rotate(-45)" fill="#212b53"/>
      <circle id="Elipse_2" data-name="Elipse 2" cx="28.09" cy="28.09" r="28.09" transform="translate(174.092 61.371) rotate(-9.3)" fill="#043c5e"/>
      <circle id="Elipse_3" data-name="Elipse 3" cx="21.51" cy="21.51" r="21.51" transform="matrix(0.987, -0.161, 0.161, 0.987, 181.656, 66.788)" fill="url(#linear-gradient)"/>
      <circle id="Elipse_4" data-name="Elipse 4" cx="21.51" cy="21.51" r="21.51" transform="translate(231.84 251.04)" fill="url(#linear-gradient-9)"/>
      <circle id="Elipse_5" data-name="Elipse 5" cx="21.38" cy="21.38" r="21.38" transform="matrix(0.628, -0.778, 0.778, 0.628, 311.403, 109.262)" fill="#043c5e"/>
      <circle id="Elipse_6" data-name="Elipse 6" cx="16.37" cy="16.37" r="16.37" transform="translate(318.322 106.059) rotate(-45)" fill="url(#linear-gradient-10)"/>
      <path id="Trazado_69" data-name="Trazado 69" d="M425.08,164.9l30.88-3.04,13.71,27.91-3.33,7.89-15.65-22.21-26.01.08Z" fill="#01898c"/>
      <path id="Trazado_70" data-name="Trazado 70" d="M401.72,182.75l-15.74,24.27,17,25.82,7.66,1.24L399,209.56l10.38-21.82Z" fill="#01898c"/>
      <path id="Trazado_71" data-name="Trazado 71" d="M415.68,190.09l20.53,34.78,6.45-2.99-14.67-41.16-5.22,8.2Z" fill="#01898c"/>
      <path id="Trazado_72" data-name="Trazado 72" d="M418.67,160.68c-5.33,5.14-11.79,8.73-19,11.46a19.1,19.1,0,1,0,19-11.46Z" fill="#00666a"/>
      <path id="Trazado_73" data-name="Trazado 73" d="M150,348.89s.81,1.13,4.64,2.11c.85.21,1.76.36,1.76,1.75h-3.79l-3.87-.67v.67h-2.09s-.58-3.42.64-3.86Z" fill="#212b53"/>
      <path id="Trazado_74" data-name="Trazado 74" d="M150.17,346.44l-.19,2.45h0a2.37,2.37,0,0,1-2.57.09l-.14-.09v-2.45Z" fill="#f8b68f"/>
      <path id="Trazado_75" data-name="Trazado 75" d="M130.56,349.38s.81,1.13,4.64,2.11c.85.21,1.76.36,1.76,1.75h-3.79l-3.87-.67v.67h-2.09s-.58-3.42.64-3.86Z" fill="#212b53"/>
      <path id="Trazado_76" data-name="Trazado 76" d="M130.75,346.93l-.19,2.45h0a2.37,2.37,0,0,1-2.57.09l-.14-.09v-2.45Z" fill="#f8b68f"/>
      <path id="Trazado_77" data-name="Trazado 77" d="M151.72,286.08l-.95,61.69h-4.49s-6.84-49.81-5.38-61.69S151.72,286.08,151.72,286.08Z" fill="#212b53"/>
      <path id="Trazado_78" data-name="Trazado 78" d="M147,286.06s-1.57,19-5.16,29.45-10.09,32.26-10.09,32.26H127.1s7.77-45.5,6-61.71H147Z" fill="#11375b"/>
      <path id="Trazado_79" data-name="Trazado 79" d="M151,254.66s5.54,12.92,6.94,12.92c1.13,0-.42-10.55-.42-10.55h4.64s5.83,18.08,1.19,21.38-14.83-9.35-14.83-9.35Z" fill="url(#linear-gradient-11)"/>
      <path id="Trazado_80" data-name="Trazado 80" d="M134.5,287.7l1.68,4.15c.81,1.63,3.78,1.68,5.75,1.16a.4.4,0,0,0,.19-.67,55.463,55.463,0,0,0-4.87-4.92Z" fill="#f8b68f"/>
      <path id="Trazado_81" data-name="Trazado 81" d="M148.54,252s2.9,2,2.9,4.22v29.85h-17V258.15s.35-6.21,6.42-6.21S148.54,252,148.54,252Z" fill="url(#linear-gradient-12)"/>
      <path id="Trazado_82" data-name="Trazado 82" d="M151.16,286.08V259.26l.56.02v26.8Z" fill="#93cfc7"/>
      <path id="Trazado_83" data-name="Trazado 83" d="M142.4,245.33v7a4.3,4.3,0,0,0,3.28,1.6c2.12,0,2.12-1.52,2.12-1.52V247.9l-3.13-.82Z" fill="#f4a086"/>
      <path id="Trazado_84" data-name="Trazado 84" d="M148.07,249.28a2.65,2.65,0,0,0,1.57-.41c1.88-3-.26-11.06-.26-11.06L142.56,239l-.22,5.4a4.56,4.56,0,0,0,1.71,3.73h0A7.26,7.26,0,0,0,148.07,249.28Z" fill="#f8b68f"/>
      <path id="Trazado_85" data-name="Trazado 85" d="M145.77,239.17a14.66,14.66,0,0,0,4.64,0c2.38-.42.86-3,.86-3a9.27,9.27,0,0,1-4.89.34c-2.12-.31-2.68-.72-4,0-1.84,1-1.39,4.31-1.39,4.31l1,7h.38s.09-4.18.09-5.61c.4-.65.83-.65,1.17-.49a1.07,1.07,0,0,1,.56,1V250s4.65,2,5.84,1.64.39-5.78.39-5.78a2.17,2.17,0,0,0-2.42.6,1.625,1.625,0,0,1-2.32,0Z" fill="#212b53"/>
      <path id="Trazado_86" data-name="Trazado 86" d="M161.29,257l-.16-.89a7.44,7.44,0,0,0-4.15-5.07h-2l.61,4.21L158.4,257Z" fill="#f8b68f"/>
      <path id="Trazado_87" data-name="Trazado 87" d="M143,241.53a1.2,1.2,0,0,1,1.13,1.12,1,1,0,0,1-.78,1.27,1.18,1.18,0,0,1-1.12-1.11C142.14,242.14,142.48,241.57,143,241.53Z" fill="#f8b68f"/>
      <path id="Trazado_88" data-name="Trazado 88" d="M156.43,254.81l3.84,2.22h-2.45l-4.06-3.4s.3-.59,1.22-.09a4.59,4.59,0,0,1,1.45,1.27Z" fill="#f8b68f"/>
      <path id="Trazado_89" data-name="Trazado 89" d="M136.29,253.81s-9.59,10.65-9.59,17,7.78,17.63,7.78,17.63l3.85-1.13s-3.47-13.92-3.47-17.62,7.12-9.13,7.12-9.13" fill="url(#linear-gradient-13)"/>
      <path id="Trazado_90" data-name="Trazado 90" d="M135.14,269.72c0,3.19,2.82,14.84,3.48,17.56l-.57.14c-.81-3.35-3.47-14.57-3.47-17.7,0-3.8,6.94-9.13,7.23-9.35l.34.44C142.08,260.87,135.14,266.2,135.14,269.72Z" fill="#93cfc7"/>
      <path id="Trazado_91" data-name="Trazado 91" d="M153.86,247.84a10.17,10.17,0,0,0,1.76,7.44,1.15,1.15,0,0,0,.72.4,2.81,2.81,0,0,0,1.32-.22,1.23,1.23,0,0,0,.8-.58.51.51,0,0,0-.05-.55c-.52-.77-2.11-3.42-1.39-5.76A4.16,4.16,0,0,0,153.86,247.84Z" fill="#f59c42"/>
      <path id="Trazado_92" data-name="Trazado 92" d="M158,255.31a.77.77,0,0,0,.44-.43.51.51,0,0,0-.05-.55c-.52-.77-2.11-3.42-1.39-5.76a3.44,3.44,0,0,0-1.5-.69C155.44,250.45,156,252.17,158,255.31Z" fill="#fab746"/>
      <path id="Trazado_93" data-name="Trazado 93" d="M156.14,251.24c.12.59.41,1,.64,1s.32-.56.2-1.15-.41-1-.64-1S156,250.65,156.14,251.24Z" fill="#f59c42"/>
      <path id="Trazado_94" data-name="Trazado 94" d="M156.29,250.1l.25-.05-.02.12-.16.06Z" fill="#f59c42"/>
      <path id="Trazado_95" data-name="Trazado 95" d="M156.72,252.23l.3-.06-.34-.05Z" fill="#e8375e"/>
      <path id="Trazado_96" data-name="Trazado 96" d="M156.34,251.2c.12.59.4,1,.64,1s.32-.56.2-1.15-.41-1-.64-1S156.22,250.61,156.34,251.2Z" fill="#ffd247"/>
      <path id="Trazado_97" data-name="Trazado 97" d="M152.83,244.37h-.46a1.54,1.54,0,0,0-1.57,1.5v1.19a1.55,1.55,0,0,0,1.57,1.51h.46Z" fill="#ffd247"/>
      <path id="Trazado_98" data-name="Trazado 98" d="M166.72,245.55c0,3.26-.75,5.9-1.68,5.9s-1.67-2.64-1.67-5.9.75-5.91,1.67-5.91S166.72,242.29,166.72,245.55Z" fill="#212b53"/>
      <path id="Trazado_99" data-name="Trazado 99" d="M163.3,243.37l1.32.86v1.91l-1.37,1.24-.47-2.48Z" fill="#fff"/>
      <path id="Trazado_100" data-name="Trazado 100" d="M163.37,245.55c0-2.74.53-5,1.25-5.71h0a27,27,0,0,1-12.05,4.57v4.16s8.8-.49,12.05,2.69h0C163.9,250.59,163.37,248.29,163.37,245.55Z" fill="#f7a605"/>
      <path id="Trazado_101" data-name="Trazado 101" d="M164.8,245.18c0,.53-.08,1-.18,1s-.18-.43-.18-1,.08-1,.18-1S164.8,244.65,164.8,245.18Z" fill="#ffd247"/>
      <path id="Trazado_102" data-name="Trazado 102" d="M159.16,254a4.41,4.41,0,0,1-2.15.35c-1.11,0-1.61-1.37-1.8-2.11-.07-.27-.13-.64.2-.81l1.79-.24Z" fill="#f8b68f"/>
      <path id="Trazado_103" data-name="Trazado 103" d="M262.59,352.54l-44.2-137.41h2.52l44.2,137.41Z" fill="#ffd247"/>
      <path id="Trazado_104" data-name="Trazado 104" d="M239.74,352.54l-44.2-137.41h2.51l44.2,137.41Z" fill="#ffd247"/>
      <path id="Trazado_105" data-name="Trazado 105" d="M232.36,250.82v2.05l-23.68-.02-.41-2.04Z" fill="#ffd247"/>
      <path id="Trazado_106" data-name="Trazado 106" d="M227.46,237.5v2.05l-23.68-.01-.4-2.05Z" fill="#ffd247"/>
      <path id="Trazado_107" data-name="Trazado 107" d="M223.41,224.19v2.05l-23.68-.01-.4-2.05Z" fill="#ffd247"/>
      <path id="Trazado_108" data-name="Trazado 108" d="M236.67,264.3v2.05l-23.68-.01-.4-2.05Z" fill="#ffd247"/>
      <path id="Trazado_109" data-name="Trazado 109" d="M240.72,277.79v2.05l-23.68-.02-.41-2.04Z" fill="#ffd247"/>
      <path id="Trazado_110" data-name="Trazado 110" d="M244.91,291.8l.96,2.05-23.69-.02-.4-2.04Z" fill="#ffd247"/>
      <path id="Trazado_111" data-name="Trazado 111" d="M249.35,305.81l.96,2.05-23.69-.01-.4-2.05Z" fill="#ffd247"/>
      <path id="Trazado_112" data-name="Trazado 112" d="M253.51,319.51l.95,2.05-23.68-.02-.4-2.04Z" fill="#ffd247"/>
      <path id="Trazado_113" data-name="Trazado 113" d="M256.95,333.5l.96,2.05-23.68-.01-.41-2.05Z" fill="#ffd247"/>
      <path id="Trazado_114" data-name="Trazado 114" d="M152.42,352.54l44.2-137.41H194.1L149.9,352.54Z" fill="#212b53"/>
      <path id="Trazado_115" data-name="Trazado 115" d="M175.27,352.54l44.2-137.41h-2.51l-44.2,137.41Z" fill="#212b53"/>
      <path id="Trazado_116" data-name="Trazado 116" d="M182.65,250.82v2.05l23.68-.02.41-2.04Z" fill="#212b53"/>
      <path id="Trazado_117" data-name="Trazado 117" d="M187.55,237.5v2.05l23.68-.01.4-2.05Z" fill="#212b53"/>
      <path id="Trazado_118" data-name="Trazado 118" d="M191.6,224.19v2.05l23.68-.01.4-2.05Z" fill="#212b53"/>
      <path id="Trazado_119" data-name="Trazado 119" d="M178.34,264.3v2.05l23.68-.01.4-2.05Z" fill="#212b53"/>
      <path id="Trazado_120" data-name="Trazado 120" d="M174.29,277.79v2.05l23.68-.02.41-2.04Z" fill="#212b53"/>
      <path id="Trazado_121" data-name="Trazado 121" d="M170.1,291.8l-.95,2.05,23.68-.02.4-2.04Z" fill="#212b53"/>
      <path id="Trazado_122" data-name="Trazado 122" d="M165.66,305.81l-.95,2.05,23.68-.01.4-2.05Z" fill="#212b53"/>
      <path id="Trazado_123" data-name="Trazado 123" d="M161.5,319.51l-.95,2.05,23.68-.02.4-2.04Z" fill="#212b53"/>
      <path id="Trazado_124" data-name="Trazado 124" d="M158.06,333.5l-.96,2.05,23.68-.01.41-2.05Z" fill="#212b53"/>
      <path id="Trazado_125" data-name="Trazado 125" d="M392.67,175.41l28.97-19.64,3.44,8.09L397.99,181.1Z" fill="#212b53"/>
      <path id="Trazado_126" data-name="Trazado 126" d="M53.56,282.16a5.28,5.28,0,1,1-5.28-5.28,5.28,5.28,0,0,1,5.28,5.28Z" fill="url(#linear-gradient)"/>
      <path id="Trazado_127" data-name="Trazado 127" d="M85.11,282.16a5.28,5.28,0,1,1-5.28-5.28A5.28,5.28,0,0,1,85.11,282.16Z" fill="url(#linear-gradient)"/>
      <path id="Trazado_128" data-name="Trazado 128" d="M117.41,282.16a5.28,5.28,0,1,1-5.27-5.28,5.28,5.28,0,0,1,5.27,5.28Z" fill="url(#linear-gradient-16)"/>
      <path id="Trazado_129" data-name="Trazado 129" d="M368.51,282.16a5.28,5.28,0,1,1-5.28-5.28,5.28,5.28,0,0,1,5.28,5.28Z" fill="url(#linear-gradient)"/>
      <path id="Trazado_130" data-name="Trazado 130" d="M400.06,282.16a5.28,5.28,0,1,1-5.28-5.28,5.28,5.28,0,0,1,5.28,5.28Z" fill="url(#linear-gradient)"/>
      <path id="Trazado_131" data-name="Trazado 131" d="M432.36,282.16a5.28,5.28,0,1,1-5.28-5.28A5.28,5.28,0,0,1,432.36,282.16Z" fill="url(#linear-gradient)"/>
      <path id="Trazado_132" data-name="Trazado 132" d="M465.7,282.16a5.28,5.28,0,1,1-5.27-5.28,5.28,5.28,0,0,1,5.27,5.28Z" fill="url(#linear-gradient-16)"/>
      <path id="Trazado_133" data-name="Trazado 133" d="M497.26,282.16a5.28,5.28,0,1,1-5.28-5.28A5.28,5.28,0,0,1,497.26,282.16Z" fill="url(#linear-gradient)"/>
      <path id="Trazado_134" data-name="Trazado 134" d="M529.56,282.16a5.28,5.28,0,1,1-5.28-5.28,5.28,5.28,0,0,1,5.28,5.28Z" fill="url(#linear-gradient)"/>
      <rect id="Rectángulo_4" data-name="Rectángulo 4" width="9" height="46.95" transform="translate(28 287.59)" fill="#212b53"/>
      <rect id="Rectángulo_5" data-name="Rectángulo 5" width="161" height="10.08" transform="translate(15 334.54)" fill="#212b53"/>
      <rect id="Rectángulo_6" data-name="Rectángulo 6" width="9" height="46.95" transform="translate(553.2 334.53) rotate(180)" fill="#212b53"/>
      <path id="Trazado_135" data-name="Trazado 135" d="M68.59,229.67l-7.35,19.21-4.63-3.45,10.35-17.46Z" fill="#f4a086"/>
      <path id="Trazado_136" data-name="Trazado 136" d="M67.68,223.86a3,3,0,0,0-.66,2l-.33,2.77.38.43,1.3,1.15c0-.57-.11,0-.11,0l2.09-3.64s2.53-1.62-.66-4a.92.92,0,0,0-1-.07A2.36,2.36,0,0,0,67.68,223.86Z" fill="#f4a086"/>
      <path id="Trazado_137" data-name="Trazado 137" d="M52.37,262.75a120.349,120.349,0,0,0,8.87-13.88l-4-4.53L52.37,250Z" fill="#00666a"/>
      <path id="Trazado_138" data-name="Trazado 138" d="M40.88,346l2.35.41c.48-2.9,7.76-16.67,8.35-23.82a162.254,162.254,0,0,1,2.5-16.77l-7.83-2.33s-2,0,.2,16.18C41.55,326.09,40.24,340.68,40.88,346Z" fill="#f4a086"/>
      <path id="Trazado_139" data-name="Trazado 139" d="M46.65,297.61s1.84,11.06,4.4,22.9c-2.67,7.14,1.4,27.08,1.47,27,.31-.29,1.72,1.45,1.72,1.45s3-17.6,3.62-25.54.82-17.61.82-17.61Z" fill="#f8b68f"/>
      <path id="Trazado_140" data-name="Trazado 140" d="M52.19,346.41a2.62,2.62,0,0,0-.91,2.15c.2,1.2.49,4,.49,4h1.15v-2.63c0-.17,2.46,2.63,2.88,2.63h6.06s.4-1.77-3.16-2.34S52.19,346.41,52.19,346.41Z" fill="#043c5e"/>
      <path id="Trazado_141" data-name="Trazado 141" d="M43.49,344.4l-.16,2.51a2.39,2.39,0,0,0,.41,1.49,9.53,9.53,0,0,0,1.83,1.89c-1.76.57-3.36-1.4-4.2-2.71a3.13,3.13,0,0,1-.45-2.15l.29-2Z" fill="#f4a086"/>
      <path id="Trazado_142" data-name="Trazado 142" d="M40.88,345.78s-1.54.14-1.8,1.32-1,3.55-1,3.55l.85.68,1.2-2.33a34.62,34.62,0,0,0,3,3.61h6.62s0-2.19-4.14-2.29C41.75,350.2,40.88,345.78,40.88,345.78Z" fill="#212b53"/>
      <path id="Trazado_143" data-name="Trazado 143" d="M76.32,228.74l-7.35,19.21-4.64-3.45,10.36-17.46Z" fill="#f8b68f"/>
      <path id="Trazado_144" data-name="Trazado 144" d="M75.41,222.93a2.93,2.93,0,0,0-.67,2l-.32,2.77.37.43,1.31,1.15c0-.57-.12,0-.12,0l2.1-3.64s2.52-1.62-.66-4a.92.92,0,0,0-1-.07,2.33,2.33,0,0,0-1.01,1.36Z" fill="#f8b68f"/>
      <path id="Trazado_145" data-name="Trazado 145" d="M54.08,252.66H49.34l1.9-5.57,3.7,2.27Z" fill="#f4a086"/>
      <path id="Trazado_146" data-name="Trazado 146" d="M60.38,258.64a1.62,1.62,0,0,0-.09-.38C65,252.21,69,248,69,248l-4-4.54L55.92,252H53.26a5.33,5.33,0,0,0-6.73.87c-1.15,1.18-1.91,4.39-1.15,7.78,2.11,9.34.46,14.28.46,14.28l12.22,4.56s.28-8.13.47-13.82h0a6.29,6.29,0,0,1,1-3.12,5.6,5.6,0,0,0,.85-3.91Z" fill="#01898c"/>
      <path id="Trazado_147" data-name="Trazado 147" d="M55.75,237.08,48,239.8l.76,5.8a2,2,0,0,1,0,.24.811.811,0,0,1,.45.09h.14A5.32,5.32,0,0,1,53,249.6a9.1,9.1,0,0,0,3.37,0,3.44,3.44,0,0,0,1.76-.76C59.78,245.22,55.75,237.08,55.75,237.08Z" fill="#f8b68f"/>
      <path id="Trazado_148" data-name="Trazado 148" d="M55.57,242c-2.09,1-1.6,11.81-2,19.15a8.35,8.35,0,0,1-7.06,7.8c-2.77.44-5.81.52-7.65-.52,1.22-1,7.75-10.61,5.66-23.34-.28-1.68-.31-6.34,2.51-8.88,3.14-2.81,9.6.86,9.6.86S58.44,240.61,55.57,242Z" fill="#212b53"/>
      <path id="Trazado_149" data-name="Trazado 149" d="M58.31,274.67s1.63,8.28,1.63,13.21c0,2.7-.66,19.75-.66,19.75s-11.61.84-13.87.84c-.56-14-3.75-14.4-3.75-20.92,0-2.83,1.46-6,2.57-8.07A11.83,11.83,0,0,0,45.84,275l.08-.27Z" fill="#ffd247"/>
      <path id="Trazado_150" data-name="Trazado 150" d="M373.24,260.24l5.22,9.83-5.75-.28-.4-9.87Z" fill="#f8b68f"/>
      <path id="Trazado_151" data-name="Trazado 151" d="M365.05,255.88h4.82l2,31.16h-8.64Z" fill="#fff"/>
      <path id="Trazado_152" data-name="Trazado 152" d="M356.2,347.36a2.52,2.52,0,0,0-1,2.13c.22,1.2.53,4,.53,4H357v-2.61c0-.17,2.62,2.61,3.07,2.61h6.48s.43-1.76-3.37-2.32S356.2,347.36,356.2,347.36Z" fill="#043c5e"/>
      <path id="Trazado_153" data-name="Trazado 153" d="M359,346.17l.88,2.29a3,3,0,0,0,1.2,1.52,11.579,11.579,0,0,0,3,1.37c-1.76,1.51-4.57-.06-6.17-1.17a4,4,0,0,1-1.57-2.28l-.37-1.73Z" fill="#f8b68f"/>
      <path id="Trazado_154" data-name="Trazado 154" d="M368.55,347.36a2.52,2.52,0,0,0-1,2.13c.22,1.2.53,4,.53,4h1.23v-2.61c0-.17,2.62,2.61,3.07,2.61h6.48s.43-1.76-3.37-2.32S368.55,347.36,368.55,347.36Z" fill="#043c5e"/>
      <path id="Trazado_155" data-name="Trazado 155" d="M371.36,346.17l.87,2.29a3,3,0,0,0,1.2,1.52,11.579,11.579,0,0,0,3,1.37c-1.76,1.51-4.57-.06-6.17-1.17a4,4,0,0,1-1.57-2.28l-.37-1.73Z" fill="#f8b68f"/>
      <path id="Trazado_156" data-name="Trazado 156" d="M361.35,287s-.81,4.66,3.85,27.55c-3.77,11.93,2.26,31.89,2.26,31.89h4.41l3-59.44Z" fill="#01898c"/>
      <path id="Trazado_157" data-name="Trazado 157" d="M369.34,255.88l1.56,37.81,5.18-2.21a55.779,55.779,0,0,1-2.11-17c-.79-7.13,3.25-3.38-1.7-17.1C370.42,255.88,369.34,255.88,369.34,255.88Z" fill="#ffdb71"/>
      <path id="Trazado_158" data-name="Trazado 158" d="M370,252l-.6,3.19a2,2,0,0,1-3.07,1.34l-2.13-1.34,3.8-8.58Z" fill="#f4a086"/>
      <path id="Trazado_159" data-name="Trazado 159" d="M357.11,287s-5.76,4.66-1.11,27.55c-3.77,11.93-.44,31.89-.44,31.89h3.95L370.63,287Z" fill="#63c1c5"/>
      <path id="Trazado_160" data-name="Trazado 160" d="M365.05,252.68s-4.87,2.74-6.38,5.18-1.94,7.62-2.08,12.34c-.19,6.48-3.32,23.49-3.32,23.49h13.05l.32-37Z" fill="#ffdb71"/>
      <path id="Trazado_161" data-name="Trazado 161" d="M374.65,242.42c-2.95-.75-5.79,2.27-5.79,2.27l-2.22,12-3.41-5.26s-.2-7.15,3.1-11.89c2.37-2.86,6.9-2,9.2.75a7.07,7.07,0,0,1,1.24,4.95c-.15,2.31-.8,15.59-.8,15.59l-6.76-5a31.511,31.511,0,0,1,.8-3.8C371.13,247.75,376.63,242.92,374.65,242.42Z" fill="#212b53"/>
      <path id="Trazado_162" data-name="Trazado 162" d="M368,244.51a1.07,1.07,0,0,1,1.26.66.93.93,0,0,1-.32,1.3,1.07,1.07,0,0,1-1.26-.66.92.92,0,0,1,.32-1.3Z" fill="#f8b68f"/>
      <path id="Trazado_163" data-name="Trazado 163" d="M371.15,252.54a2.34,2.34,0,0,0,1.44.19c2.57-1.86,3.49-9.29,3.49-9.29l-2-2.16-4.05.89-2,4.42a4.11,4.11,0,0,0,.16,3.68h0a6.56,6.56,0,0,0,2.96,2.27Z" fill="#f8b68f"/>
      <path id="Trazado_164" data-name="Trazado 164" d="M375.33,242.26c-.21,2.25-6.47,2.43-6.47,2.43l-.32-3,3.64-2,2.89,1.74a2,2,0,0,1,.26.83Z" fill="#212b53"/>
      <path id="Trazado_165" data-name="Trazado 165" d="M375.19,242.7a4.24,4.24,0,0,0,.64,2.29l.5-.9v-.77l-.5-.61S375.4,241.86,375.19,242.7Z" fill="#212b53"/>
      <path id="Trazado_166" data-name="Trazado 166" d="M360,257.86c-6.32.74-3.33,17-2,23.71a2.84,2.84,0,0,0,3.62,2.15c5.49-1.74,13.52-8.93,13.52-8.93l-1.27-1.6-10.66,2.49S367.32,257,360,257.86Z" fill="#f8b68f"/>
      <path id="Trazado_167" data-name="Trazado 167" d="M372.63,269.36l-2.06,12.76a.61.61,0,0,0,.6.71h8.16a.61.61,0,0,0,.6-.51l2-12.77a.61.61,0,0,0-.6-.7h-8.12A.61.61,0,0,0,372.63,269.36Z" fill="#00666a"/>
      <path id="Trazado_168" data-name="Trazado 168" d="M381.69,275a5.56,5.56,0,0,0-.14-1.66c-.2-1.2-.15-3.09-1.38-2.15a6.13,6.13,0,0,0-1.3,3,3.61,3.61,0,0,0,.78,2.7l.84,1.85a5.35,5.35,0,0,0,1.2-3.74Z" fill="#f8b68f"/>
      <path id="Trazado_169" data-name="Trazado 169" d="M376.35,273.81a.62.62,0,1,0,.62-.62A.62.62,0,0,0,376.35,273.81Z" fill="url(#linear-gradient)"/>
      <path id="Trazado_170" data-name="Trazado 170" d="M166.67,204.26l2.17,5.73c.18.81.21,1.77-.62,2.24a7.188,7.188,0,0,1-1.14.52c-.39-.08-2.9-7.83-2.9-7.83h0A2.05,2.05,0,0,1,166.67,204.26Z" fill="#043c5e"/>
      <path id="Trazado_171" data-name="Trazado 171" d="M167.08,212.75l-2.9-7.83-.38.22,2.92,7.76Z" fill="#212b53"/>
      <path id="Trazado_172" data-name="Trazado 172" d="M167.53,206.53l.19.51-1,.2-.19-.5Z" fill="#fff"/>
      <path id="Trazado_173" data-name="Trazado 173" d="M167.95,207.63l.19.52-1,.19-.19-.5Z" fill="#fff"/>
      <path id="Trazado_174" data-name="Trazado 174" d="M169.07,202.9l-2.4,1.36h0a1.53,1.53,0,0,0,.53,1.55l.08.07,2.66-.68Z" fill="#f8b68f"/>
      <path id="Trazado_175" data-name="Trazado 175" d="M188.27,166.69a13.86,13.86,0,0,0-3,7.09c-.41,3,.72,7.78.84,11.52a9.64,9.64,0,0,1-4.14,8.23l-12.9,9.37.87,2.3s17.65-2.65,22.29-10.56S198,168.83,198,168.83Z" fill="#212b53"/>
      <path id="Trazado_176" data-name="Trazado 176" d="M178,157l-6.63,14.82s-2.73.31-3.91,1.36a2.82,2.82,0,0,0-.42,2.56.91.91,0,0,0,1.5.52,6.23,6.23,0,0,1,2.28-1.44,2.77,2.77,0,0,0,2.13-1.44l9.52-14.92Z" fill="#f8b68f"/>
      <path id="Trazado_177" data-name="Trazado 177" d="M211.46,127.16l3.4-2.91-2.64-14.36-4.09-2.09a1.2,1.2,0,0,1,1.46-.46,3.72,3.72,0,0,0,1.86.14s.77-1-.68-1.59c-.82-.55-1.36,0-3.73-.09,0-.37,3.12-1.23,3.12-1.23,1-.31,3.45,1.61,3.45,1.61a1.79,1.79,0,0,1,.31.77l.39,2.67s5.27,14.45,5.27,16-3,3.66-3,3.66Z" fill="#f8b68f"/>
      <path id="Trazado_178" data-name="Trazado 178" d="M193.18,168.19s-2,2.46-.82,8.18c.79,3.66,4.23,8.26,6.54,11.43,1.65,2.27,1.69,5.13,1.19,7.89-1.89,10.52,1.14,23.36,1.14,23.36h2.45s3.68-18.82,4.77-32a38.11,38.11,0,0,0-4.23-20.86Z" fill="#043c5e"/>
      <rect id="Rectángulo_7" data-name="Rectángulo 7" width="2.06" height="7.79" transform="matrix(0.145, -0.989, 0.989, 0.145, 206.79, 107.291)" fill="#f7a605"/>
      <rect id="Rectángulo_8" data-name="Rectángulo 8" width="2.063" height="0.711" transform="translate(215.325 108.764) rotate(-81.384)" fill="#fff"/>
      <path id="Trazado_179" data-name="Trazado 179" d="M214.79,108.46c.56.07,1,0,1.17-.88s-.31-1.1-.87-1.19Z" fill="#212b53"/>
      <path id="Trazado_180" data-name="Trazado 180" d="M206.78,107.28l-1.49-.9.11-.74,1.68-.39Z" fill="#fff"/>
      <path id="Trazado_181" data-name="Trazado 181" d="M205.29,106.38l-.65-.47.76-.27Z" fill="#043c5e"/>
      <rect id="Rectángulo_9" data-name="Rectángulo 9" width="0.47" height="7.53" transform="translate(206.836 106.971) rotate(-81.66)" fill="#f18813"/>
      <rect id="Rectángulo_10" data-name="Rectángulo 10" width="0.471" height="7.54" transform="translate(208.08 106.376) rotate(-81.384)" fill="#f18813"/>
      <path id="Trazado_182" data-name="Trazado 182" d="M187.16,139.12c-4.39,3.22-9.55,18.7-9.55,18.7l3.85,2.16,6.27-8.6s.61,10-.89,17.59c.68,2.86,3.93,2.54,9.2,1.54a26.14,26.14,0,0,0,8.73-3.27s.23-13.81.91-21.13-.67-8.11,1.18-7.86c4.12-2.34,10.87-9.87,10.87-9.87l-6.27-1.22-13.5,7.9A58,58,0,0,0,187.16,139.12Z" fill="#01898c"/>
      <path id="Trazado_183" data-name="Trazado 183" d="M194.81,120.8l3.25,3.22a5.62,5.62,0,0,1,1.55,5.24l-.38,1.72Z" fill="#f8b68f"/>
      <path id="Trazado_184" data-name="Trazado 184" d="M190.86,119.58c-7.9,0-4.54,15.18-4.54,15.18s1.41,9.85,4.54,13.8c2.72,3.42,8.09,2.4,10.63.75a9.65,9.65,0,0,1,4.11-1.51c2.15-.26,4.71-1.21,4.71-5.1,0-3.66-4.36-6.49-7.24-8.51a9.44,9.44,0,0,1-3.72-5.51C198.43,124.94,196.18,119.58,190.86,119.58Z" fill="#ffd247"/>
      <path id="Trazado_185" data-name="Trazado 185" d="M201.65,221.78h6.13c.81.11,1.73.42,1.88,1.36a8.312,8.312,0,0,1,.09,1.25c-.22.34-8.35,0-8.35,0h0a2,2,0,0,1,.25-2.61Z" fill="#043c5e"/>
      <path id="Trazado_186" data-name="Trazado 186" d="M209.75,224.38l-8.35-.05.07.44h8.29Z" fill="#043c5e"/>
      <path id="Trazado_187" data-name="Trazado 187" d="M204.07,221.77h.56l-.17,1.01h-.54Z" fill="#fff"/>
      <path id="Trazado_188" data-name="Trazado 188" d="M205.26,221.77h.55l-.17,1.01h-.54Z" fill="#fff"/>
      <path id="Trazado_189" data-name="Trazado 189" d="M201.23,219.05l.42,2.73h0a1.54,1.54,0,0,0,1.64.05l.09-.06.3-2.72Z" fill="#f8b68f"/>
      <path id="Trazado_190" data-name="Trazado 190" d="M209.59,107.34a1.2,1.2,0,0,0-1.46.46l2.72,1.39h.12a13.56,13.56,0,0,1,1.8-.66,22.939,22.939,0,0,0-3.18-1.19Z" fill="#f8b68f"/>
      <path id="Trazado_191" data-name="Trazado 191" d="M519.24,349h-9.37c-1.24.13-2.63.49-2.86,1.56a6.7,6.7,0,0,0-.14,1.43c.34.39,12.75-.05,12.75-.05h0a2,2,0,0,0-.38-2.94Z" fill="#11375b"/>
      <path id="Trazado_192" data-name="Trazado 192" d="M506.87,352.01l12.75-.05-.11.49H506.86Z" fill="#212b53"/>
      <path id="Trazado_193" data-name="Trazado 193" d="M515.53,349.02l-.84.01.26,1.15h.82Z" fill="#fff"/>
      <path id="Trazado_194" data-name="Trazado 194" d="M513.72,349.02l-.84.01.26,1.15h.82Z" fill="#fff"/>
      <path id="Trazado_195" data-name="Trazado 195" d="M519.88,345.91l-.64,3.12h0a3,3,0,0,1-2.51.06l-.15-.06-.45-3.12Z" fill="#f8b68f"/>
      <path id="Trazado_196" data-name="Trazado 196" d="M541.12,349h-9.36c-1.25.13-2.64.49-2.87,1.56a6.327,6.327,0,0,0-.13,1.43c.33.39,12.74-.05,12.74-.05h.06a2,2,0,0,0-.44-2.94Z" fill="#212b53"/>
      <path id="Trazado_197" data-name="Trazado 197" d="M528.75,352.01l12.75-.05-.11.49H528.74Z" fill="#212b53"/>
      <path id="Trazado_198" data-name="Trazado 198" d="M537.41,349.02l-.84.01.26,1.15h.82Z" fill="#fff"/>
      <path id="Trazado_199" data-name="Trazado 199" d="M535.61,349.02l-.85.01.26,1.15h.82Z" fill="#fff"/>
      <path id="Trazado_200" data-name="Trazado 200" d="M540.71,345.91l.41,3.12h0a3,3,0,0,1-2.51.06l-.14-.06-1.5-3.12Z" fill="#f8b68f"/>
      <path id="Trazado_201" data-name="Trazado 201" d="M526.74,241l7.71,5-2.38,6.09a1.907,1.907,0,0,1-.12.25h-.67a5.94,5.94,0,0,0-4.91,3,10.31,10.31,0,0,1-3.64-.94,3.84,3.84,0,0,1-1.72-1.3C520.19,248.81,526.74,241,526.74,241Z" fill="#f8b68f"/>
      <path id="Trazado_202" data-name="Trazado 202" d="M516.93,242.62s-.94,8.95,1,14.65c-.88.76-4.12,4.23-5.14-.27s1.14-16,1.14-16Z" fill="#f8b68f"/>
      <path id="Trazado_203" data-name="Trazado 203" d="M521.56,241.98l1.81,1.17-.64,1.36-1.95-.86Z" fill="#212b53"/>
      <path id="Trazado_204" data-name="Trazado 204" d="M522.63,243.61c-.18.42-.2.81,0,.88s.45-.2.63-.61.19-.81,0-.89S522.81,243.2,522.63,243.61Z" fill="#212b53"/>
      <path id="Trazado_205" data-name="Trazado 205" d="M499.67,235.38a19.42,19.42,0,0,1,1.76-3.15,15.409,15.409,0,0,0,1.68-2.75l18.74,12.26L520.62,244l-20.95-7.74a6.168,6.168,0,0,0,0-.88Z" fill="#043c5e"/>
      <path id="Trazado_206" data-name="Trazado 206" d="M528.44,255.37l.68,4.21h-5.97l-.42-5.15Z" fill="#f4a086"/>
      <path id="Trazado_207" data-name="Trazado 207" d="M513.05,265.81s-7-2.24-9.25-5.25S505.33,241,505.33,241l-.48-3a2.75,2.75,0,0,1,2.7-3.2h1.88a1.07,1.07,0,0,1,1,1.51L508,241.93s-1.86,12.5.74,13.44a29,29,0,0,0,6.62,1.37Z" fill="#f8b68f"/>
      <path id="Trazado_208" data-name="Trazado 208" d="M526.27,255.37l1.82-4-1.18-.74A2.22,2.22,0,0,1,526,248l1.29-3.79s-3.67-.45-3.56-3.86c0-1.76,2.42-1.77,2.42-1.77a3.55,3.55,0,0,0,3,1.76c1-.12,3.61.23,5.39,3.35,1.21,2.1.68,5.38-.37,7.85-.93,2.21-3.33,3.44-5.7,3.8Z" fill="#212b53"/>
      <path id="Trazado_209" data-name="Trazado 209" d="M533.43,289.11A132.177,132.177,0,0,1,531.21,307a15.91,15.91,0,0,0,.55,8.21c4.2,12.49,10.09,31.27,10.09,31.27h-5.24s-11.88-22.2-14.94-33.21-3.58-14.5-3.58-14.5l3.64-9.62Z" fill="#00666a"/>
      <path id="Trazado_210" data-name="Trazado 210" d="M529.06,249.49a1.7,1.7,0,0,1-1,1.87c-.76.4-1.54.21-1.76-.42a1.7,1.7,0,0,1,1-1.87C528.06,248.66,528.84,248.85,529.06,249.49Z" fill="#f8b68f"/>
      <path id="Trazado_211" data-name="Trazado 211" d="M516.34,289.11h17.09V267.18a9.29,9.29,0,0,0-8.44-9.26l-11.88-1.44s-1.4,2.14-5.3,7.11a40.109,40.109,0,0,0,10.1,4.22Z" fill="#ffd247"/>
      <path id="Trazado_212" data-name="Trazado 212" d="M533.43,289.11s-2.41,8.74-11.32,18.54a11.42,11.42,0,0,0-3.32,8.9l1.83,29.89h-5.31s-6.49-24.82-5.09-37.05a56.158,56.158,0,0,1,6.12-20.28Z" fill="#01898c"/>
      <path id="Trazado_213" data-name="Trazado 213" d="M502.54,233.35c-.92,1.91-2.17,3.21-2.79,2.91s-.37-2.08.55-4,2.16-3.21,2.78-2.91S503.46,231.44,502.54,233.35Z" fill="#fff"/>
      <path id="Trazado_214" data-name="Trazado 214" d="M517.67,239l-.16.07a2.34,2.34,0,0,1-1.78.11h-.11a3.19,3.19,0,0,1-2-2.06h0a.58.58,0,0,1,.68-.75l1.19.25a1.76,1.76,0,0,1,1.12.76Z" fill="#f8b68f"/>
      <path id="Trazado_215" data-name="Trazado 215" d="M206.73,101.1a17.189,17.189,0,0,1-4.17-.51l.25-1a16.25,16.25,0,0,0,5.77.37l.11,1a18.246,18.246,0,0,1-1.96.14Zm7.84-1.91-.46-.89a15.93,15.93,0,0,0,4.56-3.56l.75.67a17,17,0,0,1-4.85,3.78ZM197,98a17.25,17.25,0,0,1-4.31-4.38l.83-.56a16.06,16.06,0,0,0,4.06,4.12Zm25.64-7.88-.93-.35a16,16,0,0,0,1-5.69h1a16.79,16.79,0,0,1-1.1,6.07ZM190.18,88a17.06,17.06,0,0,1-.45-3.91,16.491,16.491,0,0,1,.15-2.23l1,.13a16.34,16.34,0,0,0-.14,2.1,15.689,15.689,0,0,0,.43,3.68Zm32.46-5.53A15.85,15.85,0,0,0,221,76.94l.9-.45a16.64,16.64,0,0,1,1.71,5.9Zm-30-6-.88-.48a17,17,0,0,1,3.85-4.79l.65.76a15.929,15.929,0,0,0-3.61,4.55Zm24.89-4.19a16.09,16.09,0,0,0-4.9-3.08l.37-.93a17.11,17.11,0,0,1,5.2,3.27Zm-16.28-3.25-.34-.94a17,17,0,0,1,5.8-1H207v1h-.24a16.1,16.1,0,0,0-5.5.98Z" fill="none" stroke="#63c1c5" stroke-miterlimit="10" stroke-width="1"/>
      <path id="Trazado_216" data-name="Trazado 216" d="M61.01,110.92l3.64,7.17L57,116.34l-26.19-8.25Z" fill="#b0d9c8"/>
      <path id="Trazado_217" data-name="Trazado 217" d="M64.65,118.09l-13-.81,3.19-1.62Z" fill="#63c1c5"/>
      <path id="Trazado_218" data-name="Trazado 218" d="M61.01,110.92l2.27-6.98-32.47,4.15Z" fill="url(#linear-gradient-4)"/>
      <path id="Trazado_219" data-name="Trazado 219" d="M30.81,108.09,57,116.34l-3.9,10.07Z" fill="url(#linear-gradient-4)"/>
      <path id="Trazado_220" data-name="Trazado 220" d="M61.78,125.3a.6.6,0,0,0,.13-1,17.141,17.141,0,0,0-2.58-1.85.61.61,0,0,0-.62,1,16.14,16.14,0,0,1,2.39,1.73.63.63,0,0,0,.68.12Z" fill="#63c1c5"/>
      <path id="Trazado_221" data-name="Trazado 221" d="M52.27,192.15a.61.61,0,0,1,.21-.84A17.09,17.09,0,0,0,57,187.42a.611.611,0,1,1,.94.78,18.27,18.27,0,0,1-4.81,4.16h0a.6.6,0,0,1-.86-.21Zm7-6.86a.6.6,0,0,1-.23-.83,22.36,22.36,0,0,0,2.22-5.57.61.61,0,1,1,1.18.29,22.65,22.65,0,0,1-2.34,5.88.58.58,0,0,1-.25.24.63.63,0,0,1-.61-.01Zm3.11-9.3a.62.62,0,0,1-.57-.66v-.27a28.061,28.061,0,0,0-.3-5.75.612.612,0,0,1,1.21-.18,29,29,0,0,1,.31,6v.3a.58.58,0,0,1-.33.5.66.66,0,0,1-.35.07Zm-.85-9.81a.61.61,0,0,1-.75-.43,43.33,43.33,0,0,0-2-5.76.612.612,0,0,1,1.13-.47,46.84,46.84,0,0,1,2,5.92.63.63,0,0,1-.32.7.42.42,0,0,1-.09.04Zm-3.44-9.25a.62.62,0,0,1-.82-.28l-.22-.46q-1,.38-2,.66a.613.613,0,1,1-.33-1.18c.59-.16,1.17-.36,1.75-.57-.64-1.22-1.34-2.49-2.13-3.85a.61.61,0,0,1,.22-.83.62.62,0,0,1,.84.22c.82,1.41,1.54,2.72,2.2,4a19,19,0,0,0,2.54-1.42.61.61,0,1,1,.68,1,19.83,19.83,0,0,1-2.67,1.49c.07.13.14.27.2.4a.61.61,0,0,1-.27.82Zm4.84-5.15a.6.6,0,0,1,0-.86,15.359,15.359,0,0,0,2.23-2.9,14.93,14.93,0,0,0,1-2,.612.612,0,1,1,1.13.47,17.179,17.179,0,0,1-1.09,2.19,16.85,16.85,0,0,1-2.41,3.13.61.61,0,0,1-.16.12.59.59,0,0,1-.73-.15Zm-11.62,5.75A19.09,19.09,0,0,1,45,157a.61.61,0,0,1,.3-1.18,18,18,0,0,0,5.93.46.61.61,0,0,1,.66.56.62.62,0,0,1-.56.66Zm16.33-14.27a.62.62,0,0,1-.5-.71,18.53,18.53,0,0,0,.06-6,.612.612,0,1,1,1.21-.18,19.81,19.81,0,0,1-.06,6.34.62.62,0,0,1-.71.5ZM41.36,155.68a14.56,14.56,0,0,1-1.44-.83,13.08,13.08,0,0,1-3.46-3.3.613.613,0,0,1,1-.71,11.88,11.88,0,0,0,3.13,3c.42.27.87.53,1.32.76a.61.61,0,1,1-.55,1.09Zm11.06-7.57a22.31,22.31,0,0,0-3.78-4.66.62.62,0,0,1,0-.87.6.6,0,0,1,.86,0,23.471,23.471,0,0,1,4,4.9.62.62,0,0,1-.18.85h-.06a.62.62,0,0,1-.84-.22Zm14.67-14.62a.61.61,0,0,1-.77-.38,19.92,19.92,0,0,0-1.07-2.51,18,18,0,0,0-1.71-2.76.61.61,0,0,1,.12-.86.6.6,0,0,1,.85.12,19.639,19.639,0,0,1,1.84,2.9,23.22,23.22,0,0,1,1.13,2.67.61.61,0,0,1-.31.74.2.2,0,0,1-.08.08Zm-31.58,15a.62.62,0,0,1-.74-.44,6.83,6.83,0,0,1,.5-4.88,6.189,6.189,0,0,1,1-1.44.612.612,0,0,1,.88.85,5,5,0,0,0-.84,1.16,5.49,5.49,0,0,0-.4,4,.61.61,0,0,1-.32.69Zm10.23-7a8.74,8.74,0,0,0-5.63-.53.63.63,0,0,1-.75-.45.61.61,0,0,1,.45-.74,9.87,9.87,0,0,1,6.44.61.606.606,0,1,1-.51,1.1Z" fill="#63c1c5"/>
      <path id="Trazado_222" data-name="Trazado 222" d="M49.62,193.88a.63.63,0,0,0,.31-.72.62.62,0,0,0-.76-.42,13.359,13.359,0,0,1-2.87.49.6.6,0,0,0-.58.64.61.61,0,0,0,.64.58,14.72,14.72,0,0,0,3.15-.53Z" fill="#63c1c5"/>
    </g>
  </g>
</svg>
